<svg width="89" height="64" viewBox="0 0 89 64" fill="none" xmlns="http://www.w3.org/2000/svg">
<rect width="89" height="64" fill="#FFFAF8"/>
<rect x="1" y="18" width="87" height="43" rx="21.5" stroke="#FD6666" stroke-width="2"/>
<path d="M29.504 35.216V38.256H30.672C31.7387 38.256 32.272 37.7333 32.272 36.688C32.272 36.2293 32.1333 35.872 31.856 35.616C31.5787 35.3493 31.2 35.216 30.72 35.216H29.504ZM32.592 44L30.256 40.256H29.504V44H27.04V33.216H30.768C31.9733 33.216 32.9387 33.536 33.664 34.176C34.4 34.816 34.768 35.648 34.768 36.672C34.768 38.208 34.112 39.2693 32.8 39.856L35.536 44H32.592ZM43.0921 33.696V36C42.2281 35.4987 41.3321 35.248 40.4041 35.248C39.9881 35.248 39.6681 35.3333 39.4441 35.504C39.2308 35.6747 39.1241 35.8933 39.1241 36.16C39.1241 36.4267 39.2575 36.6667 39.5241 36.88C39.7908 37.0827 40.1908 37.3013 40.7241 37.536C41.0548 37.6853 41.3268 37.8187 41.5401 37.936C41.7641 38.0427 42.0148 38.1973 42.2921 38.4C42.5801 38.592 42.8041 38.8 42.9641 39.024C43.1348 39.2373 43.2788 39.504 43.3961 39.824C43.5135 40.144 43.5721 40.4907 43.5721 40.864C43.5721 41.8347 43.2148 42.624 42.5001 43.232C41.7855 43.8293 40.8361 44.128 39.6521 44.128C38.3828 44.128 37.3481 43.904 36.5481 43.456V40.976C37.5188 41.68 38.5535 42.032 39.6521 42.032C40.0255 42.032 40.3348 41.936 40.5801 41.744C40.8255 41.5413 40.9481 41.28 40.9481 40.96C40.9481 40.8533 40.9321 40.752 40.9001 40.656C40.8681 40.56 40.8095 40.4693 40.7241 40.384C40.6388 40.2987 40.5535 40.2293 40.4681 40.176C40.3935 40.112 40.2761 40.0427 40.1161 39.968C39.9668 39.8827 39.8388 39.8133 39.7321 39.76C39.6255 39.7067 39.4655 39.632 39.2521 39.536C39.0495 39.44 38.8841 39.3653 38.7561 39.312C38.0628 38.992 37.5028 38.5973 37.0761 38.128C36.6601 37.6587 36.4521 37.0347 36.4521 36.256C36.4521 35.328 36.7935 34.5813 37.4761 34.016C38.1588 33.44 39.1028 33.152 40.3081 33.152C41.3855 33.152 42.3135 33.3333 43.0921 33.696ZM54.2869 33.216L50.6549 44H47.9349L44.3509 33.216H47.0069L48.3029 37.52C48.5375 38.288 48.7402 39.0293 48.9109 39.744C49.0815 40.448 49.1935 40.96 49.2469 41.28L49.3269 41.776C49.4975 40.6667 49.8442 39.248 50.3669 37.52L51.6629 33.216H54.2869ZM58.0978 38.56H58.9138C60.2151 38.56 60.8658 37.968 60.8658 36.784C60.8658 35.7173 60.2631 35.184 59.0578 35.184H58.0978V38.56ZM55.6338 33.216H59.3458C60.5404 33.216 61.5058 33.552 62.2418 34.224C62.9884 34.896 63.3618 35.7493 63.3618 36.784C63.3618 37.968 62.9724 38.8853 62.1938 39.536C61.4258 40.1867 60.4764 40.512 59.3458 40.512H58.0978V44H55.6338V33.216Z" fill="#FD6666"/>
</svg>
