<svg width="30" height="36" viewBox="0 0 30 36" fill="none" xmlns="http://www.w3.org/2000/svg">
<path d="M2.74148 23.7451C-3.36457 13.0025 4.44209 1.73551 14.26 1.598C8.51944 6.06202 2.85522 16.2107 2.74148 23.7451Z" fill="url(#paint0_linear)"/>
<path d="M2.74148 23.7451C-3.36457 13.0025 4.44209 1.73551 14.26 1.598M2.74148 23.7451C0.912351 12.8788 5.64425 4.96624 14.26 1.598M2.74148 23.7451C2.85522 16.2107 8.51944 6.06202 14.26 1.598" stroke="#FDF8F8" stroke-width="0.3"/>
<path d="M14.2598 1.59311C24.9252 1.1495 32.4919 11.3984 27.5732 22.2197C25.7991 11.836 19.9813 4.91173 14.2598 1.59311Z" fill="url(#paint1_linear)"/>
<path d="M14.2598 1.59311C24.9252 1.1495 32.4919 11.3984 27.5732 22.2197M14.2598 1.59311C25.1602 4.21857 28.2682 13.1135 27.5732 22.2197M14.2598 1.59311C19.9813 4.91173 25.7991 11.836 27.5732 22.2197" stroke="#FDF8F8" stroke-width="0.3"/>
<path d="M27.4879 22.6187C21.2044 33.1344 7.61168 32.0189 2.68689 23.4929C9.35021 26.3675 20.9288 26.1466 27.4879 22.6187Z" fill="url(#paint2_linear)"/>
<path d="M27.4879 22.6187C21.2044 33.1344 7.61168 32.0189 2.68689 23.4929M27.4879 22.6187C19.0039 29.451 9.81185 29.4114 2.68689 23.4929M27.4879 22.6187C20.9288 26.1466 9.35021 26.3675 2.68689 23.4929" stroke="#FDF8F8" stroke-width="0.3"/>
<path d="M4.72438 23.6626L2.86679 23.7399L4.02113 21.229L5.71482 21.1586L4.72438 23.6626Z" fill="#FD6666" stroke="#FDF8F8" stroke-width="0.3"/>
<path d="M5.69382 21.1595L3.74788 21.2404L4.94197 19.713L6.63857 19.6847L5.69382 21.1595Z" fill="#FD6666" stroke="#FDF8F8" stroke-width="0.3"/>
<path d="M6.39677 19.6525L5.15912 19.6404L5.85755 17.7047L7.04682 17.6552L6.39677 19.6525Z" fill="#FD6666" stroke="#FDF8F8" stroke-width="0.3"/>
<path d="M7.13071 17.6517L5.57161 17.7166L6.58963 16.1965L7.97081 16.1868L7.13071 17.6517Z" fill="#FD7866" stroke="#FDF8F8" stroke-width="0.3"/>
<path d="M7.75033 16.1483L6.49137 16.1438L7.2519 14.6913L8.39923 14.6436L7.75033 16.1483Z" fill="#FD8A66" stroke="#FDF8F8" stroke-width="0.3"/>
<path d="M8.66742 14.6324L7.41578 14.6845L8.2093 13.6663L9.34174 13.6192L8.66742 14.6324Z" fill="#FD9366" stroke="#FDF8F8" stroke-width="0.3"/>
<path d="M9.05857 13.631L7.86653 13.6806L8.75881 12.1658L9.77204 12.1237L9.05857 13.631Z" fill="#FD9C66" stroke="#FDF8F8" stroke-width="0.3"/>
<path d="M9.62457 12.1298L8.78865 12.1646L9.46487 10.6587L10.2024 10.6281L9.62457 12.1298Z" fill="#FD9C66" stroke="#FDF8F8" stroke-width="0.3"/>
<path d="M10.4483 10.6178L9.71077 10.6485L10.4853 9.1386L11.1246 9.11201L10.4483 10.6178Z" fill="#FDAE66" stroke="#FDF8F8" stroke-width="0.3"/>
<path d="M11.146 9.11112L10.6329 9.13246L11.1274 7.6342L11.555 7.61641L11.146 9.11112Z" fill="#FDC066" stroke="#FDF8F8" stroke-width="0.3"/>
<path d="M11.5314 7.61736L11.0631 7.63684L11.631 6.62809L12.0056 6.61251L11.5314 7.61736Z" fill="#FDD366" stroke="#FDF8F8" stroke-width="0.3"/>
<path d="M12.4198 6.59528L12.0057 6.61251L12.5655 5.11153L12.9278 5.09646L12.4198 6.59528Z" fill="#FDE566" stroke="#FDF8F8" stroke-width="0.3"/>
<path d="M12.7803 5.10259L12.4361 5.1169L14.2598 1.59309L12.7803 5.10259Z" fill="#FDF766" stroke="#FDF8F8" stroke-width="0.3"/>
<path d="M6.5358 23.5873L4.83371 23.6581L5.67705 21.1602L7.19002 21.0972L6.5358 23.5873Z" fill="#FD6666" stroke="#FDF8F8" stroke-width="0.3"/>
<path d="M7.42511 21.0875L5.7148 21.1586L6.5086 19.6479L8.11202 19.5812L7.42511 21.0875Z" fill="#FD6666" stroke="#FDF8F8" stroke-width="0.3"/>
<path d="M8.06277 19.5833L6.6368 19.6426L7.26384 18.1388L8.5423 18.0856L8.06277 19.5833Z" fill="#FD6666" stroke="#FDF8F8" stroke-width="0.3"/>
<path d="M8.3784 18.0924L7.0646 18.0855L7.6914 16.1507L8.95221 16.0983L8.3784 18.0924Z" fill="#FD7866" stroke="#FDF8F8" stroke-width="0.3"/>
<path d="M9.31753 16.0831L7.96883 16.1392L8.58182 14.636L9.87433 14.5822L9.31753 16.0831Z" fill="#FD8A66" stroke="#FDF8F8" stroke-width="0.3"/>
<path d="M9.7514 14.5874L8.39918 14.6436L9.09585 13.6295L10.3251 13.5784L9.7514 14.5874Z" fill="#FD9366" stroke="#FDF8F8" stroke-width="0.3"/>
<path d="M10.276 13.5804L9.34175 13.6193L9.91963 12.1175L10.7555 12.0828L10.276 13.5804Z" fill="#FD9C66" stroke="#FDF8F8" stroke-width="0.3"/>
<path d="M10.6677 12.0864L9.77205 12.1237L10.3956 10.62L11.1858 10.5872L10.6677 12.0864Z" fill="#FD9C66" stroke="#FDF8F8" stroke-width="0.3"/>
<path d="M11.0535 10.5927L10.2025 10.6281L10.9922 9.11753L11.6163 9.09157L11.0535 10.5927Z" fill="#FDAE66" stroke="#FDF8F8" stroke-width="0.3"/>
<path d="M11.6865 9.08864L11.1246 9.11202L11.5784 7.61545L12.0467 7.59597L11.6865 9.08864Z" fill="#FDC066" stroke="#FDF8F8" stroke-width="0.3"/>
<path d="M12.0724 7.59493L11.5548 7.61646L12.0833 6.60934L12.4973 6.59212L12.0724 7.59493Z" fill="#FDD366" stroke="#FDF8F8" stroke-width="0.3"/>
<path d="M12.5263 6.59085L12.0057 6.61251L12.5807 5.11089L12.9278 5.09646L12.5263 6.59085Z" fill="#FDE566" stroke="#FDF8F8" stroke-width="0.3"/>
<path d="M13.2044 5.08495L12.9278 5.09646L14.2598 1.59309L13.2044 5.08495Z" fill="#FDF766" stroke="#FDF8F8" stroke-width="0.3"/>
<path d="M8.65698 23.4991L6.8005 23.5763L7.50104 21.0843L9.15938 21.0769L8.65698 23.4991Z" fill="#FD6666" stroke="#FDF8F8" stroke-width="0.3"/>
<path d="M9.03395 21.0206L7.18826 21.0551L7.91094 19.5896L9.58724 19.5198L9.03395 21.0206Z" fill="#FD6666" stroke="#FDF8F8" stroke-width="0.3"/>
<path d="M9.62499 19.5183L8.11201 19.5812L8.60542 18.083L10.0175 18.0242L9.62499 19.5183Z" fill="#FD6666" stroke="#FDF8F8" stroke-width="0.3"/>
<path d="M9.97766 18.0259L8.54238 18.0856L9.09847 16.0922L10.4274 16.0369L9.97766 18.0259Z" fill="#FD7866" stroke="#FDF8F8" stroke-width="0.3"/>
<path d="M10.4423 16.0363L8.95222 16.0983L9.54649 14.5959L10.8577 14.5413L10.4423 16.0363Z" fill="#FD8A66" stroke="#FDF8F8" stroke-width="0.3"/>
<path d="M10.9562 14.5373L9.8744 14.5822L10.3252 13.5784L11.3086 13.5375L10.9562 14.5373Z" fill="#FD9366" stroke="#FDF8F8" stroke-width="0.3"/>
<path d="M11.3788 13.5345L10.3251 13.5783L10.8433 12.0791L11.7389 12.0418L11.3788 13.5345Z" fill="#FD9C66" stroke="#FDF8F8" stroke-width="0.3"/>
<path d="M11.72 12.0426L10.7554 12.0827L11.3182 10.5816L12.1692 10.5462L11.72 12.0426Z" fill="#FD9C66" stroke="#FDF8F8" stroke-width="0.3"/>
<path d="M12.0838 10.5498L11.1859 10.5872L11.83 9.08269L12.5997 9.05067L12.0838 10.5498Z" fill="#FDAE66" stroke="#FDF8F8" stroke-width="0.3"/>
<path d="M12.2374 9.06568L11.6163 9.09151L12.0208 7.59699L12.5384 7.57546L12.2374 9.06568Z" fill="#FDC066" stroke="#FDF8F8" stroke-width="0.3"/>
<path d="M12.625 7.57189L12.0465 7.59595L12.5263 6.59086L12.989 6.57161L12.625 7.57189Z" fill="#FDD366" stroke="#FDF8F8" stroke-width="0.3"/>
<path d="M13.0219 6.57024L12.4974 6.59206L13.0261 5.09237L13.4195 5.07601L13.0219 6.57024Z" fill="#FDE566" stroke="#FDF8F8" stroke-width="0.3"/>
<path d="M13.2229 5.08419L12.9278 5.09646L14.2598 1.59309L13.2229 5.08419Z" fill="#FDF766" stroke="#FDF8F8" stroke-width="0.3"/>
<path d="M10.3024 23.4306L8.7673 23.4945L9.24071 21.0119L10.6319 20.9541L10.3024 23.4306Z" fill="#FD6666" stroke="#FDF8F8" stroke-width="0.3"/>
<path d="M10.6984 20.9513L9.15681 21.0155L9.6802 19.516L11.0623 19.4585L10.6984 20.9513Z" fill="#FD6666" stroke="#FDF8F8" stroke-width="0.3"/>
<path d="M11.1369 19.4554L9.58723 19.5199L10.0623 18.0224L11.4927 17.9629L11.1369 19.4554Z" fill="#FD6666" stroke="#FDF8F8" stroke-width="0.3"/>
<path d="M11.1596 17.9767L10.0176 18.0242L10.4116 16.0376L11.4109 15.996L11.1596 17.9767Z" fill="#FD7866" stroke="#FDF8F8" stroke-width="0.3"/>
<path d="M11.5748 15.9892L10.4274 16.0369L10.8032 14.5436L11.8412 14.5004L11.5748 15.9892Z" fill="#FD8A66" stroke="#FDF8F8" stroke-width="0.3"/>
<path d="M11.9789 14.4947L10.8578 14.5413L11.2299 13.5407L12.292 13.4965L11.9789 14.4947Z" fill="#FD9366" stroke="#FDF8F8" stroke-width="0.3"/>
<path d="M12.0354 13.5072L11.3085 13.5374L11.5893 12.0481L12.2306 12.0214L12.0354 13.5072Z" fill="#FD9C66" stroke="#FDF8F8" stroke-width="0.3"/>
<path d="M12.4414 12.0126L11.739 12.0419L12.0991 10.5492L12.661 10.5258L12.4414 12.0126Z" fill="#FD9C66" stroke="#FDF8F8" stroke-width="0.3"/>
<path d="M12.8085 10.5197L12.1693 10.5463L12.5505 9.0527L13.0913 9.0302L12.8085 10.5197Z" fill="#FDAE66" stroke="#FDF8F8" stroke-width="0.3"/>
<path d="M12.9377 9.03659L12.5997 9.05065L12.7535 7.56655L13.03 7.55505L12.9377 9.03659Z" fill="#FDC066" stroke="#FDF8F8" stroke-width="0.3"/>
<path d="M13.1705 7.54921L12.5383 7.5755L12.9892 6.57162L13.4809 6.55117L13.3238 7.00549L13.1705 7.54921Z" fill="#FDD366" stroke="#FDF8F8" stroke-width="0.3"/>
<path d="M13.2759 6.55968L12.9891 6.57161L13.2146 5.08454L13.4194 5.07601L13.2759 6.55968Z" fill="#FDE566" stroke="#FDF8F8" stroke-width="0.3"/>
<path d="M13.6654 5.06582L13.4195 5.07604L14.2598 1.59313L13.6654 5.06582Z" fill="#FDF766" stroke="#FDF8F8" stroke-width="0.3"/>
<path d="M12.3412 23.3458L10.2424 23.4331L10.6798 20.9521L12.5987 20.8723L12.3412 23.3458Z" fill="#FD6666" stroke="#FDF8F8" stroke-width="0.3"/>
<path d="M12.333 20.8833L10.6319 20.9541L10.9958 19.4613L12.5374 19.3971L12.333 20.8833Z" fill="#FD6666" stroke="#FDF8F8" stroke-width="0.3"/>
<path d="M12.7775 17.9095L11.4927 17.9629L11.7916 15.9802L12.886 15.9347L12.7775 17.9095Z" fill="#FD7866" stroke="#FDF8F8" stroke-width="0.3"/>
<path d="M12.7908 19.3866L11.0623 19.4585L11.3586 17.9685L12.9678 17.9015L12.7908 19.3866Z" fill="#FD6666" stroke="#FDF8F8" stroke-width="0.3"/>
<path d="M12.6674 15.9438L11.4108 15.996L11.6773 14.5072L12.8246 14.4595L12.6674 15.9438Z" fill="#FD8A66" stroke="#FDF8F8" stroke-width="0.3"/>
<path d="M13.1319 14.4467L11.8412 14.5004L12.1691 13.5017L13.2754 13.4556L13.1319 14.4467Z" fill="#FD9366" stroke="#FDF8F8" stroke-width="0.3"/>
<path d="M13.0967 13.4631L12.2921 13.4965L12.4989 12.0102L13.2141 11.9805L13.0967 13.4631Z" fill="#FD9C66" stroke="#FDF8F8" stroke-width="0.3"/>
<path d="M13.4108 11.9723L12.2307 12.0214L12.6119 10.5278L13.6445 10.4849L13.4108 11.9723Z" fill="#FD9C66" stroke="#FDF8F8" stroke-width="0.3"/>
<path d="M13.4259 10.494L12.661 10.5258L12.9821 9.03475L13.583 9.00976L13.4259 10.494Z" fill="#FDAE66" stroke="#FDF8F8" stroke-width="0.3"/>
<path d="M13.4777 9.01416L13.0914 9.03023L13.2056 7.54778L13.5217 7.53463L13.4777 9.01416Z" fill="#FDC066" stroke="#FDF8F8" stroke-width="0.3"/>
<path d="M13.7109 7.52674L13.03 7.55506L13.3674 6.55589L13.9726 6.53072L13.7109 7.52674Z" fill="#FDD366" stroke="#FDF8F8" stroke-width="0.3"/>
<path d="M13.8384 6.53629L13.4808 6.55117L13.6429 5.06672L13.9111 5.05557L13.8384 6.53629Z" fill="#FDE566" stroke="#FDF8F8" stroke-width="0.3"/>
<path d="M13.8129 5.05968L13.4195 5.07604L14.2598 1.59313L13.8129 5.05968Z" fill="#FDF766" stroke="#FDF8F8" stroke-width="0.3"/>
<path d="M14.0754 23.2737L12.2094 23.3513L12.3593 20.8822L14.074 20.8109L14.0754 23.2737Z" fill="#FD6666" stroke="#FDF8F8" stroke-width="0.3"/>
<path d="M13.9919 20.8143L12.5987 20.8723L12.7422 19.3886L14.0125 19.3358L13.9919 20.8143Z" fill="#FD6666" stroke="#FDF8F8" stroke-width="0.3"/>
<path d="M16.0408 20.7291L14.0739 20.8109L14.1395 19.3305L15.916 19.2566L16.0408 20.7291Z" fill="#FD6666" stroke="#FDF8F8" stroke-width="0.3"/>
<path d="M14.4428 19.3179L12.5374 19.3971L12.7219 17.9117L14.4429 17.8402L14.4428 19.3179Z" fill="#FD6666" stroke="#FDF8F8" stroke-width="0.3"/>
<path d="M14.3446 17.8443L12.9678 17.9015L13.0827 15.9265L14.3611 15.8733L14.3446 17.8443Z" fill="#FD7866" stroke="#FDF8F8" stroke-width="0.3"/>
<path d="M14.3066 15.8756L12.8861 15.9346L13.0432 14.4504L14.2999 14.3981L14.3066 15.8756Z" fill="#FD8A66" stroke="#FDF8F8" stroke-width="0.3"/>
<path d="M14.2383 14.4007L12.8246 14.4595L12.9681 13.4684L14.2588 13.4147L14.2383 14.4007Z" fill="#FD9366" stroke="#FDF8F8" stroke-width="0.3"/>
<path d="M14.2142 13.4166L13.2755 13.4556L13.3929 11.973L14.1975 11.9396L14.2142 13.4166Z" fill="#FD9C66" stroke="#FDF8F8" stroke-width="0.3"/>
<path d="M14.1457 11.9417L13.2141 11.9805L13.3597 10.4967L14.1361 10.4644L14.1457 11.9417Z" fill="#FD9C66" stroke="#FDF8F8" stroke-width="0.3"/>
<path d="M14.0784 10.4668L13.6445 10.4849L13.6988 9.00492L14.0748 8.98928L14.0784 10.4668Z" fill="#FDAE66" stroke="#FDF8F8" stroke-width="0.3"/>
<path d="M14.4963 8.97177L13.5831 9.00975L13.7325 7.52584L14.5052 7.4937L14.4963 8.97177Z" fill="#FDC066" stroke="#FDF8F8" stroke-width="0.3"/>
<path d="M14.4232 7.49711L13.5217 7.53461L13.8086 6.53754L14.4643 6.51027L14.4232 7.49711Z" fill="#FDD366" stroke="#FDF8F8" stroke-width="0.3"/>
<path d="M14.4096 6.51254L13.9725 6.53072L14.075 5.04876L14.4028 5.03512L14.4096 6.51254Z" fill="#FDE566" stroke="#FDF8F8" stroke-width="0.3"/>
<path d="M14.239 5.04196L13.9112 5.05559L14.2598 1.59313L14.239 5.04196Z" fill="#FDF766" stroke="#FDF8F8" stroke-width="0.3"/>
<path d="M16.1431 23.1877L14.1762 23.2695L14.1864 20.8063L15.9284 20.7338L16.1431 23.1877Z" fill="#FD6666" stroke="#FDF8F8" stroke-width="0.3"/>
<path d="M15.4877 19.2744L14.0125 19.3358L14.0039 17.8584L15.3736 17.8015L15.4877 19.2744Z" fill="#FD6666" stroke="#FDF8F8" stroke-width="0.3"/>
<path d="M15.4263 17.7993L14.4429 17.8402L14.4367 15.8702L15.3067 15.834L15.4263 17.7993Z" fill="#FD7866" stroke="#FDF8F8" stroke-width="0.3"/>
<path d="M15.3446 15.8324L14.3612 15.8733L14.3426 14.3964L15.2405 14.359L15.3446 15.8324Z" fill="#FD8A66" stroke="#FDF8F8" stroke-width="0.3"/>
<path d="M15.2832 14.3573L14.2998 14.3982L14.3057 13.4128L15.1955 13.3758L15.2832 14.3573Z" fill="#FD9366" stroke="#FDF8F8" stroke-width="0.3"/>
<path d="M15.2423 13.3738L14.2589 13.4147L14.2493 11.9374L15.1292 11.9008L15.2423 13.3738Z" fill="#FD9C66" stroke="#FDF8F8" stroke-width="0.3"/>
<path d="M15.181 11.8987L14.1976 11.9396L14.1941 10.462L15.0618 10.4259L15.181 11.8987Z" fill="#FD9C66" stroke="#FDF8F8" stroke-width="0.3"/>
<path d="M15.1196 10.4235L14.1362 10.4644L14.206 8.98383L14.9271 8.95384L15.1196 10.4235Z" fill="#FDAE66" stroke="#FDF8F8" stroke-width="0.3"/>
<path d="M15.0582 8.94837L14.0748 8.98928L14.1028 7.51041L14.9075 7.47694L15.0582 8.94837Z" fill="#FDC066" stroke="#FDF8F8" stroke-width="0.3"/>
<path d="M14.9969 7.47326L14.5051 7.49372L14.5189 6.50801L14.9013 6.4921L14.9969 7.47326Z" fill="#FDD366" stroke="#FDF8F8" stroke-width="0.3"/>
<path d="M14.4643 6.51027V6.51027L14.403 5.03513V5.03513L14.4643 6.51027Z" stroke="#FDF8F8" stroke-width="0.3"/>
<path d="M14.4029 5.03512V5.03512L14.2598 1.59311L14.4029 5.03512Z" stroke="#FDF8F8" stroke-width="0.3"/>
<path d="M18.1099 23.1059L16.2414 23.1836L16.0408 20.7291L17.7126 20.6596L18.1099 23.1059Z" fill="#FD6666" stroke="#FDF8F8" stroke-width="0.3"/>
<path d="M15.6053 20.7472L17.516 20.6678L17.2299 19.202L15.4878 19.2744L15.6053 20.7472Z" fill="#FD6666" stroke="#FDF8F8" stroke-width="0.3"/>
<path d="M15.5492 19.2719L17.4546 19.1926L17.1474 17.7277L15.4264 17.7993L15.5492 19.2719Z" fill="#FD6666" stroke="#FDF8F8" stroke-width="0.3"/>
<path d="M15.4773 17.7972L16.9016 17.7379L16.6163 15.7795L15.3446 15.8324L15.4773 17.7972Z" fill="#FD7866" stroke="#FDF8F8" stroke-width="0.3"/>
<path d="M15.4013 15.8301L16.8197 15.7711L16.5314 14.3054L15.2832 14.3573L15.4013 15.8301Z" fill="#FD8A66" stroke="#FDF8F8" stroke-width="0.3"/>
<path d="M15.3474 14.3546L16.7584 14.2959L16.525 13.3205L15.2423 13.3738L15.3474 14.3546Z" fill="#FD9366" stroke="#FDF8F8" stroke-width="0.3"/>
<path d="M15.2891 13.3719L16.2257 13.333L15.977 11.8656L15.1809 11.8987L15.2891 13.3719Z" fill="#FD9C66" stroke="#FDF8F8" stroke-width="0.3"/>
<path d="M15.2356 11.8964L16.1644 11.8578L15.9392 10.3894L15.1196 10.4235L15.2356 11.8964Z" fill="#FD9C66" stroke="#FDF8F8" stroke-width="0.3"/>
<path d="M15.1774 10.4211L15.6113 10.4031L15.4342 8.93276L15.0582 8.94839L15.1774 10.4211Z" fill="#FDAE66" stroke="#FDF8F8" stroke-width="0.3"/>
<path d="M15.0933 8.94692L15.5499 8.92793L15.3832 7.45717L14.9968 7.47324L15.0933 8.94692Z" fill="#FDC066" stroke="#FDF8F8" stroke-width="0.3"/>
<path d="M14.5871 7.49031L15.4886 7.45281L15.2018 6.47961L14.4642 6.51028L14.5871 7.49031Z" fill="#FDD366" stroke="#FDF8F8" stroke-width="0.3"/>
<path d="M14.4643 6.51027L14.956 6.48982L14.7308 5.02149L14.403 5.03513L14.4643 6.51027Z" fill="#FDE566" stroke="#FDF8F8" stroke-width="0.3"/>
<path d="M14.5668 5.0283L14.8946 5.01467L14.2598 1.59311L14.5668 5.0283Z" fill="#FDF766" stroke="#FDF8F8" stroke-width="0.3"/>
<path d="M17.9613 23.1121L20.0768 23.0241L19.46 20.5869L17.516 20.6678L17.9613 23.1121Z" fill="#FD6666" stroke="#FDF8F8" stroke-width="0.3"/>
<path d="M17.723 20.6591L19.4828 20.5859L19.0074 19.128L17.4546 19.1926L17.723 20.6591Z" fill="#FD6666" stroke="#FDF8F8" stroke-width="0.3"/>
<path d="M17.1942 19.2034L18.9297 19.1313L18.5213 17.6705L16.9015 17.7379L17.1942 19.2034Z" fill="#FD6666" stroke="#FDF8F8" stroke-width="0.3"/>
<path d="M17.0859 17.7302L18.3767 17.6765L17.9261 15.725L16.8197 15.771L17.0859 17.7302Z" fill="#FD7866" stroke="#FDF8F8" stroke-width="0.3"/>
<path d="M17.0304 15.7623L18.2948 15.7097L17.9173 14.2477L16.7583 14.2959L17.0304 15.7623Z" fill="#FD8A66" stroke="#FDF8F8" stroke-width="0.3"/>
<path d="M16.4438 14.309L17.7419 14.255L17.4059 13.2839L16.2258 13.3329L16.4438 14.309Z" fill="#FD9366" stroke="#FDF8F8" stroke-width="0.3"/>
<path d="M16.3897 13.3261L17.2092 13.292L16.902 11.8271L16.1644 11.8578L16.3897 13.3261Z" fill="#FD9C66" stroke="#FDF8F8" stroke-width="0.3"/>
<path d="M15.8834 11.8695L17.1478 11.8169L16.5948 10.3622L15.6113 10.4031L15.8834 11.8695Z" fill="#FD9C66" stroke="#FDF8F8" stroke-width="0.3"/>
<path d="M15.8298 10.394L16.5947 10.3622L16.2055 8.90068L15.5499 8.92795L15.8298 10.394Z" fill="#FDAE66" stroke="#FDF8F8" stroke-width="0.3"/>
<path d="M15.6482 8.92385L16.0416 8.90748L15.8163 7.43915L15.4885 7.45279L15.6482 8.92385Z" fill="#FDC066" stroke="#FDF8F8" stroke-width="0.3"/>
<path d="M15.2239 7.46383L15.9804 7.43236L15.5612 6.46467L14.9561 6.48984L15.2239 7.46383Z" fill="#FDD366" stroke="#FDF8F8" stroke-width="0.3"/>
<path d="M15.0901 6.48425L15.4477 6.46937L15.1629 5.00352L14.8947 5.01468L15.0901 6.48425Z" fill="#FDE566" stroke="#FDF8F8" stroke-width="0.3"/>
<path d="M14.993 5.01057L15.3864 4.99421L14.2598 1.59311L14.993 5.01057Z" fill="#FDF766" stroke="#FDF8F8" stroke-width="0.3"/>
<path d="M20.046 23.0254L22.0436 22.9423L21.2755 20.5114L19.4828 20.586L20.046 23.0254Z" fill="#FD6666" stroke="#FDF8F8" stroke-width="0.3"/>
<path d="M19.4485 20.5874L21.4496 20.5041L20.7593 19.0552L18.9297 19.1313L19.4485 20.5874Z" fill="#FD6666" stroke="#FDF8F8" stroke-width="0.3"/>
<path d="M18.8263 19.1356L20.8966 19.0495L20.253 17.5985L18.3767 17.6766L18.8263 19.1356Z" fill="#FD6666" stroke="#FDF8F8" stroke-width="0.3"/>
<path d="M18.802 17.6589L20.3436 17.5947L19.677 15.6522L18.2949 15.7097L18.802 17.6589Z" fill="#FD7866" stroke="#FDF8F8" stroke-width="0.3"/>
<path d="M18.0798 15.7186L19.2783 15.6688L18.8482 14.209L17.7418 14.255L18.0798 15.7186Z" fill="#FD8A66" stroke="#FDF8F8" stroke-width="0.3"/>
<path d="M17.5892 14.2613L19.217 14.1936L18.6335 13.2328L17.2092 13.292L17.5892 14.2613Z" fill="#FD9366" stroke="#FDF8F8" stroke-width="0.3"/>
<path d="M17.537 13.2784L18.6843 13.2307L18.1313 11.776L17.1478 11.8169L17.537 13.2784Z" fill="#FD9C66" stroke="#FDF8F8" stroke-width="0.3"/>
<path d="M17.0691 11.8202L18.1312 11.776L17.5388 10.3229L16.5947 10.3622L17.0691 11.8202Z" fill="#FD9C66" stroke="#FDF8F8" stroke-width="0.3"/>
<path d="M16.5054 10.3659L17.5783 10.3213L16.9134 8.87121L16.0417 8.90747L16.5054 10.3659Z" fill="#FDAE66" stroke="#FDF8F8" stroke-width="0.3"/>
<path d="M16.3149 8.89613L17.0251 8.86658L16.5813 7.40735L15.9803 7.43234L16.3149 8.89613Z" fill="#FDC066" stroke="#FDF8F8" stroke-width="0.3"/>
<path d="M15.796 7.44001L16.4721 7.41189L15.9395 6.44891L15.4478 6.46936L15.796 7.44001Z" fill="#FDD366" stroke="#FDF8F8" stroke-width="0.3"/>
<path d="M15.6368 6.46148L15.9394 6.4489L15.6133 4.98476L15.3864 4.9942L15.6368 6.46148Z" fill="#FDE566" stroke="#FDF8F8" stroke-width="0.3"/>
<path d="M15.1054 5.0059L15.3864 4.99421L14.2598 1.59311L15.1054 5.0059Z" fill="#FDF766" stroke="#FDF8F8" stroke-width="0.3"/>
<path d="M22.2042 22.9356L24.0105 22.8605L23.0553 20.4374L21.4497 20.5042L22.2042 22.9356Z" fill="#FD6666" stroke="#FDF8F8" stroke-width="0.3"/>
<path d="M21.4611 20.5037L22.9248 20.4428L22.1774 18.9962L20.8966 19.0495L21.4611 20.5037Z" fill="#FD6666" stroke="#FDF8F8" stroke-width="0.3"/>
<path d="M20.8833 19.05L22.3717 18.9881L21.7256 17.5373L20.3435 17.5948L20.8833 19.05Z" fill="#FD6666" stroke="#FDF8F8" stroke-width="0.3"/>
<path d="M19.9449 17.6113L21.327 17.5538L20.5541 15.6157L19.2783 15.6688L19.9449 17.6113Z" fill="#FD7866" stroke="#FDF8F8" stroke-width="0.3"/>
<path d="M19.6471 15.6534L20.7534 15.6074L20.185 14.1534L19.2169 14.1936L19.6471 15.6534Z" fill="#FD8A66" stroke="#FDF8F8" stroke-width="0.3"/>
<path d="M19.1322 14.1972L20.2004 14.1528L19.5999 13.1926L18.6843 13.2307L19.1322 14.1972Z" fill="#FD9366" stroke="#FDF8F8" stroke-width="0.3"/>
<path d="M18.6843 13.2307L19.6677 13.1898L19.0054 11.7396L18.1312 11.776L18.6843 13.2307Z" fill="#FD9C66" stroke="#FDF8F8" stroke-width="0.3"/>
<path d="M17.9935 11.7817L18.6229 11.7555L18.1288 10.2984L17.5781 10.3213L17.9935 11.7817Z" fill="#FD9C66" stroke="#FDF8F8" stroke-width="0.3"/>
<path d="M17.4713 10.3257L18.0699 10.3009L17.4955 8.84704L17.0251 8.86661L17.4713 10.3257Z" fill="#FDAE66" stroke="#FDF8F8" stroke-width="0.3"/>
<path d="M16.9158 8.87113L17.5168 8.84614L16.9638 7.39144L16.472 7.4119L16.9158 8.87113Z" fill="#FDC066" stroke="#FDF8F8" stroke-width="0.3"/>
<path d="M16.4431 7.4131L16.9638 7.39144L16.4022 6.42966L15.9395 6.44891L16.4431 7.4131Z" fill="#FDD366" stroke="#FDF8F8" stroke-width="0.3"/>
<path d="M15.9066 6.45026L16.4311 6.42844L15.7797 4.97784L15.3864 4.9942L15.9066 6.45026Z" fill="#FDE566" stroke="#FDF8F8" stroke-width="0.3"/>
<path d="M15.5503 4.9874L15.8781 4.97376L14.2598 1.59311L15.5503 4.9874Z" fill="#FDF766" stroke="#FDF8F8" stroke-width="0.3"/>
<path d="M24.0302 22.8596L25.9774 22.7786L24.695 20.3692L22.9248 20.4428L24.0302 22.8596Z" fill="#FD6666" stroke="#FDF8F8" stroke-width="0.3"/>
<path d="M23.2526 20.4292L24.8916 20.361L23.9015 18.9245L22.3717 18.9881L23.2526 20.4292Z" fill="#FD6666" stroke="#FDF8F8" stroke-width="0.3"/>
<path d="M22.0817 19.0002L23.8468 18.9268L22.9029 17.4883L21.3269 17.5539L22.0817 19.0002Z" fill="#FD6666" stroke="#FDF8F8" stroke-width="0.3"/>
<path d="M21.5081 17.5463L22.8021 17.4925L21.8921 15.5601L20.7534 15.6075L21.5081 17.5463Z" fill="#FD7866" stroke="#FDF8F8" stroke-width="0.3"/>
<path d="M20.7088 15.6093L21.7369 15.5665L21.0945 14.1156L20.2004 14.1527L20.7088 15.6093Z" fill="#FD8A66" stroke="#FDF8F8" stroke-width="0.3"/>
<path d="M20.2321 14.1514L21.1838 14.1118L20.5718 13.1522L19.6677 13.1898L20.2321 14.1514Z" fill="#FD9366" stroke="#FDF8F8" stroke-width="0.3"/>
<path d="M19.4056 13.2007L20.6513 13.1489L19.672 11.7119L18.623 11.7555L19.4056 13.2007Z" fill="#FD9C66" stroke="#FDF8F8" stroke-width="0.3"/>
<path d="M18.7322 11.751L19.6063 11.7146L18.8347 10.269L18.0698 10.3008L18.7322 11.751Z" fill="#FD9C66" stroke="#FDF8F8" stroke-width="0.3"/>
<path d="M18.259 10.2929L19.0533 10.2599L18.1977 8.81778L17.5168 8.8461L18.259 10.2929Z" fill="#FDAE66" stroke="#FDF8F8" stroke-width="0.3"/>
<path d="M17.4466 8.84907L18.0085 8.82569L17.3852 7.37392L16.9637 7.39145L17.4466 8.84907Z" fill="#FDC066" stroke="#FDF8F8" stroke-width="0.3"/>
<path d="M16.9638 7.39145L17.4555 7.37099L16.8136 6.41256L16.4312 6.42847L16.9638 7.39145Z" fill="#FDD366" stroke="#FDF8F8" stroke-width="0.3"/>
<path d="M16.5541 6.42334L16.9228 6.408L16.1854 4.96097L15.8781 4.97375L16.5541 6.42334Z" fill="#FDE566" stroke="#FDF8F8" stroke-width="0.3"/>
<path d="M16.0625 4.96609L16.3698 4.95331L14.2598 1.59311L16.0625 4.96609Z" fill="#FDF766" stroke="#FDF8F8" stroke-width="0.3"/>
<path d="M25.9867 22.7782L27.4498 22.6542L26.2627 20.3039L24.8916 20.361L25.9867 22.7782Z" fill="#FD6666" stroke="#FDF8F8" stroke-width="0.3"/>
<path d="M24.8169 20.3641L26.3669 20.2996L25.1831 18.8712L23.8469 18.9267L24.8169 20.3641Z" fill="#FD6666" stroke="#FDF8F8" stroke-width="0.3"/>
<path d="M23.5695 18.9383L24.8303 18.8858L23.9621 17.4442L22.8021 17.4925L23.5695 18.9383Z" fill="#FD6666" stroke="#FDF8F8" stroke-width="0.3"/>
<path d="M22.8273 17.4914L24.2772 17.4311L23.0607 15.5115L21.7368 15.5665L22.8273 17.4914Z" fill="#FD7866" stroke="#FDF8F8" stroke-width="0.3"/>
<path d="M21.9972 15.5557L23.2121 15.5052L22.283 14.0661L21.1838 14.1118L21.9972 15.5557Z" fill="#FD8A66" stroke="#FDF8F8" stroke-width="0.3"/>
<path d="M21.2631 14.1085L22.1672 14.0709L21.4601 13.1152L20.6511 13.1488L21.2631 14.1085Z" fill="#FD9366" stroke="#FDF8F8" stroke-width="0.3"/>
<path d="M20.5561 13.1528L21.6347 13.108L20.5582 11.675L19.6064 11.7146L20.5561 13.1528Z" fill="#FD9C66" stroke="#FDF8F8" stroke-width="0.3"/>
<path d="M19.8523 11.7044L20.5898 11.6737L19.6856 10.2336L19.0533 10.2599L19.8523 11.7044Z" fill="#FD9C66" stroke="#FDF8F8" stroke-width="0.3"/>
<path d="M18.8642 10.2678L19.545 10.2395L18.5759 8.80209L18.0085 8.82568L18.8642 10.2678Z" fill="#FDAE66" stroke="#FDF8F8" stroke-width="0.3"/>
<path d="M18.0532 8.82384L18.5002 8.80524L17.8578 7.35427L17.4554 7.371L18.0532 8.82384Z" fill="#FDC066" stroke="#FDF8F8" stroke-width="0.3"/>
<path d="M17.5046 7.36892L17.9472 7.35052L17.3162 6.39163L16.9229 6.40799L17.5046 7.36892Z" fill="#FDD366" stroke="#FDF8F8" stroke-width="0.3"/>
<path d="M17.0005 6.40477L17.4145 6.38755L16.6803 4.94039L16.3698 4.95331L17.0005 6.40477Z" fill="#FDE566" stroke="#FDF8F8" stroke-width="0.3"/>
<path d="M16.0592 4.96623L16.3698 4.95331L14.2598 1.59311L16.0592 4.96623Z" fill="#FDF766" stroke="#FDF8F8" stroke-width="0.3"/>
<defs>
<linearGradient id="paint0_linear" x1="5.29262" y1="11.3424" x2="12.3299" y2="3.24768" gradientUnits="userSpaceOnUse">
<stop stop-color="#FD9C66"/>
<stop offset="1" stop-color="#FDF766"/>
</linearGradient>
<linearGradient id="paint1_linear" x1="26.4823" y1="10.9052" x2="17.4975" y2="1.30912" gradientUnits="userSpaceOnUse">
<stop stop-color="#FD9C66"/>
<stop offset="1" stop-color="#FDF766"/>
</linearGradient>
<linearGradient id="paint2_linear" x1="17.6083" y1="29.0794" x2="16.8515" y2="23.7571" gradientUnits="userSpaceOnUse">
<stop stop-color="#FD6666"/>
<stop offset="1" stop-color="#FD9C66"/>
</linearGradient>
</defs>
</svg>
