<svg width="420" height="420" viewBox="0 0 420 420" fill="none" xmlns="http://www.w3.org/2000/svg">
<g clip-path="url(#clip0)">
<rect width="420" height="420" fill="#FFFCFC"/>
<path d="M400.56 26.48H403.71L406.62 31.37V34.04L387 34.04V31.13L403.41 31.13L400.56 26.48ZM406.62 36.6153V49.5453H404.07L387 41.5653V38.4153L404.07 46.4253V36.6153H406.62ZM399.93 55.8448L391.56 55.8448C390.1 55.8448 389.37 56.5448 389.37 57.9448C389.37 58.7648 389.59 59.4548 390.03 60.0148H387.39C387.03 59.3548 386.85 58.5448 386.85 57.5848C386.85 54.4448 388.44 52.8748 391.62 52.8748L399.93 52.8748V50.5048H402.21V52.8748H405.93V55.8448H402.21V59.8348L399.93 59.8348V55.8448ZM408.21 66.1955H399.6C401.48 67.0555 402.42 68.6255 402.42 70.9055C402.42 72.3855 401.96 73.5755 401.04 74.4755C400.12 75.3755 398.84 75.8255 397.2 75.8255H387V72.8855H396.6C397.64 72.8855 398.44 72.6155 399 72.0755C399.58 71.5555 399.87 70.8655 399.87 70.0055C399.87 69.0055 399.49 68.1155 398.73 67.3355C397.97 66.5755 396.81 66.1955 395.25 66.1955H387V63.2555L408.21 63.2555V66.1955ZM387.63 85.9918H390.48C389.98 86.8118 389.73 87.6318 389.73 88.4518C389.73 90.0918 390.6 90.9118 392.34 90.9118H407.22V94.0018H392.46C390.6 94.0018 389.22 93.5418 388.32 92.6218C387.44 91.7218 387 90.5018 387 88.9618C387 87.7218 387.21 86.7318 387.63 85.9918ZM402.21 107.657V110.597H387V107.657H389.61C387.75 106.857 386.82 105.277 386.82 102.917C386.82 101.417 387.26 100.227 388.14 99.3467C389.04 98.4667 390.27 98.0267 391.83 98.0267H402.21V100.997H392.55C391.51 100.997 390.71 101.247 390.15 101.747C389.61 102.267 389.34 102.977 389.34 103.877C389.34 105.017 389.74 105.927 390.54 106.607C391.34 107.307 392.47 107.657 393.93 107.657H402.21ZM387 114.85H408.21V117.82H387V114.85ZM387.33 126.284L402.21 120.224V123.494L397.26 125.384L390.84 127.754C391.44 127.934 393.58 128.654 397.26 129.914L402.21 131.624V134.744L387.42 129.254C383.52 127.794 381.57 125.564 381.57 122.564C381.57 122.024 381.62 121.564 381.72 121.184L384.24 121.184C384.16 121.504 384.12 121.844 384.12 122.204C384.12 124.144 385.19 125.504 387.33 126.284ZM389.55 147.644V156.164H387V143.594H389.43C391.27 146.114 393.17 148.234 395.13 149.954C397.11 151.694 398.91 152.564 400.53 152.564C401.67 152.564 402.54 152.234 403.14 151.574C403.76 150.914 404.07 150.004 404.07 148.844C404.07 147.244 403.47 145.674 402.27 144.134H405.18C406.28 145.574 406.83 147.284 406.83 149.264C406.83 151.104 406.31 152.624 405.27 153.824C404.25 155.024 402.79 155.624 400.89 155.624C397.37 155.624 393.59 152.964 389.55 147.644ZM396.87 158.626C399.95 158.626 402.39 159.236 404.19 160.456C406.01 161.696 406.92 163.386 406.92 165.526C406.92 167.706 406.02 169.416 404.22 170.656C402.42 171.896 399.97 172.516 396.87 172.516C393.81 172.516 391.36 171.906 389.52 170.686C387.68 169.486 386.76 167.766 386.76 165.526C386.76 163.386 387.68 161.696 389.52 160.456C391.36 159.236 393.81 158.626 396.87 158.626ZM402.27 162.736C401.01 161.996 399.21 161.626 396.87 161.626C394.53 161.626 392.71 161.986 391.41 162.706C390.13 163.446 389.49 164.386 389.49 165.526C389.49 166.766 390.13 167.736 391.41 168.436C392.69 169.136 394.51 169.486 396.87 169.486C399.25 169.486 401.06 169.116 402.3 168.376C403.56 167.656 404.19 166.706 404.19 165.526C404.19 164.406 403.55 163.476 402.27 162.736ZM389.55 178.874V187.394H387L387 174.824H389.43C391.27 177.344 393.17 179.464 395.13 181.184C397.11 182.924 398.91 183.794 400.53 183.794C401.67 183.794 402.54 183.464 403.14 182.804C403.76 182.144 404.07 181.234 404.07 180.074C404.07 178.474 403.47 176.904 402.27 175.364H405.18C406.28 176.804 406.83 178.514 406.83 180.494C406.83 182.334 406.31 183.854 405.27 185.054C404.25 186.254 402.79 186.854 400.89 186.854C397.37 186.854 393.59 184.194 389.55 178.874ZM400.56 189.107H403.71L406.62 193.997V196.667H387V193.757H403.41L400.56 189.107Z" fill="#120A08"/>
<path d="M19.28 55.27H27.56V58H16.19V37.78H19.28V55.27ZM33.6941 55.42H42.2741V58H30.6041V37.78H42.1241V40.36H33.6941V46.6H41.1641V49.18H33.6941V55.42ZM58.1642 37.78V40.36H52.8542V58H49.7642V40.36H44.4842V37.78H58.1642ZM59.3342 44.2L61.9742 37.15H65.4842L61.7342 44.2H59.3342ZM78.1159 38.59V41.65C76.7759 40.81 75.2559 40.39 73.5559 40.39C72.4559 40.39 71.5859 40.64 70.9459 41.14C70.3259 41.62 70.0159 42.26 70.0159 43.06C70.0159 43.86 70.3259 44.5 70.9459 44.98C71.5659 45.46 72.5159 45.98 73.7959 46.54C74.6359 46.9 75.2859 47.21 75.7459 47.47C76.2259 47.73 76.7659 48.1 77.3659 48.58C77.9859 49.04 78.4359 49.6 78.7159 50.26C79.0159 50.9 79.1659 51.64 79.1659 52.48C79.1659 54.26 78.5359 55.66 77.2759 56.68C76.0159 57.7 74.3859 58.21 72.3859 58.21C70.1659 58.21 68.3259 57.78 66.8659 56.92V53.71C68.4459 54.89 70.2759 55.48 72.3559 55.48C73.4559 55.48 74.3259 55.23 74.9659 54.73C75.6059 54.21 75.9259 53.5 75.9259 52.6C75.9259 52.06 75.7359 51.57 75.3559 51.13C74.9759 50.67 74.5659 50.33 74.1259 50.11C73.6859 49.87 73.0259 49.55 72.1459 49.15C71.6259 48.91 71.2559 48.74 71.0359 48.64C70.8359 48.54 70.4959 48.36 70.0159 48.1C69.5359 47.84 69.1759 47.62 68.9359 47.44C68.7159 47.26 68.4359 47.01 68.0959 46.69C67.7559 46.37 67.5059 46.05 67.3459 45.73C67.2059 45.41 67.0659 45.04 66.9259 44.62C66.8059 44.18 66.7459 43.71 66.7459 43.21C66.7459 41.49 67.3659 40.13 68.6059 39.13C69.8659 38.13 71.4859 37.63 73.4659 37.63C75.2859 37.63 76.8359 37.95 78.1159 38.59ZM104.833 38.62V41.65C103.953 41.17 103.153 40.84 102.433 40.66C101.733 40.46 100.833 40.36 99.7332 40.36C97.7132 40.36 96.0232 41.05 94.6632 42.43C93.3232 43.79 92.6532 45.6 92.6532 47.86C92.6532 50.16 93.3232 51.99 94.6632 53.35C96.0032 54.71 97.7732 55.39 99.9732 55.39C101.913 55.39 103.543 54.89 104.863 53.89V57.01C103.623 57.83 101.903 58.24 99.7032 58.24C96.6832 58.24 94.2132 57.3 92.2932 55.42C90.3732 53.54 89.4132 51.02 89.4132 47.86C89.4132 44.8 90.3732 42.31 92.2932 40.39C94.2332 38.47 96.6832 37.51 99.6432 37.51C101.803 37.51 103.533 37.88 104.833 38.62ZM111.477 55.42H120.057V58H108.387V37.78H119.907V40.36H111.477V46.6H118.947V49.18H111.477V55.42ZM126.887 55.27H135.167V58H123.797V37.78H126.887V55.27ZM141.301 55.42H149.881V58H138.211V37.78H149.731V40.36H141.301V46.6H148.771V49.18H141.301V55.42ZM156.712 55.45H160.672C163.212 55.45 164.482 54.4 164.482 52.3C164.482 51.28 164.132 50.49 163.432 49.93C162.752 49.35 161.732 49.06 160.372 49.06H156.712V55.45ZM156.712 40.33V46.54H159.502C161.002 46.54 162.112 46.24 162.832 45.64C163.572 45.02 163.942 44.22 163.942 43.24C163.942 42.38 163.612 41.68 162.952 41.14C162.312 40.6 161.332 40.33 160.012 40.33H156.712ZM153.622 37.78H160.252C162.372 37.78 164.042 38.28 165.262 39.28C166.482 40.26 167.092 41.56 167.092 43.18C167.092 44.3 166.772 45.28 166.132 46.12C165.512 46.96 164.712 47.5 163.732 47.74C164.832 47.94 165.752 48.45 166.492 49.27C167.252 50.09 167.632 51.19 167.632 52.57C167.632 54.17 167.082 55.48 165.982 56.5C164.902 57.5 163.372 58 161.392 58H153.622V37.78ZM174.143 40.36V47.74H176.933C178.213 47.74 179.183 47.41 179.843 46.75C180.503 46.07 180.833 45.17 180.833 44.05C180.833 41.59 179.483 40.36 176.783 40.36H174.143ZM181.553 58L176.813 50.32H174.143V58H171.053V37.78H176.693C179.013 37.78 180.803 38.35 182.063 39.49C183.323 40.61 183.953 42.14 183.953 44.08C183.933 45.5 183.573 46.71 182.873 47.71C182.173 48.69 181.203 49.4 179.963 49.84L185.243 58H181.553ZM192.574 50.47H199.054L198.724 49.45C197.964 47.09 197.344 45.14 196.864 43.6C196.384 42.04 196.094 41.07 195.994 40.69L195.844 40.12C195.624 41.06 194.644 44.17 192.904 49.45L192.574 50.47ZM201.484 58L199.894 53.05H191.734L190.114 58H186.844L193.834 37.78H197.884L204.784 58H201.484ZM220.059 37.78V40.36H214.749V58H211.659V40.36H206.379V37.78H220.059ZM225.999 55.42H234.579V58H222.909V37.78H234.429V40.36H225.999V46.6H233.469V49.18H225.999V55.42Z" fill="#120A08"/>
<path d="M369.44 26.768C371.136 26.768 372.485 27.2 373.488 28.064C374.491 28.9387 374.992 30.1173 374.992 31.6C374.992 33.1147 374.491 34.2987 373.488 35.152C372.496 36.016 371.147 36.448 369.44 36.448C367.744 36.448 366.389 36.0107 365.376 35.136C364.373 34.272 363.872 33.0987 363.872 31.616C363.872 30.1547 364.379 28.9813 365.392 28.096C366.405 27.2107 367.755 26.768 369.44 26.768ZM369.44 28.128C368.107 28.128 367.051 28.4427 366.272 29.072C365.493 29.712 365.104 30.56 365.104 31.616C365.104 32.7147 365.488 33.5627 366.256 34.16C367.024 34.768 368.085 35.072 369.44 35.072C370.795 35.072 371.856 34.768 372.624 34.16C373.392 33.552 373.776 32.6987 373.776 31.6C373.776 30.512 373.387 29.6587 372.608 29.04C371.84 28.432 370.784 28.128 369.44 28.128ZM364 38.4351H375.312V39.6991H364V38.4351ZM364 42.1695H372.112V43.4335H364V42.1695ZM374.064 42.2015C374.224 42.0522 374.421 41.9775 374.656 41.9775C374.891 41.9775 375.088 42.0522 375.248 42.2015C375.408 42.3615 375.488 42.5588 375.488 42.7935C375.488 43.0282 375.408 43.2255 375.248 43.3855C375.088 43.5455 374.891 43.6255 374.656 43.6255C374.421 43.6255 374.224 43.5455 374.064 43.3855C373.915 43.2255 373.84 43.0282 373.84 42.7935C373.84 42.5588 373.915 42.3615 374.064 42.2015ZM364 47.9039L372.112 45.0719V46.3839L368.688 47.5039L364.992 48.6879C365.451 48.7839 366.683 49.1839 368.688 49.8879L372.112 51.0399V52.3519L364 49.4559V47.9039ZM364 53.982H372.112V55.246H364V53.982ZM374.064 54.014C374.224 53.8647 374.421 53.79 374.656 53.79C374.891 53.79 375.088 53.8647 375.248 54.014C375.408 54.174 375.488 54.3713 375.488 54.606C375.488 54.8407 375.408 55.038 375.248 55.198C375.088 55.358 374.891 55.438 374.656 55.438C374.421 55.438 374.224 55.358 374.064 55.198C373.915 55.038 373.84 54.8407 373.84 54.606C373.84 54.3713 373.915 54.174 374.064 54.014ZM367.744 62.0204V60.6124C367.744 59.9297 367.611 59.4177 367.344 59.0764C367.077 58.735 366.741 58.5644 366.336 58.5644C365.931 58.5644 365.6 58.6977 365.344 58.9644C365.099 59.231 364.976 59.6204 364.976 60.1324C364.976 60.7084 365.136 61.167 365.456 61.5084C365.787 61.8497 366.203 62.0204 366.704 62.0204H367.744ZM370.416 57.8284H371.68C372.053 58.4364 372.24 59.2364 372.24 60.2284C372.24 62.2657 371.205 63.2844 369.136 63.2844H364V62.0364H364.96C364.267 61.6204 363.92 60.863 363.92 59.7644C363.92 59.007 364.144 58.3937 364.592 57.9244C365.04 57.4657 365.605 57.2364 366.288 57.2364C367.067 57.2364 367.669 57.5297 368.096 58.1164C368.533 58.7137 368.752 59.5244 368.752 60.5484V62.0204H369.168C369.808 62.0204 370.288 61.8764 370.608 61.5884C370.939 61.3004 371.104 60.815 371.104 60.1324C371.104 59.2684 370.875 58.5004 370.416 57.8284ZM365.04 73.3056C365.04 74.3083 365.307 75.1403 365.84 75.8016C366.192 75.4283 366.597 74.991 367.056 74.4896C367.525 73.9883 367.904 73.5776 368.192 73.2576C368.48 72.9483 368.677 72.7403 368.784 72.6336C368.528 71.951 368.245 71.4443 367.936 71.1136C367.627 70.783 367.259 70.6176 366.832 70.6176C366.288 70.6176 365.851 70.8683 365.52 71.3696C365.2 71.871 365.04 72.5163 365.04 73.3056ZM373.888 73.3536C373.888 72.8736 373.749 72.4736 373.472 72.1536C373.205 71.8443 372.832 71.6896 372.352 71.6896C372.011 71.6896 371.669 71.7856 371.328 71.9776C370.997 72.1803 370.571 72.5376 370.048 73.0496C370.379 73.7643 370.715 74.2816 371.056 74.6016C371.408 74.9323 371.808 75.0976 372.256 75.0976C372.715 75.0976 373.099 74.9483 373.408 74.6496C373.728 74.351 373.888 73.919 373.888 73.3536ZM364 79.4816V77.7696L365.008 76.6816C364.251 75.8176 363.872 74.703 363.872 73.3376C363.872 72.1323 364.144 71.1563 364.688 70.4096C365.243 69.6736 365.952 69.3056 366.816 69.3056C368.021 69.3056 368.944 70.1483 369.584 71.8336C370.128 71.3323 370.608 70.9643 371.024 70.7296C371.451 70.495 371.899 70.3776 372.368 70.3776C373.168 70.3776 373.813 70.6496 374.304 71.1936C374.795 71.7376 375.04 72.463 375.04 73.3696C375.04 74.2763 374.773 75.007 374.24 75.5616C373.717 76.1163 373.061 76.3936 372.272 76.3936C371.664 76.3936 371.115 76.1963 370.624 75.8016C370.133 75.4176 369.675 74.767 369.248 73.8496L366.72 76.5536C367.189 76.8096 367.712 76.959 368.288 77.0016V78.2176C367.371 78.1536 366.571 77.8976 365.888 77.4496L364 79.4816ZM367.936 86.7019V90.5259L368.56 90.3179L373.744 88.6379C373.285 88.5099 371.552 87.9339 368.544 86.9099L367.936 86.7019ZM364 91.8379L366.832 90.8939V86.3339L364 85.3739V83.9819L374.784 87.7419V89.5339L364 93.2299V91.8379ZM372.112 96.2129H370.688C371.691 96.6395 372.192 97.3755 372.192 98.4209C372.192 98.6129 372.181 98.7622 372.16 98.8689H370.912C370.987 98.6449 371.024 98.4155 371.024 98.1809C371.024 97.6155 370.763 97.1462 370.24 96.7729C369.717 96.3995 369.115 96.2129 368.432 96.2129H364V94.9489L372.112 94.9649V96.2129ZM367.744 104.552V103.144C367.744 102.461 367.611 101.949 367.344 101.608C367.077 101.266 366.741 101.096 366.336 101.096C365.931 101.096 365.6 101.229 365.344 101.496C365.099 101.762 364.976 102.152 364.976 102.664C364.976 103.24 365.136 103.698 365.456 104.04C365.787 104.381 366.203 104.552 366.704 104.552H367.744ZM370.416 100.36H371.68C372.053 100.968 372.24 101.768 372.24 102.76C372.24 104.797 371.205 105.816 369.136 105.816H364V104.568H364.96C364.267 104.152 363.92 103.394 363.92 102.296C363.92 101.538 364.144 100.925 364.592 100.456C365.04 99.997 365.605 99.7676 366.288 99.7676C367.067 99.7676 367.669 100.061 368.096 100.648C368.533 101.245 368.752 102.056 368.752 103.08V104.552H369.168C369.808 104.552 370.288 104.408 370.608 104.12C370.939 103.832 371.104 103.346 371.104 102.664C371.104 101.8 370.875 101.032 370.416 100.36ZM364 110.123L372.112 107.291V108.603L368.688 109.723L364.992 110.907C365.451 111.003 366.683 111.403 368.688 112.107L372.112 113.259V114.571L364 111.675V110.123ZM371.536 115.161L375.12 116.505V118.073L371.536 116.153V115.161ZM371.84 123.443H370.64C370.939 122.953 371.088 122.281 371.088 121.427C371.088 121.001 370.987 120.659 370.784 120.403C370.592 120.158 370.341 120.035 370.032 120.035C369.84 120.035 369.669 120.073 369.52 120.147C369.381 120.222 369.243 120.366 369.104 120.579C368.965 120.803 368.869 120.963 368.816 121.059C368.773 121.166 368.677 121.39 368.528 121.731C368.251 122.414 367.936 122.947 367.584 123.331C367.232 123.715 366.757 123.907 366.16 123.907C365.467 123.907 364.917 123.662 364.512 123.171C364.107 122.691 363.904 122.03 363.904 121.187C363.904 120.206 364.069 119.411 364.4 118.803H365.632C365.205 119.518 364.992 120.286 364.992 121.107C364.992 121.598 365.088 121.971 365.28 122.227C365.472 122.483 365.733 122.611 366.064 122.611C366.448 122.611 366.747 122.467 366.96 122.179C367.173 121.902 367.413 121.433 367.68 120.771C367.915 120.163 368.208 119.673 368.56 119.299C368.912 118.937 369.387 118.755 369.984 118.755C370.656 118.755 371.189 119.006 371.584 119.507C371.989 120.019 372.192 120.654 372.192 121.411C372.192 122.254 372.075 122.931 371.84 123.443ZM374.624 135.271V136.567L370.784 137.751L365.312 139.383C367.669 139.874 369.488 140.269 370.768 140.567L374.784 141.479V142.791L364 140.263V138.599L367.408 137.559L372.8 135.943C371.541 135.613 369.744 135.101 367.408 134.407L364 133.399V131.751L374.784 128.935V130.295L370.784 131.303L365.36 132.631C367.547 133.229 369.355 133.735 370.784 134.151L374.624 135.271ZM368.576 149.711H368.896C369.568 149.711 370.101 149.53 370.496 149.167C370.901 148.804 371.104 148.303 371.104 147.663C371.104 147.055 370.885 146.538 370.448 146.111C370.011 145.684 369.387 145.434 368.576 145.359V149.711ZM365.6 150.463H364.416C364.085 149.834 363.92 149.066 363.92 148.159C363.92 146.932 364.293 145.94 365.04 145.183C365.797 144.436 366.795 144.063 368.032 144.063C369.323 144.063 370.341 144.399 371.088 145.071C371.835 145.743 372.208 146.607 372.208 147.663C372.208 148.676 371.883 149.482 371.232 150.079C370.581 150.676 369.659 150.975 368.464 150.975C368.123 150.975 367.808 150.948 367.52 150.895V145.359C366.72 145.455 366.107 145.759 365.68 146.271C365.253 146.783 365.04 147.455 365.04 148.287C365.04 149.194 365.227 149.919 365.6 150.463ZM365.024 155.99C365.024 156.652 365.269 157.212 365.76 157.67C366.251 158.14 367.035 158.374 368.112 158.374C369.136 158.374 369.888 158.134 370.368 157.654C370.848 157.174 371.088 156.646 371.088 156.07C371.088 155.398 370.816 154.838 370.272 154.39C369.739 153.953 368.971 153.734 367.968 153.734C367.093 153.734 366.384 153.948 365.84 154.374C365.296 154.801 365.024 155.34 365.024 155.99ZM375.312 158.374V159.638H364V158.374H365.2C364.315 157.798 363.872 156.966 363.872 155.878C363.872 154.801 364.272 153.953 365.072 153.334C365.872 152.726 366.843 152.422 367.984 152.422C369.253 152.422 370.277 152.748 371.056 153.398C371.845 154.049 372.24 154.886 372.24 155.91C372.24 156.966 371.787 157.788 370.88 158.374H375.312ZM365.024 165.069C365.024 165.73 365.269 166.29 365.76 166.749C366.251 167.218 367.035 167.453 368.112 167.453C369.136 167.453 369.888 167.213 370.368 166.733C370.848 166.253 371.088 165.725 371.088 165.149C371.088 164.477 370.816 163.917 370.272 163.469C369.739 163.031 368.971 162.812 367.968 162.812C367.093 162.812 366.384 163.026 365.84 163.453C365.296 163.879 365.024 164.418 365.024 165.069ZM375.312 167.453V168.717H364V167.453H365.2C364.315 166.877 363.872 166.045 363.872 164.957C363.872 163.879 364.272 163.031 365.072 162.413C365.872 161.805 366.843 161.501 367.984 161.501C369.253 161.501 370.277 161.826 371.056 162.477C371.845 163.127 372.24 163.965 372.24 164.989C372.24 166.045 371.787 166.866 370.88 167.453H375.312ZM364 171.123H372.112V172.387H364V171.123ZM374.064 171.155C374.224 171.005 374.421 170.931 374.656 170.931C374.891 170.931 375.088 171.005 375.248 171.155C375.408 171.315 375.488 171.512 375.488 171.747C375.488 171.981 375.408 172.179 375.248 172.339C375.088 172.499 374.891 172.579 374.656 172.579C374.421 172.579 374.224 172.499 374.064 172.339C373.915 172.179 373.84 171.981 373.84 171.747C373.84 171.512 373.915 171.315 374.064 171.155ZM372.112 176.041H370.704C371.717 176.521 372.224 177.374 372.224 178.601C372.224 179.39 371.984 180.02 371.504 180.489C371.024 180.958 370.384 181.193 369.584 181.193H364V179.929H369.248C369.845 179.929 370.299 179.774 370.608 179.465C370.928 179.166 371.088 178.772 371.088 178.281C371.088 177.673 370.853 177.145 370.384 176.697C369.915 176.26 369.264 176.041 368.432 176.041H364V174.793H372.112V176.041ZM365.328 186.474C365.328 187.06 365.552 187.578 366 188.026C366.459 188.484 367.136 188.714 368.032 188.714C369.067 188.714 369.835 188.495 370.336 188.058C370.837 187.62 371.088 187.114 371.088 186.538C371.088 185.844 370.811 185.295 370.256 184.89C369.712 184.484 368.997 184.282 368.112 184.282C367.205 184.282 366.512 184.506 366.032 184.954C365.563 185.402 365.328 185.908 365.328 186.474ZM372.112 188.714V189.978H364.656C363.419 189.978 362.491 189.636 361.872 188.954C361.243 188.271 360.928 187.391 360.928 186.314C360.928 185.332 361.093 184.495 361.424 183.802H362.688C362.293 184.484 362.096 185.284 362.096 186.202C362.096 186.98 362.304 187.594 362.72 188.042C363.136 188.49 363.787 188.714 364.672 188.714H365.584C364.667 188.18 364.208 187.386 364.208 186.33C364.208 185.402 364.549 184.607 365.232 183.946C365.915 183.295 366.864 182.97 368.08 182.97C369.285 182.97 370.277 183.274 371.056 183.882C371.835 184.49 372.224 185.284 372.224 186.266C372.224 187.375 371.739 188.191 370.768 188.714H372.112Z" fill="#120A08"/>
<path d="M26.216 389.027H27.352V391.939H37V393.235H27.352V396.147H26.216V389.027ZM25.688 386.301H30.296C29.2827 385.821 28.776 384.967 28.776 383.741C28.776 382.962 29.016 382.338 29.496 381.869C29.976 381.389 30.6267 381.149 31.448 381.149H37V382.413H31.752C31.1653 382.413 30.712 382.567 30.392 382.877C30.072 383.175 29.912 383.57 29.912 384.061C29.912 384.658 30.1413 385.181 30.6 385.629C31.0587 386.077 31.7147 386.301 32.568 386.301H37V387.549H25.688V386.301ZM32.424 373.74H32.104C31.432 373.74 30.8987 373.921 30.504 374.284C30.0987 374.647 29.896 375.148 29.896 375.788C29.896 376.396 30.1147 376.913 30.552 377.34C30.9893 377.767 31.6133 378.017 32.424 378.092V373.74ZM35.4 372.988H36.584C36.9147 373.617 37.08 374.385 37.08 375.292C37.08 376.519 36.7067 377.511 35.96 378.268C35.2027 379.015 34.2053 379.388 32.968 379.388C31.6773 379.388 30.6587 379.052 29.912 378.38C29.1653 377.708 28.792 376.844 28.792 375.788C28.792 374.775 29.1173 373.969 29.768 373.372C30.4187 372.775 31.3413 372.476 32.536 372.476C32.8773 372.476 33.192 372.503 33.48 372.556V378.092C34.28 377.996 34.8933 377.692 35.32 377.18C35.7467 376.668 35.96 375.996 35.96 375.164C35.96 374.257 35.7733 373.532 35.4 372.988ZM37 366.69L26.216 365.906V364.258L30.152 362.834L35.176 361.106C33.4267 360.488 31.752 359.88 30.152 359.282L26.216 357.794V356.146L37 355.202V356.498L32.744 356.866L27.96 357.25C29.5387 357.816 31.1333 358.397 32.744 358.994L36.76 360.498V361.73L32.744 363.154L28.056 364.786C28.472 364.786 30.0347 364.888 32.744 365.09L37 365.394V366.69ZM33.256 348.556V349.964C33.256 350.646 33.3893 351.158 33.656 351.5C33.9227 351.841 34.2587 352.012 34.664 352.012C35.0693 352.012 35.4 351.878 35.656 351.612C35.9013 351.345 36.024 350.956 36.024 350.444C36.024 349.868 35.864 349.409 35.544 349.068C35.2133 348.726 34.7973 348.556 34.296 348.556H33.256ZM30.584 352.748H29.32C28.9467 352.14 28.76 351.34 28.76 350.348C28.76 348.31 29.7947 347.292 31.864 347.292H37V348.54H36.04C36.7333 348.956 37.08 349.713 37.08 350.812C37.08 351.569 36.856 352.182 36.408 352.652C35.96 353.11 35.3947 353.34 34.712 353.34C33.9333 353.34 33.3307 353.046 32.904 352.46C32.4667 351.862 32.248 351.052 32.248 350.028V348.556H31.832C31.192 348.556 30.712 348.7 30.392 348.988C30.0613 349.276 29.896 349.761 29.896 350.444C29.896 351.308 30.1253 352.076 30.584 352.748ZM29.16 340.633H30.36C30.0613 341.123 29.912 341.795 29.912 342.649C29.912 343.075 30.0133 343.417 30.216 343.673C30.408 343.918 30.6587 344.041 30.968 344.041C31.16 344.041 31.3307 344.003 31.48 343.929C31.6187 343.854 31.7573 343.71 31.896 343.497C32.0347 343.273 32.1307 343.113 32.184 343.017C32.2267 342.91 32.3227 342.686 32.472 342.345C32.7493 341.662 33.064 341.129 33.416 340.745C33.768 340.361 34.2427 340.169 34.84 340.169C35.5333 340.169 36.0827 340.414 36.488 340.905C36.8933 341.385 37.096 342.046 37.096 342.889C37.096 343.87 36.9307 344.665 36.6 345.273H35.368C35.7947 344.558 36.008 343.79 36.008 342.969C36.008 342.478 35.912 342.105 35.72 341.849C35.528 341.593 35.2667 341.465 34.936 341.465C34.552 341.465 34.2533 341.609 34.04 341.897C33.8267 342.174 33.5867 342.643 33.32 343.305C33.0853 343.913 32.792 344.403 32.44 344.777C32.088 345.139 31.6133 345.321 31.016 345.321C30.344 345.321 29.8107 345.07 29.416 344.569C29.0107 344.057 28.808 343.422 28.808 342.665C28.808 341.822 28.9253 341.145 29.16 340.633ZM29.912 336.711H34.664C35.528 336.711 35.96 336.305 35.96 335.495C35.96 335.079 35.8373 334.711 35.592 334.391H36.792C36.984 334.743 37.08 335.137 37.08 335.575C37.08 337.175 36.264 337.975 34.632 337.975H29.912V339.271H28.888V337.975H26.872V336.711H28.888V334.471H29.912V336.711ZM32.424 327.381H32.104C31.432 327.381 30.8987 327.562 30.504 327.925C30.0987 328.287 29.896 328.789 29.896 329.429C29.896 330.037 30.1147 330.554 30.552 330.981C30.9893 331.407 31.6133 331.658 32.424 331.733V327.381ZM35.4 326.629H36.584C36.9147 327.258 37.08 328.026 37.08 328.933C37.08 330.159 36.7067 331.151 35.96 331.909C35.2027 332.655 34.2053 333.029 32.968 333.029C31.6773 333.029 30.6587 332.693 29.912 332.021C29.1653 331.349 28.792 330.485 28.792 329.429C28.792 328.415 29.1173 327.61 29.768 327.013C30.4187 326.415 31.3413 326.117 32.536 326.117C32.8773 326.117 33.192 326.143 33.48 326.197V331.733C34.28 331.637 34.8933 331.333 35.32 330.821C35.7467 330.309 35.96 329.637 35.96 328.805C35.96 327.898 35.7733 327.173 35.4 326.629ZM28.888 322.941H30.312C29.3093 322.515 28.808 321.779 28.808 320.733C28.808 320.541 28.8187 320.392 28.84 320.285H30.088C30.0133 320.509 29.976 320.739 29.976 320.973C29.976 321.539 30.2373 322.008 30.76 322.381C31.2827 322.755 31.8853 322.941 32.568 322.941H37V324.205L28.888 324.189V322.941ZM26.616 309.352H27.976C27.5493 310.003 27.336 310.782 27.336 311.688C27.336 312.339 27.4907 312.856 27.8 313.24C28.0987 313.624 28.4933 313.816 28.984 313.816C29.24 313.816 29.4693 313.768 29.672 313.672C29.8747 313.566 30.0667 313.384 30.248 313.128C30.4187 312.872 30.552 312.654 30.648 312.472C30.7333 312.291 30.8613 312.008 31.032 311.624C31.192 311.262 31.32 310.984 31.416 310.792C31.5013 310.6 31.6453 310.355 31.848 310.056C32.04 309.747 32.232 309.518 32.424 309.368C32.6053 309.208 32.8507 309.07 33.16 308.952C33.4587 308.824 33.784 308.76 34.136 308.76C35.0853 308.76 35.8213 309.086 36.344 309.736C36.856 310.387 37.112 311.224 37.112 312.248C37.112 313.379 36.8827 314.339 36.424 315.128H35.032C35.6187 314.35 35.912 313.4 35.912 312.28C35.912 311.608 35.7627 311.08 35.464 310.696C35.1653 310.312 34.7333 310.12 34.168 310.12C33.9333 310.12 33.7253 310.168 33.544 310.264C33.352 310.35 33.1813 310.499 33.032 310.712C32.872 310.915 32.744 311.112 32.648 311.304C32.5413 311.486 32.4133 311.736 32.264 312.056C32.232 312.12 32.1893 312.216 32.136 312.344C31.9333 312.803 31.768 313.155 31.64 313.4C31.512 313.635 31.3253 313.918 31.08 314.248C30.824 314.568 30.5307 314.803 30.2 314.952C29.8693 315.102 29.4853 315.176 29.048 315.176C28.1307 315.176 27.416 314.851 26.904 314.2C26.3813 313.539 26.12 312.712 26.12 311.72C26.12 310.792 26.2853 310.003 26.616 309.352ZM25.688 305.426H30.296C29.2827 304.946 28.776 304.092 28.776 302.866C28.776 302.087 29.016 301.463 29.496 300.994C29.976 300.514 30.6267 300.274 31.448 300.274H37V301.538H31.752C31.1653 301.538 30.712 301.692 30.392 302.002C30.072 302.3 29.912 302.695 29.912 303.186C29.912 303.783 30.1413 304.306 30.6 304.754C31.0587 305.202 31.7147 305.426 32.568 305.426H37V306.674H25.688V305.426ZM37 297.969H28.888V296.705H37V297.969ZM26.936 297.937C26.776 298.086 26.5787 298.161 26.344 298.161C26.1093 298.161 25.912 298.086 25.752 297.937C25.592 297.777 25.512 297.58 25.512 297.345C25.512 297.11 25.592 296.913 25.752 296.753C25.912 296.593 26.1093 296.513 26.344 296.513C26.5787 296.513 26.776 296.593 26.936 296.753C27.0853 296.913 27.16 297.11 27.16 297.345C27.16 297.58 27.0853 297.777 26.936 297.937ZM35.976 290.731C35.976 290.048 35.7093 289.488 35.176 289.051C34.632 288.613 33.864 288.395 32.872 288.395C31.9867 288.395 31.272 288.608 30.728 289.035C30.184 289.461 29.912 290 29.912 290.651C29.912 291.301 30.152 291.867 30.632 292.347C31.1013 292.816 31.8747 293.051 32.952 293.051C33.9867 293.051 34.7493 292.811 35.24 292.331C35.7307 291.851 35.976 291.317 35.976 290.731ZM28.888 293.051H30.12C29.2133 292.485 28.76 291.648 28.76 290.539C28.76 289.461 29.1547 288.619 29.944 288.011C30.7227 287.392 31.6987 287.083 32.872 287.083C34.12 287.083 35.144 287.408 35.944 288.059C36.7333 288.699 37.128 289.536 37.128 290.571C37.128 291.637 36.6747 292.464 35.768 293.051H40.152V294.299H28.888V293.051ZM37 283.492L28.888 285.988V284.644L31.576 283.86C32.5147 283.583 33.336 283.354 34.04 283.172C34.7333 282.98 35.1973 282.858 35.432 282.804L35.768 282.724C35.0853 282.564 33.6827 282.175 31.56 281.556L28.888 280.788V279.444L31.56 278.66L35.784 277.46C35.1547 277.311 33.7467 276.9 31.56 276.228L28.888 275.412V274.116L37 276.676V278.228L34.344 278.996L30.296 280.116C30.9787 280.276 32.328 280.639 34.344 281.204L37 281.94V283.492ZM28.888 271.301H30.312C29.3093 270.874 28.808 270.138 28.808 269.093C28.808 268.901 28.8187 268.751 28.84 268.645H30.088C30.0133 268.869 29.976 269.098 29.976 269.333C29.976 269.898 30.2373 270.367 30.76 270.741C31.2827 271.114 31.8853 271.301 32.568 271.301H37V272.565L28.888 272.549V271.301ZM37 267.266H28.888V266.002H37V267.266ZM26.936 267.234C26.776 267.383 26.5787 267.458 26.344 267.458C26.1093 267.458 25.912 267.383 25.752 267.234C25.592 267.074 25.512 266.876 25.512 266.642C25.512 266.407 25.592 266.21 25.752 266.05C25.912 265.89 26.1093 265.81 26.344 265.81C26.5787 265.81 26.776 265.89 26.936 266.05C27.0853 266.21 27.16 266.407 27.16 266.642C27.16 266.876 27.0853 267.074 26.936 267.234ZM35.672 260.555C35.672 259.969 35.448 259.451 35 259.003C34.5413 258.545 33.864 258.315 32.968 258.315C31.9333 258.315 31.1653 258.534 30.664 258.971C30.1627 259.409 29.912 259.915 29.912 260.491C29.912 261.185 30.1893 261.734 30.744 262.139C31.288 262.545 32.0027 262.747 32.888 262.747C33.7947 262.747 34.488 262.523 34.968 262.075C35.4373 261.627 35.672 261.121 35.672 260.555ZM28.888 258.315V257.051H36.344C37.5813 257.051 38.5093 257.393 39.128 258.075C39.7573 258.758 40.072 259.638 40.072 260.715C40.072 261.697 39.9067 262.534 39.576 263.227H38.312C38.7067 262.545 38.904 261.745 38.904 260.827C38.904 260.049 38.696 259.435 38.28 258.987C37.864 258.539 37.2133 258.315 36.328 258.315H35.416C36.3333 258.849 36.792 259.643 36.792 260.699C36.792 261.627 36.4507 262.422 35.768 263.083C35.0853 263.734 34.136 264.059 32.92 264.059C31.7147 264.059 30.7227 263.755 29.944 263.147C29.1653 262.539 28.776 261.745 28.776 260.763C28.776 259.654 29.2613 258.838 30.232 258.315H28.888ZM25.688 253.566H30.296C29.2827 253.086 28.776 252.233 28.776 251.006C28.776 250.228 29.016 249.604 29.496 249.134C29.976 248.654 30.6267 248.414 31.448 248.414H37V249.678H31.752C31.1653 249.678 30.712 249.833 30.392 250.142C30.072 250.441 29.912 250.836 29.912 251.326C29.912 251.924 30.1413 252.446 30.6 252.894C31.0587 253.342 31.7147 253.566 32.568 253.566H37V254.814H25.688V253.566ZM29.912 244.43H34.664C35.528 244.43 35.96 244.024 35.96 243.214C35.96 242.798 35.8373 242.43 35.592 242.11H36.792C36.984 242.462 37.08 242.856 37.08 243.294C37.08 244.894 36.264 245.694 34.632 245.694H29.912V246.99H28.888V245.694H26.872V244.43H28.888V242.19H29.912V244.43ZM29.16 235.851H30.36C30.0613 236.342 29.912 237.014 29.912 237.867C29.912 238.294 30.0133 238.635 30.216 238.891C30.408 239.137 30.6587 239.259 30.968 239.259C31.16 239.259 31.3307 239.222 31.48 239.147C31.6187 239.073 31.7573 238.929 31.896 238.715C32.0347 238.491 32.1307 238.331 32.184 238.235C32.2267 238.129 32.3227 237.905 32.472 237.563C32.7493 236.881 33.064 236.347 33.416 235.963C33.768 235.579 34.2427 235.387 34.84 235.387C35.5333 235.387 36.0827 235.633 36.488 236.123C36.8933 236.603 37.096 237.265 37.096 238.107C37.096 239.089 36.9307 239.883 36.6 240.491H35.368C35.7947 239.777 36.008 239.009 36.008 238.187C36.008 237.697 35.912 237.323 35.72 237.067C35.528 236.811 35.2667 236.683 34.936 236.683C34.552 236.683 34.2533 236.827 34.04 237.115C33.8267 237.393 33.5867 237.862 33.32 238.523C33.0853 239.131 32.792 239.622 32.44 239.995C32.088 240.358 31.6133 240.539 31.016 240.539C30.344 240.539 29.8107 240.289 29.416 239.787C29.0107 239.275 28.808 238.641 28.808 237.883C28.808 237.041 28.9253 236.363 29.16 235.851ZM26.216 223.175V221.879H37V223.175H32.12V228.407H37V229.703H26.216V228.407H30.952V223.175H26.216ZM37.144 216.19C37.144 217.353 36.7547 218.275 35.976 218.958C35.1867 219.63 34.1947 219.966 33 219.966C31.7947 219.966 30.792 219.619 29.992 218.926C29.1813 218.222 28.776 217.31 28.776 216.19C28.776 214.963 29.1707 214.019 29.96 213.358C30.7493 212.686 31.752 212.35 32.968 212.35C34.1733 212.35 35.1707 212.691 35.96 213.374C36.7493 214.057 37.144 214.995 37.144 216.19ZM29.896 216.19C29.896 216.958 30.1947 217.561 30.792 217.998C31.3893 218.435 32.12 218.654 32.984 218.654C33.8267 218.654 34.5467 218.43 35.144 217.982C35.7307 217.534 36.024 216.937 36.024 216.19C36.024 215.379 35.736 214.755 35.16 214.318C34.5733 213.881 33.848 213.662 32.984 213.662C32.088 213.662 31.352 213.87 30.776 214.286C30.1893 214.702 29.896 215.337 29.896 216.19ZM28.888 205.462V204.198H37V205.462H35.592C36.5947 205.888 37.096 206.736 37.096 208.006C37.096 208.806 36.8613 209.44 36.392 209.91C35.912 210.368 35.272 210.598 34.472 210.598H28.888V209.334H34.152C34.7387 209.334 35.1867 209.184 35.496 208.886C35.8053 208.587 35.96 208.182 35.96 207.67C35.96 206.998 35.7253 206.464 35.256 206.07C34.7867 205.664 34.152 205.462 33.352 205.462H28.888ZM29.16 197.445H30.36C30.0613 197.936 29.912 198.608 29.912 199.461C29.912 199.888 30.0133 200.229 30.216 200.485C30.408 200.73 30.6587 200.853 30.968 200.853C31.16 200.853 31.3307 200.816 31.48 200.741C31.6187 200.666 31.7573 200.522 31.896 200.309C32.0347 200.085 32.1307 199.925 32.184 199.829C32.2267 199.722 32.3227 199.498 32.472 199.157C32.7493 198.474 33.064 197.941 33.416 197.557C33.768 197.173 34.2427 196.981 34.84 196.981C35.5333 196.981 36.0827 197.226 36.488 197.717C36.8933 198.197 37.096 198.858 37.096 199.701C37.096 200.682 36.9307 201.477 36.6 202.085H35.368C35.7947 201.37 36.008 200.602 36.008 199.781C36.008 199.29 35.912 198.917 35.72 198.661C35.528 198.405 35.2667 198.277 34.936 198.277C34.552 198.277 34.2533 198.421 34.04 198.709C33.8267 198.986 33.5867 199.456 33.32 200.117C33.0853 200.725 32.792 201.216 32.44 201.589C32.088 201.952 31.6133 202.133 31.016 202.133C30.344 202.133 29.8107 201.882 29.416 201.381C29.0107 200.869 28.808 200.234 28.808 199.477C28.808 198.634 28.9253 197.957 29.16 197.445ZM32.424 190.099H32.104C31.432 190.099 30.8987 190.281 30.504 190.643C30.0987 191.006 29.896 191.507 29.896 192.147C29.896 192.755 30.1147 193.273 30.552 193.699C30.9893 194.126 31.6133 194.377 32.424 194.451V190.099ZM35.4 189.347H36.584C36.9147 189.977 37.08 190.745 37.08 191.651C37.08 192.878 36.7067 193.87 35.96 194.627C35.2027 195.374 34.2053 195.747 32.968 195.747C31.6773 195.747 30.6587 195.411 29.912 194.739C29.1653 194.067 28.792 193.203 28.792 192.147C28.792 191.134 29.1173 190.329 29.768 189.731C30.4187 189.134 31.3413 188.835 32.536 188.835C32.8773 188.835 33.192 188.862 33.48 188.915V194.451C34.28 194.355 34.8933 194.051 35.32 193.539C35.7467 193.027 35.96 192.355 35.96 191.523C35.96 190.617 35.7733 189.891 35.4 189.347ZM61.864 393.891V391.955C61.864 390.622 61.4533 389.614 60.632 388.931C59.8 388.249 58.7653 387.907 57.528 387.907C56.3547 387.907 55.368 388.291 54.568 389.059C53.768 389.817 53.368 390.803 53.368 392.019V393.891H61.864ZM52.216 395.203V392.003C52.216 390.414 52.712 389.113 53.704 388.099C54.6853 387.075 55.96 386.563 57.528 386.563C59.0853 386.563 60.3867 387.038 61.432 387.987C62.4773 388.926 63 390.243 63 391.939V395.203H52.216ZM58.424 379.521H58.104C57.432 379.521 56.8987 379.703 56.504 380.065C56.0987 380.428 55.896 380.929 55.896 381.569C55.896 382.177 56.1147 382.695 56.552 383.121C56.9893 383.548 57.6133 383.799 58.424 383.873V379.521ZM61.4 378.769H62.584C62.9147 379.399 63.08 380.167 63.08 381.073C63.08 382.3 62.7067 383.292 61.96 384.049C61.2027 384.796 60.2053 385.169 58.968 385.169C57.6773 385.169 56.6587 384.833 55.912 384.161C55.1653 383.489 54.792 382.625 54.792 381.569C54.792 380.556 55.1173 379.751 55.768 379.153C56.4187 378.556 57.3413 378.257 58.536 378.257C58.8773 378.257 59.192 378.284 59.48 378.337V383.873C60.28 383.777 60.8933 383.473 61.32 382.961C61.7467 382.449 61.96 381.777 61.96 380.945C61.96 380.039 61.7733 379.313 61.4 378.769ZM61.976 372.762C61.976 372.079 61.7093 371.519 61.176 371.082C60.632 370.644 59.864 370.426 58.872 370.426C57.9867 370.426 57.272 370.639 56.728 371.066C56.184 371.492 55.912 372.031 55.912 372.682C55.912 373.332 56.152 373.898 56.632 374.378C57.1013 374.847 57.8747 375.082 58.952 375.082C59.9867 375.082 60.7493 374.842 61.24 374.362C61.7307 373.882 61.976 373.348 61.976 372.762ZM54.888 375.082H56.12C55.2133 374.516 54.76 373.679 54.76 372.57C54.76 371.492 55.1547 370.65 55.944 370.042C56.7227 369.423 57.6987 369.114 58.872 369.114C60.12 369.114 61.144 369.439 61.944 370.09C62.7333 370.73 63.128 371.567 63.128 372.602C63.128 373.668 62.6747 374.495 61.768 375.082H66.152V376.33H54.888V375.082ZM55.912 365.508H60.664C61.528 365.508 61.96 365.102 61.96 364.292C61.96 363.876 61.8373 363.508 61.592 363.188H62.792C62.984 363.54 63.08 363.934 63.08 364.372C63.08 365.972 62.264 366.772 60.632 366.772H55.912V368.068H54.888V366.772H52.872V365.508H54.888V363.268H55.912V365.508ZM51.688 357.473H52.84C52.7547 357.729 52.712 357.975 52.712 358.209C52.712 358.551 52.8293 358.833 53.064 359.057C53.2987 359.271 53.6613 359.377 54.152 359.377H54.888V357.585H55.912V359.377H63V360.641H55.912V362.033H54.888V360.641H54.136C53.3467 360.641 52.7227 360.433 52.264 360.017C51.8053 359.591 51.576 359.004 51.576 358.257C51.576 358.001 51.6133 357.74 51.688 357.473ZM63.144 352.784C63.144 353.946 62.7547 354.869 61.976 355.552C61.1867 356.224 60.1947 356.56 59 356.56C57.7947 356.56 56.792 356.213 55.992 355.52C55.1813 354.816 54.776 353.904 54.776 352.784C54.776 351.557 55.1707 350.613 55.96 349.952C56.7493 349.28 57.752 348.944 58.968 348.944C60.1733 348.944 61.1707 349.285 61.96 349.968C62.7493 350.65 63.144 351.589 63.144 352.784ZM55.896 352.784C55.896 353.552 56.1947 354.154 56.792 354.592C57.3893 355.029 58.12 355.248 58.984 355.248C59.8267 355.248 60.5467 355.024 61.144 354.576C61.7307 354.128 62.024 353.53 62.024 352.784C62.024 351.973 61.736 351.349 61.16 350.912C60.5733 350.474 59.848 350.256 58.984 350.256C58.088 350.256 57.352 350.464 56.776 350.88C56.1893 351.296 55.896 351.93 55.896 352.784ZM54.888 345.847H56.312C55.3093 345.421 54.808 344.685 54.808 343.639C54.808 343.447 54.8187 343.298 54.84 343.191H56.088C56.0133 343.415 55.976 343.645 55.976 343.879C55.976 344.445 56.2373 344.914 56.76 345.287C57.2827 345.661 57.8853 345.847 58.568 345.847H63V347.111L54.888 347.095V345.847ZM61.976 338.789C61.976 338.127 61.7307 337.567 61.24 337.109C60.7493 336.639 59.9653 336.405 58.888 336.405C57.864 336.405 57.112 336.645 56.632 337.125C56.152 337.605 55.912 338.133 55.912 338.709C55.912 339.381 56.184 339.941 56.728 340.389C57.2613 340.826 58.0293 341.045 59.032 341.045C59.9067 341.045 60.616 340.831 61.16 340.405C61.704 339.978 61.976 339.439 61.976 338.789ZM51.688 336.405V335.141H63V336.405H61.8C62.6853 336.981 63.128 337.813 63.128 338.901C63.128 339.978 62.728 340.826 61.928 341.445C61.128 342.053 60.1573 342.357 59.016 342.357C57.7467 342.357 56.7227 342.031 55.944 341.381C55.1547 340.73 54.76 339.893 54.76 338.869C54.76 337.813 55.2133 336.991 56.12 336.405H51.688ZM64.968 334.095L61.384 332.607V330.927L64.968 332.991V334.095ZM61.832 323.939V319.347H63V325.235H52.216V323.939H61.832ZM63.144 314.378C63.144 315.54 62.7547 316.463 61.976 317.146C61.1867 317.818 60.1947 318.154 59 318.154C57.7947 318.154 56.792 317.807 55.992 317.114C55.1813 316.41 54.776 315.498 54.776 314.378C54.776 313.151 55.1707 312.207 55.96 311.546C56.7493 310.874 57.752 310.538 58.968 310.538C60.1733 310.538 61.1707 310.879 61.96 311.562C62.7493 312.244 63.144 313.183 63.144 314.378ZM55.896 314.378C55.896 315.146 56.1947 315.748 56.792 316.186C57.3893 316.623 58.12 316.842 58.984 316.842C59.8267 316.842 60.5467 316.618 61.144 316.17C61.7307 315.722 62.024 315.124 62.024 314.378C62.024 313.567 61.736 312.943 61.16 312.506C60.5733 312.068 59.848 311.85 58.984 311.85C58.088 311.85 57.352 312.058 56.776 312.474C56.1893 312.89 55.896 313.524 55.896 314.378ZM54.888 307.441H56.296C55.2827 306.961 54.776 306.108 54.776 304.881C54.776 304.092 55.016 303.463 55.496 302.993C55.976 302.524 56.616 302.289 57.416 302.289H63V303.553H57.752C57.1547 303.553 56.7013 303.708 56.392 304.017C56.072 304.316 55.912 304.711 55.912 305.201C55.912 305.809 56.1467 306.337 56.616 306.785C57.0853 307.223 57.736 307.441 58.568 307.441H63V308.689H54.888V307.441ZM61.976 296.961C61.976 296.299 61.7307 295.739 61.24 295.281C60.7493 294.811 59.9653 294.577 58.888 294.577C57.864 294.577 57.112 294.817 56.632 295.297C56.152 295.777 55.912 296.305 55.912 296.881C55.912 297.553 56.184 298.113 56.728 298.561C57.2613 298.998 58.0293 299.217 59.032 299.217C59.9067 299.217 60.616 299.003 61.16 298.577C61.704 298.15 61.976 297.611 61.976 296.961ZM51.688 294.577V293.313H63V294.577H61.8C62.6853 295.153 63.128 295.985 63.128 297.073C63.128 298.15 62.728 298.998 61.928 299.617C61.128 300.225 60.1573 300.529 59.016 300.529C57.7467 300.529 56.7227 300.203 55.944 299.553C55.1547 298.902 54.76 298.065 54.76 297.041C54.76 295.985 55.2133 295.163 56.12 294.577H51.688ZM63.144 287.674C63.144 288.837 62.7547 289.76 61.976 290.442C61.1867 291.114 60.1947 291.45 59 291.45C57.7947 291.45 56.792 291.104 55.992 290.41C55.1813 289.706 54.776 288.794 54.776 287.674C54.776 286.448 55.1707 285.504 55.96 284.842C56.7493 284.17 57.752 283.834 58.968 283.834C60.1733 283.834 61.1707 284.176 61.96 284.858C62.7493 285.541 63.144 286.48 63.144 287.674ZM55.896 287.674C55.896 288.442 56.1947 289.045 56.792 289.482C57.3893 289.92 58.12 290.138 58.984 290.138C59.8267 290.138 60.5467 289.914 61.144 289.466C61.7307 289.018 62.024 288.421 62.024 287.674C62.024 286.864 61.736 286.24 61.16 285.802C60.5733 285.365 59.848 285.146 58.984 285.146C58.088 285.146 57.352 285.354 56.776 285.77C56.1893 286.186 55.896 286.821 55.896 287.674ZM54.888 280.738H56.296C55.2827 280.258 54.776 279.405 54.776 278.178C54.776 277.389 55.016 276.759 55.496 276.29C55.976 275.821 56.616 275.586 57.416 275.586H63V276.85H57.752C57.1547 276.85 56.7013 277.005 56.392 277.314C56.072 277.613 55.912 278.007 55.912 278.498C55.912 279.106 56.1467 279.634 56.616 280.082C57.0853 280.519 57.736 280.738 58.568 280.738H63V281.986H54.888V280.738Z" fill="#120A08"/>
<path d="M94.2768 288.5C41.2768 187 118.777 86 210.777 88.5C155.277 127.5 98.2768 219 94.2768 288.5Z" fill="url(#paint0_linear)"/>
<path d="M94.2768 288.5C41.2768 187 118.777 86 210.777 88.5M94.2768 288.5C81.3793 187.5 128.777 116.282 210.777 88.5M94.2768 288.5C98.2768 219 155.277 127.5 210.777 88.5" stroke="#FFFCFC" stroke-width="2"/>
<path d="M210.777 88.5C310.277 88.5 376.777 188 326.777 288C314.277 189.5 262.777 122 210.777 88.5Z" fill="url(#paint1_linear)"/>
<path d="M210.777 88.5C310.277 88.5 376.777 188 326.777 288M210.777 88.5C311.277 117.5 336.777 202.5 326.777 288M210.777 88.5C262.777 122 314.277 189.5 326.777 288" stroke="#FFFCFC" stroke-width="2"/>
<path d="M325.777 289.5C263.009 385.268 136.498 369.569 93.8164 288.031C154.93 317.466 263.15 319.9 325.777 289.5Z" fill="url(#paint2_linear)"/>
<path d="M325.777 289.5C263.009 385.268 136.498 369.569 93.8164 288.031M325.777 289.5C243.89 350.013 158.059 346.072 93.8164 288.031M325.777 289.5C263.15 319.9 154.93 317.466 93.8164 288.031" stroke="#FFFCFC" stroke-width="2"/>
<path d="M112.277 289H95.2768L106.777 269H122.277L112.277 289Z" fill="#FD6666" stroke="#FFFCFC"/>
<path d="M122.277 269H106.777L116.777 251.5L130.277 252L122.277 269Z" fill="#FD6666" stroke="#FFFCFC"/>
<path d="M130.277 252L116.777 251.5L125.277 236.5H138.277L130.277 252Z" fill="#FD6666" stroke="#FFFCFC"/>
<path d="M137.777 237.5H124.777L133.777 222L145.277 222.5L137.777 237.5Z" fill="#FD7866" stroke="#FFFCFC"/>
<path d="M145.277 222L133.777 221.5L141.277 209H151.777L145.277 222Z" fill="#FD8A66" stroke="#FFFCFC"/>
<path d="M151.777 209H141.277L148.277 196.5H157.777L151.777 209Z" fill="#FD9366" stroke="#FFFCFC"/>
<path d="M158.277 196.5H148.277L156.277 183H164.777L158.277 196.5Z" fill="#FD9C66" stroke="#FFFCFC"/>
<path d="M164.777 183H156.277L163.777 169.5H171.277L164.777 183Z" fill="#FD9C66" stroke="#FFFCFC"/>
<path d="M171.277 169.5H163.777L172.277 155H178.777L171.277 169.5Z" fill="#FDAE66" stroke="#FFFCFC"/>
<path d="M178.277 155H172.277L178.777 144H183.777L178.277 155Z" fill="#FDC066" stroke="#FFFCFC"/>
<path d="M183.777 144H178.777L185.277 133H189.277L183.777 144Z" fill="#FDD366" stroke="#FFFCFC"/>
<path d="M189.277 133H185.277L191.277 122H194.777L189.277 133Z" fill="#FDE566" stroke="#FFFCFC"/>
<path d="M194.777 122H191.277L211.277 88.5L194.777 122Z" fill="#FDF766" stroke="#FFFCFC" stroke-width="0.5"/>
<path d="M130.277 289H112.277L122.277 269H138.277L130.277 289Z" fill="#FD6666" stroke="#FFFCFC"/>
<path d="M138.277 269H122.277L130.277 252H145.277L138.277 269Z" fill="#FD6666" stroke="#FFFCFC"/>
<path d="M145.277 252H130.777L137.777 238H150.777L145.277 252Z" fill="#FD6666" stroke="#FFFCFC"/>
<path d="M150.777 238L137.777 237.5L144.777 222H157.277L150.777 238Z" fill="#FD7866" stroke="#FFFCFC"/>
<path d="M157.277 222H145.277L151.277 209H162.777L157.277 222Z" fill="#FD8A66" stroke="#FFFCFC"/>
<path d="M162.777 209H151.777L157.777 196.5H167.777L162.777 209Z" fill="#FD9366" stroke="#FFFCFC"/>
<path d="M167.777 196.5H158.277L164.777 183H173.277L167.777 196.5Z" fill="#FD9C66" stroke="#FFFCFC"/>
<path d="M173.277 183H164.777L171.277 169.5H178.777L173.277 183Z" fill="#FD9C66" stroke="#FFFCFC"/>
<path d="M178.777 169.5H171.277L178.777 155H184.277L178.777 169.5Z" fill="#FDAE66" stroke="#FFFCFC"/>
<path d="M184.277 155H178.277L183.777 144H188.777L184.277 155Z" fill="#FDC066" stroke="#FFFCFC"/>
<path d="M188.777 144H183.777L189.277 133H193.277L188.777 144Z" fill="#FDD366" stroke="#FFFCFC"/>
<path d="M193.777 133H189.277L194.777 122H197.777L193.777 133Z" fill="#FDE566" stroke="#FFFCFC"/>
<path d="M197.777 122H194.777L210.777 88.5L197.777 122Z" fill="#FDF766" stroke="#FFFCFC" stroke-width="0.5"/>
<path d="M148.777 289H130.277L138.277 269L154.777 269.5L148.777 289Z" fill="#FD6666" stroke="#FFFCFC"/>
<path d="M154.777 269.5L138.277 269L145.277 252H160.277L154.777 269.5Z" fill="#FD6666" stroke="#FFFCFC"/>
<path d="M160.277 252H145.277L150.777 238H164.777L160.277 252Z" fill="#FD6666" stroke="#FFFCFC"/>
<path d="M164.777 238H151.277L157.277 222H169.777L164.777 238Z" fill="#FD7866" stroke="#FFFCFC"/>
<path d="M169.777 222H157.277L162.777 209H173.777L169.777 222Z" fill="#FD8A66" stroke="#FFFCFC"/>
<path d="M173.777 209H162.777L167.777 196.5H177.777L173.777 209Z" fill="#FD9366" stroke="#FFFCFC"/>
<path d="M177.777 196.5H167.777L173.277 183H181.777L177.777 196.5Z" fill="#FD9C66" stroke="#FFFCFC"/>
<path d="M181.777 183H173.277L178.777 169.5H186.277L181.777 183Z" fill="#FD9C66" stroke="#FFFCFC"/>
<path d="M185.777 169.5H178.777L184.277 155H190.277L185.777 169.5Z" fill="#FDAE66" stroke="#FFFCFC"/>
<path d="M190.277 155H184.277L188.777 144H193.777L190.277 155Z" fill="#FDC066" stroke="#FFFCFC"/>
<path d="M193.777 144H188.777L193.277 133H197.277L193.777 144Z" fill="#FDD366" stroke="#FFFCFC"/>
<path d="M197.277 133H193.277L197.777 122H200.777L197.277 133Z" fill="#FDE566" stroke="#FFFCFC"/>
<path d="M200.777 122H198.277L210.777 88L200.777 122Z" fill="#FDF766" stroke="#FFFCFC" stroke-width="0.5"/>
<path d="M164.777 289H148.777L154.777 269.5H169.277L164.777 289Z" fill="#FD6666" stroke="#FFFCFC"/>
<path d="M169.277 269.5H154.777L160.277 252H173.277L169.277 269.5Z" fill="#FD6666" stroke="#FFFCFC"/>
<path d="M173.277 252H160.277L164.777 238H176.777L173.277 252Z" fill="#FD6666" stroke="#FFFCFC"/>
<path d="M176.777 238H164.777L169.777 222H180.277L176.777 238Z" fill="#FD7866" stroke="#FFFCFC"/>
<path d="M180.277 222H169.777L173.777 209H183.277L180.277 222Z" fill="#FD8A66" stroke="#FFFCFC"/>
<path d="M183.277 209H173.777L177.277 196.5H186.277L183.277 209Z" fill="#FD9366" stroke="#FFFCFC"/>
<path d="M186.277 196.5H177.777L181.777 183H189.277L186.277 196.5Z" fill="#FD9C66" stroke="#FFFCFC"/>
<path d="M189.277 183H181.777L186.277 169.5H192.277L189.277 183Z" fill="#FD9C66" stroke="#FFFCFC"/>
<path d="M192.277 169.5H185.777L190.277 155H195.777L192.277 169.5Z" fill="#FDAE66" stroke="#FFFCFC"/>
<path d="M195.777 155H190.277L193.777 144H198.277L195.777 155Z" fill="#FDC066" stroke="#FFFCFC"/>
<path d="M198.277 144H193.777L197.277 133H200.777L199.527 138L198.277 144Z" fill="#FDD366" stroke="#FFFCFC"/>
<path d="M200.777 133H197.277L200.777 122H203.277L200.777 133Z" fill="#FDE566" stroke="#FFFCFC"/>
<path d="M203.277 122H200.777L210.777 88.5L203.277 122Z" fill="#FDF766" stroke="#FFFCFC" stroke-width="0.5"/>
<path d="M182.277 289H164.777L169.277 269.5H185.277L182.277 289Z" fill="#FD6666" stroke="#FFFCFC"/>
<path d="M185.277 269.5H169.277L173.277 252H187.777L185.277 269.5Z" fill="#FD6666" stroke="#FFFCFC"/>
<path d="M189.777 238H176.277L180.277 222H191.777L189.777 238Z" fill="#FD7866" stroke="#FFFCFC"/>
<path d="M187.777 252H173.277L176.277 238H189.777L187.777 252Z" fill="#FD6666" stroke="#FFFCFC"/>
<path d="M191.777 222H180.277L183.277 209H193.777L191.777 222Z" fill="#FD8A66" stroke="#FFFCFC"/>
<path d="M193.777 209H183.277L186.277 196.5H195.277L193.777 209Z" fill="#FD9366" stroke="#FFFCFC"/>
<path d="M195.277 196.5H186.277L189.277 183H197.277L195.277 196.5Z" fill="#FD9C66" stroke="#FFFCFC"/>
<path d="M197.277 183H189.277L192.277 169.5H199.277L197.277 183Z" fill="#FD9C66" stroke="#FFFCFC"/>
<path d="M199.277 169.5H192.277L195.777 155H201.277L199.277 169.5Z" fill="#FDAE66" stroke="#FFFCFC"/>
<path d="M201.277 155H195.777L198.277 144H202.777L201.277 155Z" fill="#FDC066" stroke="#FFFCFC"/>
<path d="M202.777 144H198.277L200.777 133H204.777L202.777 144Z" fill="#FDD366" stroke="#FFFCFC"/>
<path d="M204.777 133H200.777L203.277 122H206.277L204.777 133Z" fill="#FDE566" stroke="#FFFCFC"/>
<path d="M206.277 122H203.277L210.777 88L206.277 122Z" fill="#FDF766" stroke="#FFFCFC" stroke-width="0.5"/>
<path d="M201.277 289H182.777L185.277 269.5H202.277L201.277 289Z" fill="#FD6666" stroke="#FFFCFC"/>
<path d="M202.277 269.5H185.277L187.777 252H203.277L202.277 269.5Z" fill="#FD6666" stroke="#FFFCFC"/>
<path d="M217.777 269.5H202.277L203.277 252H217.277L217.777 269.5Z" fill="#FD6666" stroke="#FFFCFC"/>
<path d="M203.277 252H187.777L189.777 238H203.777L203.277 252Z" fill="#FD6666" stroke="#FFFCFC"/>
<path d="M203.777 238H189.777L191.777 222H204.777L203.777 238Z" fill="#FD7866" stroke="#FFFCFC"/>
<path d="M204.777 222H191.777L193.777 209H205.277L204.777 222Z" fill="#FD8A66" stroke="#FFFCFC"/>
<path d="M205.277 209H193.777L195.277 196.5H205.777L205.277 209Z" fill="#FD9366" stroke="#FFFCFC"/>
<path d="M205.777 196.5H195.277L197.277 183H206.277L205.777 196.5Z" fill="#FD9C66" stroke="#FFFCFC"/>
<path d="M206.277 183H197.277L199.277 169.5H206.777L206.277 183Z" fill="#FD9C66" stroke="#FFFCFC"/>
<path d="M206.777 169.5H199.277L201.277 155H207.777L206.777 169.5Z" fill="#FDAE66" stroke="#FFFCFC"/>
<path d="M207.777 155H201.277L202.777 144H208.277L207.777 155Z" fill="#FDC066" stroke="#FFFCFC"/>
<path d="M208.277 144H202.777L204.777 133H208.777L208.277 144Z" fill="#FDD366" stroke="#FFFCFC"/>
<path d="M208.777 133H204.777L206.277 122H209.277L208.777 133Z" fill="#FDE566" stroke="#FFFCFC"/>
<path d="M209.277 122H206.277L210.777 88.5L209.277 122Z" fill="#FDF766" stroke="#FFFCFC" stroke-width="0.5"/>
<path d="M218.777 289H201.277L202.277 269.5H217.777L218.777 289Z" fill="#FD6666" stroke="#FFFCFC"/>
<path d="M217.277 252H203.277L203.777 238H216.777L217.277 252Z" fill="#FD6666" stroke="#FFFCFC"/>
<path d="M216.777 238H203.777L204.777 222H216.277L216.777 238Z" fill="#FD7866" stroke="#FFFCFC"/>
<path d="M216.277 222H204.777L205.277 209H215.777L216.277 222Z" fill="#FD8A66" stroke="#FFFCFC"/>
<path d="M215.777 209H205.277L205.777 196.5H215.277L215.777 209Z" fill="#FD9366" stroke="#FFFCFC"/>
<path d="M215.277 196.5H205.777L206.277 183H214.777L215.277 196.5Z" fill="#FD9C66" stroke="#FFFCFC"/>
<path d="M214.777 183H206.277L206.777 169.5H214.277L214.777 183Z" fill="#FD9C66" stroke="#FFFCFC"/>
<path d="M214.277 169.5H206.777L207.777 155H213.277L214.277 169.5Z" fill="#FDAE66" stroke="#FFFCFC"/>
<path d="M213.277 155H207.777L208.277 144H212.777L213.277 155Z" fill="#FDC066" stroke="#FFFCFC"/>
<path d="M212.777 144H208.277L208.777 133H212.277L212.777 144Z" fill="#FDD366" stroke="#FFFCFC"/>
<path d="M212.277 133H208.777L209.277 122H212.277V133Z" fill="#FDE566" stroke="#FFFCFC"/>
<path d="M212.277 122H209.277L210.777 88L212.277 122Z" fill="#FDF766" stroke="#FFFCFC" stroke-width="0.5"/>
<path d="M237.777 289H218.777L217.777 269.5H234.777L237.777 289Z" fill="#FD6666" stroke="#FFFCFC"/>
<path d="M217.777 269.5H234.777L232.777 252H217.277L217.777 269.5Z" fill="#FD6666" stroke="#FFFCFC"/>
<path d="M217.277 252H232.777L230.777 238H216.777L217.277 252Z" fill="#FD6666" stroke="#FFFCFC"/>
<path d="M216.777 238H230.777L228.777 222H216.277L216.777 238Z" fill="#FD7866" stroke="#FFFCFC"/>
<path d="M216.277 222H228.777L226.777 209H215.777L216.277 222Z" fill="#FD8A66" stroke="#FFFCFC"/>
<path d="M215.777 209H226.777L225.277 196.5H215.277L215.777 209Z" fill="#FD9366" stroke="#FFFCFC"/>
<path d="M215.277 196.5H225.277L223.277 183H214.777L215.277 196.5Z" fill="#FD9C66" stroke="#FFFCFC"/>
<path d="M214.777 183H223.277L221.777 169.5H214.277L214.777 183Z" fill="#FD9C66" stroke="#FFFCFC"/>
<path d="M214.277 169.5H221.777L219.777 155H213.277L214.277 169.5Z" fill="#FDAE66" stroke="#FFFCFC"/>
<path d="M213.277 155H219.777L218.277 144H212.777L213.277 155Z" fill="#FDC066" stroke="#FFFCFC"/>
<path d="M212.777 144H218.277L216.777 133H212.277L212.777 144Z" fill="#FDD366" stroke="#FFFCFC"/>
<path d="M212.277 133H216.777L215.277 122H212.277V133Z" fill="#FDE566" stroke="#FFFCFC"/>
<path d="M212.277 122H215.277L210.777 88L212.277 122Z" fill="#FDF766" stroke="#FFFCFC" stroke-width="0.5"/>
<path d="M237.777 289H256.277L251.777 269.5H234.777L237.777 289Z" fill="#FD6666" stroke="#FFFCFC"/>
<path d="M234.777 269.5H251.777L247.777 252H232.777L234.777 269.5Z" fill="#FD6666" stroke="#FFFCFC"/>
<path d="M232.777 252H247.777L244.777 238H230.777L232.777 252Z" fill="#FD6666" stroke="#FFFCFC"/>
<path d="M230.777 238H244.777L240.777 222H228.777L230.777 238Z" fill="#FD7866" stroke="#FFFCFC"/>
<path d="M228.777 222H240.777L237.777 209H226.777L228.777 222Z" fill="#FD8A66" stroke="#FFFCFC"/>
<path d="M226.777 209H237.777L235.277 196.5H225.277L226.777 209Z" fill="#FD9366" stroke="#FFFCFC"/>
<path d="M225.277 196.5H235.277L232.277 183H223.277L225.277 196.5Z" fill="#FD9C66" stroke="#FFFCFC"/>
<path d="M223.277 183H232.277L228.777 169.5H221.777L223.277 183Z" fill="#FD9C66" stroke="#FFFCFC"/>
<path d="M221.777 169.5H228.777L225.777 155H219.777L221.777 169.5Z" fill="#FDAE66" stroke="#FFFCFC"/>
<path d="M219.777 155H225.777L223.277 144H218.277L219.777 155Z" fill="#FDC066" stroke="#FFFCFC"/>
<path d="M218.277 144H223.277L220.777 133H216.777L218.277 144Z" fill="#FDD366" stroke="#FFFCFC"/>
<path d="M216.777 133H220.777L218.277 122H215.277L216.777 133Z" fill="#FDE566" stroke="#FFFCFC"/>
<path d="M215.277 122H218.277L210.777 88.5L215.277 122Z" fill="#FDF766" stroke="#FFFCFC" stroke-width="0.5"/>
<path d="M256.277 289H275.777L269.277 269.5H251.777L256.277 289Z" fill="#FD6666" stroke="#FFFCFC"/>
<path d="M251.777 269.5H269.277L263.777 252H247.777L251.777 269.5Z" fill="#FD6666" stroke="#FFFCFC"/>
<path d="M247.777 252H263.777L259.277 238H244.777L247.777 252Z" fill="#FD6666" stroke="#FFFCFC"/>
<path d="M244.777 238H259.277L253.777 222H240.777L244.777 238Z" fill="#FD7866" stroke="#FFFCFC"/>
<path d="M240.777 222H253.777L249.777 209H237.777L240.777 222Z" fill="#FD8A66" stroke="#FFFCFC"/>
<path d="M237.777 209H249.777L245.777 196.5H235.277L237.777 209Z" fill="#FD9366" stroke="#FFFCFC"/>
<path d="M235.277 196.5H245.777L241.277 183H232.277L235.277 196.5Z" fill="#FD9C66" stroke="#FFFCFC"/>
<path d="M232.277 183H241.277L236.777 169.5H228.777L232.277 183Z" fill="#FD9C66" stroke="#FFFCFC"/>
<path d="M228.777 169.5H236.777L232.277 155H225.777L228.777 169.5Z" fill="#FDAE66" stroke="#FFFCFC"/>
<path d="M225.777 155H232.277L228.777 144H223.277L225.777 155Z" fill="#FDC066" stroke="#FFFCFC"/>
<path d="M223.277 144H228.777L224.777 133H220.777L223.277 144Z" fill="#FDD366" stroke="#FFFCFC"/>
<path d="M220.777 133H224.777L221.277 122H218.277L220.777 133Z" fill="#FDE566" stroke="#FFFCFC"/>
<path d="M218.277 122H221.277L210.777 88.5L218.277 122Z" fill="#FDF766" stroke="#FFFCFC" stroke-width="0.5"/>
<path d="M275.777 289H293.777L285.277 269.5H269.277L275.777 289Z" fill="#FD6666" stroke="#FFFCFC"/>
<path d="M269.277 269.5H285.277L277.777 252H263.777L269.277 269.5Z" fill="#FD6666" stroke="#FFFCFC"/>
<path d="M263.777 252H277.777L272.277 238H259.277L263.777 252Z" fill="#FD6666" stroke="#FFFCFC"/>
<path d="M259.277 238H272.277L265.777 222H253.777L259.277 238Z" fill="#FD7866" stroke="#FFFCFC"/>
<path d="M253.777 222H265.777L260.277 209H249.777L253.777 222Z" fill="#FD8A66" stroke="#FFFCFC"/>
<path d="M249.777 209H260.277L254.777 196.5H245.777L249.777 209Z" fill="#FD9366" stroke="#FFFCFC"/>
<path d="M245.777 196.5H254.777L249.277 183H241.277L245.777 196.5Z" fill="#FD9C66" stroke="#FFFCFC"/>
<path d="M241.277 183H249.277L243.777 169.5H236.777L241.277 183Z" fill="#FD9C66" stroke="#FFFCFC"/>
<path d="M236.777 169.5H243.777L237.777 155H232.277L236.777 169.5Z" fill="#FDAE66" stroke="#FFFCFC"/>
<path d="M232.277 155H237.777L233.277 144H228.777L232.277 155Z" fill="#FDC066" stroke="#FFFCFC"/>
<path d="M228.777 144H233.277L228.777 133H224.777L228.777 144Z" fill="#FDD366" stroke="#FFFCFC"/>
<path d="M224.777 133H228.777L224.277 122H221.277L224.777 133Z" fill="#FDE566" stroke="#FFFCFC"/>
<path d="M221.277 122H224.277L210.777 88.5L221.277 122Z" fill="#FDF766" stroke="#FFFCFC" stroke-width="0.5"/>
<path d="M293.777 289H310.277L300.277 269.5H285.277L293.777 289Z" fill="#FD6666" stroke="#FFFCFC"/>
<path d="M285.277 269.5H300.277L291.777 252H277.777L285.277 269.5Z" fill="#FD6666" stroke="#FFFCFC"/>
<path d="M277.777 252H291.777L284.777 238H272.277L277.777 252Z" fill="#FD6666" stroke="#FFFCFC"/>
<path d="M272.277 238H284.777L276.777 222H265.777L272.277 238Z" fill="#FD7866" stroke="#FFFCFC"/>
<path d="M265.277 222H276.777L270.277 209H260.277L265.277 222Z" fill="#FD8A66" stroke="#FFFCFC"/>
<path d="M260.277 209H270.277L264.277 196.5H254.777L260.277 209Z" fill="#FD9366" stroke="#FFFCFC"/>
<path d="M254.777 196.5H264.277L257.277 183H249.277L254.777 196.5Z" fill="#FD9C66" stroke="#FFFCFC"/>
<path d="M249.277 183H257.277L250.777 169.5H243.777L249.277 183Z" fill="#FD9C66" stroke="#FFFCFC"/>
<path d="M243.777 169.5H250.777L243.777 155H237.777L243.777 169.5Z" fill="#FDAE66" stroke="#FFFCFC"/>
<path d="M237.777 155H243.777L237.777 144H233.277L237.777 155Z" fill="#FDC066" stroke="#FFFCFC"/>
<path d="M233.277 144H237.777L232.277 133H228.777L233.277 144Z" fill="#FDD366" stroke="#FFFCFC"/>
<path d="M229.277 133H232.277L226.777 122H224.277L229.277 133Z" fill="#FDE566" stroke="#FFFCFC"/>
<path d="M224.277 122H226.777L210.777 88.5L224.277 122Z" fill="#FDF766" stroke="#FFFCFC" stroke-width="0.5"/>
<path d="M310.777 289L326.277 288.5L314.777 269.5H300.277L310.777 289Z" fill="#FD6666" stroke="#FFFCFC"/>
<path d="M300.277 269.5H314.777L304.277 252H291.777L300.277 269.5Z" fill="#FD6666" stroke="#FFFCFC"/>
<path d="M291.777 252H304.277L296.277 238H284.777L291.777 252Z" fill="#FD6666" stroke="#FFFCFC"/>
<path d="M284.777 238H296.277L287.277 222H276.777L284.777 238Z" fill="#FD7866" stroke="#FFFCFC"/>
<path d="M276.777 222H287.277L279.777 209H270.277L276.777 222Z" fill="#FD8A66" stroke="#FFFCFC"/>
<path d="M270.277 209H279.777L272.777 196.5H264.277L270.277 209Z" fill="#FD9366" stroke="#FFFCFC"/>
<path d="M264.277 196.5H272.777L264.777 183H257.277L264.277 196.5Z" fill="#FD9C66" stroke="#FFFCFC"/>
<path d="M257.777 183H264.777L256.777 169.5H250.777L257.777 183Z" fill="#FD9C66" stroke="#FFFCFC"/>
<path d="M250.777 169.5H256.777L248.777 155H243.777L250.777 169.5Z" fill="#FDAE66" stroke="#FFFCFC"/>
<path d="M243.777 155H248.777L242.277 144H237.777L243.777 155Z" fill="#FDC066" stroke="#FFFCFC"/>
<path d="M237.777 144H242.277L236.277 133H232.277L237.777 144Z" fill="#FDD366" stroke="#FFFCFC"/>
<path d="M232.277 133H236.277L229.777 122H226.777L232.277 133Z" fill="#FDE566" stroke="#FFFCFC"/>
<path d="M226.777 122H229.777L210.777 88.5L226.777 122Z" fill="#FDF766" stroke="#FFFCFC" stroke-width="0.5"/>
<path d="M94.2768 288.5C41.2768 187 118.777 86 210.777 88.5C155.277 127.5 98.2768 219 94.2768 288.5Z" fill="url(#paint3_linear)"/>
<path d="M94.2768 288.5C41.2768 187 118.777 86 210.777 88.5M94.2768 288.5C81.3793 187.5 128.777 116.282 210.777 88.5M94.2768 288.5C98.2768 219 155.277 127.5 210.777 88.5" stroke="#FFFCFC" stroke-width="2"/>
<path d="M210.777 88.5C310.277 88.5 376.777 188 326.777 288C314.277 189.5 262.777 122 210.777 88.5Z" fill="url(#paint4_linear)"/>
<path d="M210.777 88.5C310.277 88.5 376.777 188 326.777 288M210.777 88.5C311.277 117.5 336.777 202.5 326.777 288M210.777 88.5C262.777 122 314.277 189.5 326.777 288" stroke="#FFFCFC" stroke-width="2"/>
<path d="M325.777 289.5C263.009 385.268 136.498 369.569 93.8164 288.031C154.93 317.466 263.15 319.9 325.777 289.5Z" fill="url(#paint5_linear)"/>
<path d="M325.777 289.5C263.009 385.268 136.498 369.569 93.8164 288.031M325.777 289.5C243.89 350.013 158.059 346.072 93.8164 288.031M325.777 289.5C263.15 319.9 154.93 317.466 93.8164 288.031" stroke="#FFFCFC" stroke-width="2"/>
<path d="M112.277 289H95.2768L106.777 269H122.277L112.277 289Z" fill="#FD6666" stroke="#FFFCFC"/>
<path d="M122.277 269H106.777L116.777 251.5L130.277 252L122.277 269Z" fill="#FD6666" stroke="#FFFCFC"/>
<path d="M130.277 252L116.777 251.5L125.277 236.5H138.277L130.277 252Z" fill="#FD6666" stroke="#FFFCFC"/>
<path d="M137.777 237.5H124.777L133.777 222L145.277 222.5L137.777 237.5Z" fill="#FD7866" stroke="#FFFCFC"/>
<path d="M145.277 222L133.777 221.5L141.277 209H151.777L145.277 222Z" fill="#FD8A66" stroke="#FFFCFC"/>
<path d="M151.777 209H141.277L148.277 196.5H157.777L151.777 209Z" fill="#FD9366" stroke="#FFFCFC"/>
<path d="M158.277 196.5H148.277L156.277 183H164.777L158.277 196.5Z" fill="#FD9C66" stroke="#FFFCFC"/>
<path d="M164.777 183H156.277L163.777 169.5H171.277L164.777 183Z" fill="#FD9C66" stroke="#FFFCFC"/>
<path d="M171.277 169.5H163.777L172.277 155H178.777L171.277 169.5Z" fill="#FDAE66" stroke="#FFFCFC"/>
<path d="M178.277 155H172.277L178.777 144H183.777L178.277 155Z" fill="#FDC066" stroke="#FFFCFC"/>
<path d="M183.777 144H178.777L185.277 133H189.277L183.777 144Z" fill="#FDD366" stroke="#FFFCFC"/>
<path d="M189.277 133H185.277L191.277 122H194.777L189.277 133Z" fill="#FDE566" stroke="#FFFCFC"/>
<path d="M194.777 122H191.277L211.277 88.5L194.777 122Z" fill="#FDF766" stroke="#FFFCFC" stroke-width="0.5"/>
<path d="M130.277 289H112.277L122.277 269H138.277L130.277 289Z" fill="#FD6666" stroke="#FFFCFC"/>
<path d="M138.277 269H122.277L130.277 252H145.277L138.277 269Z" fill="#FD6666" stroke="#FFFCFC"/>
<path d="M145.277 252H130.777L137.777 238H150.777L145.277 252Z" fill="#FD6666" stroke="#FFFCFC"/>
<path d="M150.777 238L137.777 237.5L144.777 222H157.277L150.777 238Z" fill="#FD7866" stroke="#FFFCFC"/>
<path d="M157.277 222H145.277L151.277 209H162.777L157.277 222Z" fill="#FD8A66" stroke="#FFFCFC"/>
<path d="M162.777 209H151.777L157.777 196.5H167.777L162.777 209Z" fill="#FD9366" stroke="#FFFCFC"/>
<path d="M167.777 196.5H158.277L164.777 183H173.277L167.777 196.5Z" fill="#FD9C66" stroke="#FFFCFC"/>
<path d="M173.277 183H164.777L171.277 169.5H178.777L173.277 183Z" fill="#FD9C66" stroke="#FFFCFC"/>
<path d="M178.777 169.5H171.277L178.777 155H184.277L178.777 169.5Z" fill="#FDAE66" stroke="#FFFCFC"/>
<path d="M184.277 155H178.277L183.777 144H188.777L184.277 155Z" fill="#FDC066" stroke="#FFFCFC"/>
<path d="M188.777 144H183.777L189.277 133H193.277L188.777 144Z" fill="#FDD366" stroke="#FFFCFC"/>
<path d="M193.777 133H189.277L194.777 122H197.777L193.777 133Z" fill="#FDE566" stroke="#FFFCFC"/>
<path d="M197.777 122H194.777L210.777 88.5L197.777 122Z" fill="#FDF766" stroke="#FFFCFC" stroke-width="0.5"/>
<path d="M148.777 289H130.277L138.277 269L154.777 269.5L148.777 289Z" fill="#FD6666" stroke="#FFFCFC"/>
<path d="M154.777 269.5L138.277 269L145.277 252H160.277L154.777 269.5Z" fill="#FD6666" stroke="#FFFCFC"/>
<path d="M160.277 252H145.277L150.777 238H164.777L160.277 252Z" fill="#FD6666" stroke="#FFFCFC"/>
<path d="M164.777 238H151.277L157.277 222H169.777L164.777 238Z" fill="#FD7866" stroke="#FFFCFC"/>
<path d="M169.777 222H157.277L162.777 209H173.777L169.777 222Z" fill="#FD8A66" stroke="#FFFCFC"/>
<path d="M173.777 209H162.777L167.777 196.5H177.777L173.777 209Z" fill="#FD9366" stroke="#FFFCFC"/>
<path d="M177.777 196.5H167.777L173.277 183H181.777L177.777 196.5Z" fill="#FD9C66" stroke="#FFFCFC"/>
<path d="M181.777 183H173.277L178.777 169.5H186.277L181.777 183Z" fill="#FD9C66" stroke="#FFFCFC"/>
<path d="M185.777 169.5H178.777L184.277 155H190.277L185.777 169.5Z" fill="#FDAE66" stroke="#FFFCFC"/>
<path d="M190.277 155H184.277L188.777 144H193.777L190.277 155Z" fill="#FDC066" stroke="#FFFCFC"/>
<path d="M193.777 144H188.777L193.277 133H197.277L193.777 144Z" fill="#FDD366" stroke="#FFFCFC"/>
<path d="M197.277 133H193.277L197.777 122H200.777L197.277 133Z" fill="#FDE566" stroke="#FFFCFC"/>
<path d="M200.777 122H198.277L210.777 88L200.777 122Z" fill="#FDF766" stroke="#FFFCFC" stroke-width="0.5"/>
<path d="M164.777 289H148.777L154.777 269.5H169.277L164.777 289Z" fill="#FD6666" stroke="#FFFCFC"/>
<path d="M169.277 269.5H154.777L160.277 252H173.277L169.277 269.5Z" fill="#FD6666" stroke="#FFFCFC"/>
<path d="M173.277 252H160.277L164.777 238H176.777L173.277 252Z" fill="#FD6666" stroke="#FFFCFC"/>
<path d="M176.777 238H164.777L169.777 222H180.277L176.777 238Z" fill="#FD7866" stroke="#FFFCFC"/>
<path d="M180.277 222H169.777L173.777 209H183.277L180.277 222Z" fill="#FD8A66" stroke="#FFFCFC"/>
<path d="M183.277 209H173.777L177.277 196.5H186.277L183.277 209Z" fill="#FD9366" stroke="#FFFCFC"/>
<path d="M186.277 196.5H177.777L181.777 183H189.277L186.277 196.5Z" fill="#FD9C66" stroke="#FFFCFC"/>
<path d="M189.277 183H181.777L186.277 169.5H192.277L189.277 183Z" fill="#FD9C66" stroke="#FFFCFC"/>
<path d="M192.277 169.5H185.777L190.277 155H195.777L192.277 169.5Z" fill="#FDAE66" stroke="#FFFCFC"/>
<path d="M195.777 155H190.277L193.777 144H198.277L195.777 155Z" fill="#FDC066" stroke="#FFFCFC"/>
<path d="M198.277 144H193.777L197.277 133H200.777L199.527 138L198.277 144Z" fill="#FDD366" stroke="#FFFCFC"/>
<path d="M200.777 133H197.277L200.777 122H203.277L200.777 133Z" fill="#FDE566" stroke="#FFFCFC"/>
<path d="M203.277 122H200.777L210.777 88.5L203.277 122Z" fill="#FDF766" stroke="#FFFCFC" stroke-width="0.5"/>
<path d="M182.277 289H164.777L169.277 269.5H185.277L182.277 289Z" fill="#FD6666" stroke="#FFFCFC"/>
<path d="M185.277 269.5H169.277L173.277 252H187.777L185.277 269.5Z" fill="#FD6666" stroke="#FFFCFC"/>
<path d="M189.777 238H176.277L180.277 222H191.777L189.777 238Z" fill="#FD7866" stroke="#FFFCFC"/>
<path d="M187.777 252H173.277L176.277 238H189.777L187.777 252Z" fill="#FD6666" stroke="#FFFCFC"/>
<path d="M191.777 222H180.277L183.277 209H193.777L191.777 222Z" fill="#FD8A66" stroke="#FFFCFC"/>
<path d="M193.777 209H183.277L186.277 196.5H195.277L193.777 209Z" fill="#FD9366" stroke="#FFFCFC"/>
<path d="M195.277 196.5H186.277L189.277 183H197.277L195.277 196.5Z" fill="#FD9C66" stroke="#FFFCFC"/>
<path d="M197.277 183H189.277L192.277 169.5H199.277L197.277 183Z" fill="#FD9C66" stroke="#FFFCFC"/>
<path d="M199.277 169.5H192.277L195.777 155H201.277L199.277 169.5Z" fill="#FDAE66" stroke="#FFFCFC"/>
<path d="M201.277 155H195.777L198.277 144H202.777L201.277 155Z" fill="#FDC066" stroke="#FFFCFC"/>
<path d="M202.777 144H198.277L200.777 133H204.777L202.777 144Z" fill="#FDD366" stroke="#FFFCFC"/>
<path d="M204.777 133H200.777L203.277 122H206.277L204.777 133Z" fill="#FDE566" stroke="#FFFCFC"/>
<path d="M206.277 122H203.277L210.777 88L206.277 122Z" fill="#FDF766" stroke="#FFFCFC" stroke-width="0.5"/>
<path d="M201.277 289H182.777L185.277 269.5H202.277L201.277 289Z" fill="#FD6666" stroke="#FFFCFC"/>
<path d="M202.277 269.5H185.277L187.777 252H203.277L202.277 269.5Z" fill="#FD6666" stroke="#FFFCFC"/>
<path d="M217.777 269.5H202.277L203.277 252H217.277L217.777 269.5Z" fill="#FD6666" stroke="#FFFCFC"/>
<path d="M203.277 252H187.777L189.777 238H203.777L203.277 252Z" fill="#FD6666" stroke="#FFFCFC"/>
<path d="M203.777 238H189.777L191.777 222H204.777L203.777 238Z" fill="#FD7866" stroke="#FFFCFC"/>
<path d="M204.777 222H191.777L193.777 209H205.277L204.777 222Z" fill="#FD8A66" stroke="#FFFCFC"/>
<path d="M205.277 209H193.777L195.277 196.5H205.777L205.277 209Z" fill="#FD9366" stroke="#FFFCFC"/>
<path d="M205.777 196.5H195.277L197.277 183H206.277L205.777 196.5Z" fill="#FD9C66" stroke="#FFFCFC"/>
<path d="M206.277 183H197.277L199.277 169.5H206.777L206.277 183Z" fill="#FD9C66" stroke="#FFFCFC"/>
<path d="M206.777 169.5H199.277L201.277 155H207.777L206.777 169.5Z" fill="#FDAE66" stroke="#FFFCFC"/>
<path d="M207.777 155H201.277L202.777 144H208.277L207.777 155Z" fill="#FDC066" stroke="#FFFCFC"/>
<path d="M208.277 144H202.777L204.777 133H208.777L208.277 144Z" fill="#FDD366" stroke="#FFFCFC"/>
<path d="M208.777 133H204.777L206.277 122H209.277L208.777 133Z" fill="#FDE566" stroke="#FFFCFC"/>
<path d="M209.277 122H206.277L210.777 88.5L209.277 122Z" fill="#FDF766" stroke="#FFFCFC" stroke-width="0.5"/>
<path d="M218.777 289H201.277L202.277 269.5H217.777L218.777 289Z" fill="#FD6666" stroke="#FFFCFC"/>
<path d="M217.277 252H203.277L203.777 238H216.777L217.277 252Z" fill="#FD6666" stroke="#FFFCFC"/>
<path d="M216.777 238H203.777L204.777 222H216.277L216.777 238Z" fill="#FD7866" stroke="#FFFCFC"/>
<path d="M216.277 222H204.777L205.277 209H215.777L216.277 222Z" fill="#FD8A66" stroke="#FFFCFC"/>
<path d="M215.777 209H205.277L205.777 196.5H215.277L215.777 209Z" fill="#FD9366" stroke="#FFFCFC"/>
<path d="M215.277 196.5H205.777L206.277 183H214.777L215.277 196.5Z" fill="#FD9C66" stroke="#FFFCFC"/>
<path d="M214.777 183H206.277L206.777 169.5H214.277L214.777 183Z" fill="#FD9C66" stroke="#FFFCFC"/>
<path d="M214.277 169.5H206.777L207.777 155H213.277L214.277 169.5Z" fill="#FDAE66" stroke="#FFFCFC"/>
<path d="M213.277 155H207.777L208.277 144H212.777L213.277 155Z" fill="#FDC066" stroke="#FFFCFC"/>
<path d="M212.777 144H208.277L208.777 133H212.277L212.777 144Z" fill="#FDD366" stroke="#FFFCFC"/>
<path d="M212.277 133H208.777L209.277 122H212.277V133Z" fill="#FDE566" stroke="#FFFCFC"/>
<path d="M212.277 122H209.277L210.777 88L212.277 122Z" fill="#FDF766" stroke="#FFFCFC" stroke-width="0.5"/>
<path d="M237.777 289H218.777L217.777 269.5H234.777L237.777 289Z" fill="#FD6666" stroke="#FFFCFC"/>
<path d="M217.777 269.5H234.777L232.777 252H217.277L217.777 269.5Z" fill="#FD6666" stroke="#FFFCFC"/>
<path d="M217.277 252H232.777L230.777 238H216.777L217.277 252Z" fill="#FD6666" stroke="#FFFCFC"/>
<path d="M216.777 238H230.777L228.777 222H216.277L216.777 238Z" fill="#FD7866" stroke="#FFFCFC"/>
<path d="M216.277 222H228.777L226.777 209H215.777L216.277 222Z" fill="#FD8A66" stroke="#FFFCFC"/>
<path d="M215.777 209H226.777L225.277 196.5H215.277L215.777 209Z" fill="#FD9366" stroke="#FFFCFC"/>
<path d="M215.277 196.5H225.277L223.277 183H214.777L215.277 196.5Z" fill="#FD9C66" stroke="#FFFCFC"/>
<path d="M214.777 183H223.277L221.777 169.5H214.277L214.777 183Z" fill="#FD9C66" stroke="#FFFCFC"/>
<path d="M214.277 169.5H221.777L219.777 155H213.277L214.277 169.5Z" fill="#FDAE66" stroke="#FFFCFC"/>
<path d="M213.277 155H219.777L218.277 144H212.777L213.277 155Z" fill="#FDC066" stroke="#FFFCFC"/>
<path d="M212.777 144H218.277L216.777 133H212.277L212.777 144Z" fill="#FDD366" stroke="#FFFCFC"/>
<path d="M212.277 133H216.777L215.277 122H212.277V133Z" fill="#FDE566" stroke="#FFFCFC"/>
<path d="M212.277 122H215.277L210.777 88L212.277 122Z" fill="#FDF766" stroke="#FFFCFC" stroke-width="0.5"/>
<path d="M237.777 289H256.277L251.777 269.5H234.777L237.777 289Z" fill="#FD6666" stroke="#FFFCFC"/>
<path d="M234.777 269.5H251.777L247.777 252H232.777L234.777 269.5Z" fill="#FD6666" stroke="#FFFCFC"/>
<path d="M232.777 252H247.777L244.777 238H230.777L232.777 252Z" fill="#FD6666" stroke="#FFFCFC"/>
<path d="M230.777 238H244.777L240.777 222H228.777L230.777 238Z" fill="#FD7866" stroke="#FFFCFC"/>
<path d="M228.777 222H240.777L237.777 209H226.777L228.777 222Z" fill="#FD8A66" stroke="#FFFCFC"/>
<path d="M226.777 209H237.777L235.277 196.5H225.277L226.777 209Z" fill="#FD9366" stroke="#FFFCFC"/>
<path d="M225.277 196.5H235.277L232.277 183H223.277L225.277 196.5Z" fill="#FD9C66" stroke="#FFFCFC"/>
<path d="M223.277 183H232.277L228.777 169.5H221.777L223.277 183Z" fill="#FD9C66" stroke="#FFFCFC"/>
<path d="M221.777 169.5H228.777L225.777 155H219.777L221.777 169.5Z" fill="#FDAE66" stroke="#FFFCFC"/>
<path d="M219.777 155H225.777L223.277 144H218.277L219.777 155Z" fill="#FDC066" stroke="#FFFCFC"/>
<path d="M218.277 144H223.277L220.777 133H216.777L218.277 144Z" fill="#FDD366" stroke="#FFFCFC"/>
<path d="M216.777 133H220.777L218.277 122H215.277L216.777 133Z" fill="#FDE566" stroke="#FFFCFC"/>
<path d="M215.277 122H218.277L210.777 88.5L215.277 122Z" fill="#FDF766" stroke="#FFFCFC" stroke-width="0.5"/>
<path d="M256.277 289H275.777L269.277 269.5H251.777L256.277 289Z" fill="#FD6666" stroke="#FFFCFC"/>
<path d="M251.777 269.5H269.277L263.777 252H247.777L251.777 269.5Z" fill="#FD6666" stroke="#FFFCFC"/>
<path d="M247.777 252H263.777L259.277 238H244.777L247.777 252Z" fill="#FD6666" stroke="#FFFCFC"/>
<path d="M244.777 238H259.277L253.777 222H240.777L244.777 238Z" fill="#FD7866" stroke="#FFFCFC"/>
<path d="M240.777 222H253.777L249.777 209H237.777L240.777 222Z" fill="#FD8A66" stroke="#FFFCFC"/>
<path d="M237.777 209H249.777L245.777 196.5H235.277L237.777 209Z" fill="#FD9366" stroke="#FFFCFC"/>
<path d="M235.277 196.5H245.777L241.277 183H232.277L235.277 196.5Z" fill="#FD9C66" stroke="#FFFCFC"/>
<path d="M232.277 183H241.277L236.777 169.5H228.777L232.277 183Z" fill="#FD9C66" stroke="#FFFCFC"/>
<path d="M228.777 169.5H236.777L232.277 155H225.777L228.777 169.5Z" fill="#FDAE66" stroke="#FFFCFC"/>
<path d="M225.777 155H232.277L228.777 144H223.277L225.777 155Z" fill="#FDC066" stroke="#FFFCFC"/>
<path d="M223.277 144H228.777L224.777 133H220.777L223.277 144Z" fill="#FDD366" stroke="#FFFCFC"/>
<path d="M220.777 133H224.777L221.277 122H218.277L220.777 133Z" fill="#FDE566" stroke="#FFFCFC"/>
<path d="M218.277 122H221.277L210.777 88.5L218.277 122Z" fill="#FDF766" stroke="#FFFCFC" stroke-width="0.5"/>
<path d="M275.777 289H293.777L285.277 269.5H269.277L275.777 289Z" fill="#FD6666" stroke="#FFFCFC"/>
<path d="M269.277 269.5H285.277L277.777 252H263.777L269.277 269.5Z" fill="#FD6666" stroke="#FFFCFC"/>
<path d="M263.777 252H277.777L272.277 238H259.277L263.777 252Z" fill="#FD6666" stroke="#FFFCFC"/>
<path d="M259.277 238H272.277L265.777 222H253.777L259.277 238Z" fill="#FD7866" stroke="#FFFCFC"/>
<path d="M253.777 222H265.777L260.277 209H249.777L253.777 222Z" fill="#FD8A66" stroke="#FFFCFC"/>
<path d="M249.777 209H260.277L254.777 196.5H245.777L249.777 209Z" fill="#FD9366" stroke="#FFFCFC"/>
<path d="M245.777 196.5H254.777L249.277 183H241.277L245.777 196.5Z" fill="#FD9C66" stroke="#FFFCFC"/>
<path d="M241.277 183H249.277L243.777 169.5H236.777L241.277 183Z" fill="#FD9C66" stroke="#FFFCFC"/>
<path d="M236.777 169.5H243.777L237.777 155H232.277L236.777 169.5Z" fill="#FDAE66" stroke="#FFFCFC"/>
<path d="M232.277 155H237.777L233.277 144H228.777L232.277 155Z" fill="#FDC066" stroke="#FFFCFC"/>
<path d="M228.777 144H233.277L228.777 133H224.777L228.777 144Z" fill="#FDD366" stroke="#FFFCFC"/>
<path d="M224.777 133H228.777L224.277 122H221.277L224.777 133Z" fill="#FDE566" stroke="#FFFCFC"/>
<path d="M221.277 122H224.277L210.777 88.5L221.277 122Z" fill="#FDF766" stroke="#FFFCFC" stroke-width="0.5"/>
<path d="M293.777 289H310.277L300.277 269.5H285.277L293.777 289Z" fill="#FD6666" stroke="#FFFCFC"/>
<path d="M285.277 269.5H300.277L291.777 252H277.777L285.277 269.5Z" fill="#FD6666" stroke="#FFFCFC"/>
<path d="M277.777 252H291.777L284.777 238H272.277L277.777 252Z" fill="#FD6666" stroke="#FFFCFC"/>
<path d="M272.277 238H284.777L276.777 222H265.777L272.277 238Z" fill="#FD7866" stroke="#FFFCFC"/>
<path d="M265.277 222H276.777L270.277 209H260.277L265.277 222Z" fill="#FD8A66" stroke="#FFFCFC"/>
<path d="M260.277 209H270.277L264.277 196.5H254.777L260.277 209Z" fill="#FD9366" stroke="#FFFCFC"/>
<path d="M254.777 196.5H264.277L257.277 183H249.277L254.777 196.5Z" fill="#FD9C66" stroke="#FFFCFC"/>
<path d="M249.277 183H257.277L250.777 169.5H243.777L249.277 183Z" fill="#FD9C66" stroke="#FFFCFC"/>
<path d="M243.777 169.5H250.777L243.777 155H237.777L243.777 169.5Z" fill="#FDAE66" stroke="#FFFCFC"/>
<path d="M237.777 155H243.777L237.777 144H233.277L237.777 155Z" fill="#FDC066" stroke="#FFFCFC"/>
<path d="M233.277 144H237.777L232.277 133H228.777L233.277 144Z" fill="#FDD366" stroke="#FFFCFC"/>
<path d="M229.277 133H232.277L226.777 122H224.277L229.277 133Z" fill="#FDE566" stroke="#FFFCFC"/>
<path d="M224.277 122H226.777L210.777 88.5L224.277 122Z" fill="#FDF766" stroke="#FFFCFC" stroke-width="0.5"/>
<path d="M310.777 289L326.277 288.5L314.777 269.5H300.277L310.777 289Z" fill="#FD6666" stroke="#FFFCFC"/>
<path d="M300.277 269.5H314.777L304.277 252H291.777L300.277 269.5Z" fill="#FD6666" stroke="#FFFCFC"/>
<path d="M291.777 252H304.277L296.277 238H284.777L291.777 252Z" fill="#FD6666" stroke="#FFFCFC"/>
<path d="M284.777 238H296.277L287.277 222H276.777L284.777 238Z" fill="#FD7866" stroke="#FFFCFC"/>
<path d="M276.777 222H287.277L279.777 209H270.277L276.777 222Z" fill="#FD8A66" stroke="#FFFCFC"/>
<path d="M270.277 209H279.777L272.777 196.5H264.277L270.277 209Z" fill="#FD9366" stroke="#FFFCFC"/>
<path d="M264.277 196.5H272.777L264.777 183H257.277L264.277 196.5Z" fill="#FD9C66" stroke="#FFFCFC"/>
<path d="M257.777 183H264.777L256.777 169.5H250.777L257.777 183Z" fill="#FD9C66" stroke="#FFFCFC"/>
<path d="M250.777 169.5H256.777L248.777 155H243.777L250.777 169.5Z" fill="#FDAE66" stroke="#FFFCFC"/>
<path d="M243.777 155H248.777L242.277 144H237.777L243.777 155Z" fill="#FDC066" stroke="#FFFCFC"/>
<path d="M237.777 144H242.277L236.277 133H232.277L237.777 144Z" fill="#FDD366" stroke="#FFFCFC"/>
<path d="M232.277 133H236.277L229.777 122H226.777L232.277 133Z" fill="#FDE566" stroke="#FFFCFC"/>
<path d="M226.777 122H229.777L210.777 88.5L226.777 122Z" fill="#FDF766" stroke="#FFFCFC" stroke-width="0.5"/>
</g>
<defs>
<linearGradient id="paint0_linear" x1="123" y1="175" x2="191" y2="102" gradientUnits="userSpaceOnUse">
<stop stop-color="#FD9C66"/>
<stop offset="1" stop-color="#FDF766"/>
</linearGradient>
<linearGradient id="paint1_linear" x1="321" y1="181" x2="240" y2="88" gradientUnits="userSpaceOnUse">
<stop stop-color="#FD9C66"/>
<stop offset="1" stop-color="#FDF766"/>
</linearGradient>
<linearGradient id="paint2_linear" x1="231" y1="346" x2="226" y2="296" gradientUnits="userSpaceOnUse">
<stop stop-color="#FD6666"/>
<stop offset="1" stop-color="#FD9C66"/>
</linearGradient>
<linearGradient id="paint3_linear" x1="123" y1="175" x2="191" y2="102" gradientUnits="userSpaceOnUse">
<stop stop-color="#FD9C66"/>
<stop offset="1" stop-color="#FDF766"/>
</linearGradient>
<linearGradient id="paint4_linear" x1="321" y1="181" x2="240" y2="88" gradientUnits="userSpaceOnUse">
<stop stop-color="#FD9C66"/>
<stop offset="1" stop-color="#FDF766"/>
</linearGradient>
<linearGradient id="paint5_linear" x1="231" y1="346" x2="226" y2="296" gradientUnits="userSpaceOnUse">
<stop stop-color="#FD6666"/>
<stop offset="1" stop-color="#FD9C66"/>
</linearGradient>
<clipPath id="clip0">
<rect width="420" height="420" fill="white"/>
</clipPath>
</defs>
</svg>
