<svg width="420" height="420" viewBox="0 0 420 420" fill="none" xmlns="http://www.w3.org/2000/svg">
<g clip-path="url(#clip0)">
<rect width="420" height="420" fill="#FFFAF8"/>
<path d="M400.56 26.48H403.71L406.62 31.37V34.04L387 34.04V31.13L403.41 31.13L400.56 26.48ZM406.62 36.6153V49.5453H404.07L387 41.5653V38.4153L404.07 46.4253V36.6153H406.62ZM399.93 55.8448L391.56 55.8448C390.1 55.8448 389.37 56.5448 389.37 57.9448C389.37 58.7648 389.59 59.4548 390.03 60.0148H387.39C387.03 59.3548 386.85 58.5448 386.85 57.5848C386.85 54.4448 388.44 52.8748 391.62 52.8748L399.93 52.8748V50.5048H402.21V52.8748H405.93V55.8448H402.21V59.8348L399.93 59.8348V55.8448ZM408.21 66.1955H399.6C401.48 67.0555 402.42 68.6255 402.42 70.9055C402.42 72.3855 401.96 73.5755 401.04 74.4755C400.12 75.3755 398.84 75.8255 397.2 75.8255H387V72.8855H396.6C397.64 72.8855 398.44 72.6155 399 72.0755C399.58 71.5555 399.87 70.8655 399.87 70.0055C399.87 69.0055 399.49 68.1155 398.73 67.3355C397.97 66.5755 396.81 66.1955 395.25 66.1955H387V63.2555L408.21 63.2555V66.1955ZM387.63 85.9918H390.48C389.98 86.8118 389.73 87.6318 389.73 88.4518C389.73 90.0918 390.6 90.9118 392.34 90.9118H407.22V94.0018H392.46C390.6 94.0018 389.22 93.5418 388.32 92.6218C387.44 91.7218 387 90.5018 387 88.9618C387 87.7218 387.21 86.7318 387.63 85.9918ZM402.21 107.657V110.597H387V107.657H389.61C387.75 106.857 386.82 105.277 386.82 102.917C386.82 101.417 387.26 100.227 388.14 99.3467C389.04 98.4667 390.27 98.0267 391.83 98.0267H402.21V100.997H392.55C391.51 100.997 390.71 101.247 390.15 101.747C389.61 102.267 389.34 102.977 389.34 103.877C389.34 105.017 389.74 105.927 390.54 106.607C391.34 107.307 392.47 107.657 393.93 107.657H402.21ZM387 114.85H408.21V117.82H387V114.85ZM387.33 126.284L402.21 120.224V123.494L397.26 125.384L390.84 127.754C391.44 127.934 393.58 128.654 397.26 129.914L402.21 131.624V134.744L387.42 129.254C383.52 127.794 381.57 125.564 381.57 122.564C381.57 122.024 381.62 121.564 381.72 121.184L384.24 121.184C384.16 121.504 384.12 121.844 384.12 122.204C384.12 124.144 385.19 125.504 387.33 126.284ZM389.55 147.644V156.164H387V143.594H389.43C391.27 146.114 393.17 148.234 395.13 149.954C397.11 151.694 398.91 152.564 400.53 152.564C401.67 152.564 402.54 152.234 403.14 151.574C403.76 150.914 404.07 150.004 404.07 148.844C404.07 147.244 403.47 145.674 402.27 144.134H405.18C406.28 145.574 406.83 147.284 406.83 149.264C406.83 151.104 406.31 152.624 405.27 153.824C404.25 155.024 402.79 155.624 400.89 155.624C397.37 155.624 393.59 152.964 389.55 147.644ZM396.87 158.626C399.95 158.626 402.39 159.236 404.19 160.456C406.01 161.696 406.92 163.386 406.92 165.526C406.92 167.706 406.02 169.416 404.22 170.656C402.42 171.896 399.97 172.516 396.87 172.516C393.81 172.516 391.36 171.906 389.52 170.686C387.68 169.486 386.76 167.766 386.76 165.526C386.76 163.386 387.68 161.696 389.52 160.456C391.36 159.236 393.81 158.626 396.87 158.626ZM402.27 162.736C401.01 161.996 399.21 161.626 396.87 161.626C394.53 161.626 392.71 161.986 391.41 162.706C390.13 163.446 389.49 164.386 389.49 165.526C389.49 166.766 390.13 167.736 391.41 168.436C392.69 169.136 394.51 169.486 396.87 169.486C399.25 169.486 401.06 169.116 402.3 168.376C403.56 167.656 404.19 166.706 404.19 165.526C404.19 164.406 403.55 163.476 402.27 162.736ZM389.55 178.874V187.394H387L387 174.824H389.43C391.27 177.344 393.17 179.464 395.13 181.184C397.11 182.924 398.91 183.794 400.53 183.794C401.67 183.794 402.54 183.464 403.14 182.804C403.76 182.144 404.07 181.234 404.07 180.074C404.07 178.474 403.47 176.904 402.27 175.364H405.18C406.28 176.804 406.83 178.514 406.83 180.494C406.83 182.334 406.31 183.854 405.27 185.054C404.25 186.254 402.79 186.854 400.89 186.854C397.37 186.854 393.59 184.194 389.55 178.874ZM400.56 189.107H403.71L406.62 193.997V196.667H387V193.757H403.41L400.56 189.107Z" fill="#120A08"/>
<path d="M27.11 28.59V31.65C25.77 30.81 24.25 30.39 22.55 30.39C21.45 30.39 20.58 30.64 19.94 31.14C19.32 31.62 19.01 32.26 19.01 33.06C19.01 33.86 19.32 34.5 19.94 34.98C20.56 35.46 21.51 35.98 22.79 36.54C23.63 36.9 24.28 37.21 24.74 37.47C25.22 37.73 25.76 38.1 26.36 38.58C26.98 39.04 27.43 39.6 27.71 40.26C28.01 40.9 28.16 41.64 28.16 42.48C28.16 44.26 27.53 45.66 26.27 46.68C25.01 47.7 23.38 48.21 21.38 48.21C19.16 48.21 17.32 47.78 15.86 46.92V43.71C17.44 44.89 19.27 45.48 21.35 45.48C22.45 45.48 23.32 45.23 23.96 44.73C24.6 44.21 24.92 43.5 24.92 42.6C24.92 42.06 24.73 41.57 24.35 41.13C23.97 40.67 23.56 40.33 23.12 40.11C22.68 39.87 22.02 39.55 21.14 39.15C20.62 38.91 20.25 38.74 20.03 38.64C19.83 38.54 19.49 38.36 19.01 38.1C18.53 37.84 18.17 37.62 17.93 37.44C17.71 37.26 17.43 37.01 17.09 36.69C16.75 36.37 16.5 36.05 16.34 35.73C16.2 35.41 16.06 35.04 15.92 34.62C15.8 34.18 15.74 33.71 15.74 33.21C15.74 31.49 16.36 30.13 17.6 29.13C18.86 28.13 20.48 27.63 22.46 27.63C24.28 27.63 25.83 27.95 27.11 28.59ZM36.3045 40.47H42.7845L42.4545 39.45C41.6945 37.09 41.0745 35.14 40.5945 33.6C40.1145 32.04 39.8245 31.07 39.7245 30.69L39.5745 30.12C39.3545 31.06 38.3745 34.17 36.6345 39.45L36.3045 40.47ZM45.2145 48L43.6245 43.05H35.4645L33.8445 48H30.5745L37.5645 27.78H41.6145L48.5145 48H45.2145ZM67.8392 27.78L60.8492 48H57.1892L50.3792 27.78H53.6792L56.2592 35.82C56.8192 37.54 57.3292 39.19 57.7892 40.77C58.2492 42.33 58.5692 43.46 58.7492 44.16L59.0492 45.24C59.6892 42.84 60.6492 39.7 61.9292 35.82L64.5392 27.78H67.8392ZM74.0066 45.42H82.5866V48H70.9166V27.78H82.4366V30.36H74.0066V36.6H81.4766V39.18H74.0066V45.42ZM105.86 27.78V30.36H100.55V48H97.4595V30.36H92.1795V27.78H105.86ZM120.89 27.78H123.98V48H120.89V39.15H111.8V48H108.71V27.78H111.8V36.48H120.89V27.78ZM131.487 45.42H140.067V48H128.397V27.78H139.917V30.36H131.487V36.6H138.957V39.18H131.487V45.42ZM154.34 45.39H157.52C159.82 45.39 161.57 44.67 162.77 43.23C163.97 41.79 164.57 39.94 164.57 37.68C164.57 35.6 163.92 33.87 162.62 32.49C161.32 31.11 159.59 30.42 157.43 30.42H154.34V45.39ZM151.19 27.78H157.49C160.49 27.78 162.95 28.71 164.87 30.57C166.79 32.43 167.75 34.8 167.75 37.68C167.75 40.68 166.84 43.15 165.02 45.09C163.22 47.03 160.73 48 157.55 48H151.19V27.78ZM175.67 40.47H182.15L181.82 39.45C181.06 37.09 180.44 35.14 179.96 33.6C179.48 32.04 179.19 31.07 179.09 30.69L178.94 30.12C178.72 31.06 177.74 34.17 176 39.45L175.67 40.47ZM184.58 48L182.99 43.05H174.83L173.21 48H169.94L176.93 27.78H180.98L187.88 48H184.58ZM203.154 27.78V30.36H197.844V48H194.754V30.36H189.474V27.78H203.154ZM209.094 45.42H217.674V48H206.004V27.78H217.524V30.36H209.094V36.6H216.564V39.18H209.094V45.42Z" fill="#120A08"/>
<path d="M94.2768 288.5C41.2768 187 118.777 86 210.777 88.5C155.277 127.5 98.2768 219 94.2768 288.5Z" fill="url(#paint0_linear)"/>
<path d="M94.2768 288.5C41.2768 187 118.777 86 210.777 88.5M94.2768 288.5C81.3793 187.5 128.777 116.282 210.777 88.5M94.2768 288.5C98.2768 219 155.277 127.5 210.777 88.5" stroke="#FDF8F8" stroke-width="2"/>
<path d="M210.777 88.5C310.277 88.5 376.777 188 326.777 288C314.277 189.5 262.777 122 210.777 88.5Z" fill="url(#paint1_linear)"/>
<path d="M210.777 88.5C310.277 88.5 376.777 188 326.777 288M210.777 88.5C311.277 117.5 336.777 202.5 326.777 288M210.777 88.5C262.777 122 314.277 189.5 326.777 288" stroke="#FDF8F8" stroke-width="2"/>
<path d="M325.777 289.5C263.009 385.268 136.498 369.569 93.8165 288.031C154.93 317.466 263.15 319.9 325.777 289.5Z" fill="url(#paint2_linear)"/>
<path d="M325.777 289.5C263.009 385.268 136.498 369.569 93.8165 288.031M325.777 289.5C243.89 350.013 158.059 346.072 93.8165 288.031M325.777 289.5C263.15 319.9 154.93 317.466 93.8165 288.031" stroke="#FDF8F8" stroke-width="2"/>
<path d="M369.44 26.768C371.136 26.768 372.485 27.2 373.488 28.064C374.491 28.9387 374.992 30.1173 374.992 31.6C374.992 33.1147 374.491 34.2987 373.488 35.152C372.496 36.016 371.147 36.448 369.44 36.448C367.744 36.448 366.389 36.0107 365.376 35.136C364.373 34.272 363.872 33.0987 363.872 31.616C363.872 30.1547 364.379 28.9813 365.392 28.096C366.405 27.2107 367.755 26.768 369.44 26.768ZM369.44 28.128C368.107 28.128 367.051 28.4427 366.272 29.072C365.493 29.712 365.104 30.56 365.104 31.616C365.104 32.7147 365.488 33.5627 366.256 34.16C367.024 34.768 368.085 35.072 369.44 35.072C370.795 35.072 371.856 34.768 372.624 34.16C373.392 33.552 373.776 32.6987 373.776 31.6C373.776 30.512 373.387 29.6587 372.608 29.04C371.84 28.432 370.784 28.128 369.44 28.128ZM364 38.4351H375.312V39.6991H364V38.4351ZM364 42.1695H372.112V43.4335H364V42.1695ZM374.064 42.2015C374.224 42.0522 374.421 41.9775 374.656 41.9775C374.891 41.9775 375.088 42.0522 375.248 42.2015C375.408 42.3615 375.488 42.5588 375.488 42.7935C375.488 43.0282 375.408 43.2255 375.248 43.3855C375.088 43.5455 374.891 43.6255 374.656 43.6255C374.421 43.6255 374.224 43.5455 374.064 43.3855C373.915 43.2255 373.84 43.0282 373.84 42.7935C373.84 42.5588 373.915 42.3615 374.064 42.2015ZM364 47.9039L372.112 45.0719V46.3839L368.688 47.5039L364.992 48.6879C365.451 48.7839 366.683 49.1839 368.688 49.8879L372.112 51.0399V52.3519L364 49.4559V47.9039ZM364 53.982H372.112V55.246H364V53.982ZM374.064 54.014C374.224 53.8647 374.421 53.79 374.656 53.79C374.891 53.79 375.088 53.8647 375.248 54.014C375.408 54.174 375.488 54.3713 375.488 54.606C375.488 54.8407 375.408 55.038 375.248 55.198C375.088 55.358 374.891 55.438 374.656 55.438C374.421 55.438 374.224 55.358 374.064 55.198C373.915 55.038 373.84 54.8407 373.84 54.606C373.84 54.3713 373.915 54.174 374.064 54.014ZM367.744 62.0204V60.6124C367.744 59.9297 367.611 59.4177 367.344 59.0764C367.077 58.735 366.741 58.5644 366.336 58.5644C365.931 58.5644 365.6 58.6977 365.344 58.9644C365.099 59.231 364.976 59.6204 364.976 60.1324C364.976 60.7084 365.136 61.167 365.456 61.5084C365.787 61.8497 366.203 62.0204 366.704 62.0204H367.744ZM370.416 57.8284H371.68C372.053 58.4364 372.24 59.2364 372.24 60.2284C372.24 62.2657 371.205 63.2844 369.136 63.2844H364V62.0364H364.96C364.267 61.6204 363.92 60.863 363.92 59.7644C363.92 59.007 364.144 58.3937 364.592 57.9244C365.04 57.4657 365.605 57.2364 366.288 57.2364C367.067 57.2364 367.669 57.5297 368.096 58.1164C368.533 58.7137 368.752 59.5244 368.752 60.5484V62.0204H369.168C369.808 62.0204 370.288 61.8764 370.608 61.5884C370.939 61.3004 371.104 60.815 371.104 60.1324C371.104 59.2684 370.875 58.5004 370.416 57.8284ZM365.04 73.3056C365.04 74.3083 365.307 75.1403 365.84 75.8016C366.192 75.4283 366.597 74.991 367.056 74.4896C367.525 73.9883 367.904 73.5776 368.192 73.2576C368.48 72.9483 368.677 72.7403 368.784 72.6336C368.528 71.951 368.245 71.4443 367.936 71.1136C367.627 70.783 367.259 70.6176 366.832 70.6176C366.288 70.6176 365.851 70.8683 365.52 71.3696C365.2 71.871 365.04 72.5163 365.04 73.3056ZM373.888 73.3536C373.888 72.8736 373.749 72.4736 373.472 72.1536C373.205 71.8443 372.832 71.6896 372.352 71.6896C372.011 71.6896 371.669 71.7856 371.328 71.9776C370.997 72.1803 370.571 72.5376 370.048 73.0496C370.379 73.7643 370.715 74.2816 371.056 74.6016C371.408 74.9323 371.808 75.0976 372.256 75.0976C372.715 75.0976 373.099 74.9483 373.408 74.6496C373.728 74.351 373.888 73.919 373.888 73.3536ZM364 79.4816V77.7696L365.008 76.6816C364.251 75.8176 363.872 74.703 363.872 73.3376C363.872 72.1323 364.144 71.1563 364.688 70.4096C365.243 69.6736 365.952 69.3056 366.816 69.3056C368.021 69.3056 368.944 70.1483 369.584 71.8336C370.128 71.3323 370.608 70.9643 371.024 70.7296C371.451 70.495 371.899 70.3776 372.368 70.3776C373.168 70.3776 373.813 70.6496 374.304 71.1936C374.795 71.7376 375.04 72.463 375.04 73.3696C375.04 74.2763 374.773 75.007 374.24 75.5616C373.717 76.1163 373.061 76.3936 372.272 76.3936C371.664 76.3936 371.115 76.1963 370.624 75.8016C370.133 75.4176 369.675 74.767 369.248 73.8496L366.72 76.5536C367.189 76.8096 367.712 76.959 368.288 77.0016V78.2176C367.371 78.1536 366.571 77.8976 365.888 77.4496L364 79.4816ZM367.936 86.7019V90.5259L368.56 90.3179L373.744 88.6379C373.285 88.5099 371.552 87.9339 368.544 86.9099L367.936 86.7019ZM364 91.8379L366.832 90.8939V86.3339L364 85.3739V83.9819L374.784 87.7419V89.5339L364 93.2299V91.8379ZM372.112 96.2129H370.688C371.691 96.6395 372.192 97.3755 372.192 98.4209C372.192 98.6129 372.181 98.7622 372.16 98.8689H370.912C370.987 98.6449 371.024 98.4155 371.024 98.1809C371.024 97.6155 370.763 97.1462 370.24 96.7729C369.717 96.3995 369.115 96.2129 368.432 96.2129H364V94.9489L372.112 94.9649V96.2129ZM367.744 104.552V103.144C367.744 102.461 367.611 101.949 367.344 101.608C367.077 101.266 366.741 101.096 366.336 101.096C365.931 101.096 365.6 101.229 365.344 101.496C365.099 101.762 364.976 102.152 364.976 102.664C364.976 103.24 365.136 103.698 365.456 104.04C365.787 104.381 366.203 104.552 366.704 104.552H367.744ZM370.416 100.36H371.68C372.053 100.968 372.24 101.768 372.24 102.76C372.24 104.797 371.205 105.816 369.136 105.816H364V104.568H364.96C364.267 104.152 363.92 103.394 363.92 102.296C363.92 101.538 364.144 100.925 364.592 100.456C365.04 99.997 365.605 99.7676 366.288 99.7676C367.067 99.7676 367.669 100.061 368.096 100.648C368.533 101.245 368.752 102.056 368.752 103.08V104.552H369.168C369.808 104.552 370.288 104.408 370.608 104.12C370.939 103.832 371.104 103.346 371.104 102.664C371.104 101.8 370.875 101.032 370.416 100.36ZM364 110.123L372.112 107.291V108.603L368.688 109.723L364.992 110.907C365.451 111.003 366.683 111.403 368.688 112.107L372.112 113.259V114.571L364 111.675V110.123ZM371.536 115.161L375.12 116.505V118.073L371.536 116.153V115.161ZM371.84 123.443H370.64C370.939 122.953 371.088 122.281 371.088 121.427C371.088 121.001 370.987 120.659 370.784 120.403C370.592 120.158 370.341 120.035 370.032 120.035C369.84 120.035 369.669 120.073 369.52 120.147C369.381 120.222 369.243 120.366 369.104 120.579C368.965 120.803 368.869 120.963 368.816 121.059C368.773 121.166 368.677 121.39 368.528 121.731C368.251 122.414 367.936 122.947 367.584 123.331C367.232 123.715 366.757 123.907 366.16 123.907C365.467 123.907 364.917 123.662 364.512 123.171C364.107 122.691 363.904 122.03 363.904 121.187C363.904 120.206 364.069 119.411 364.4 118.803H365.632C365.205 119.518 364.992 120.286 364.992 121.107C364.992 121.598 365.088 121.971 365.28 122.227C365.472 122.483 365.733 122.611 366.064 122.611C366.448 122.611 366.747 122.467 366.96 122.179C367.173 121.902 367.413 121.433 367.68 120.771C367.915 120.163 368.208 119.673 368.56 119.299C368.912 118.937 369.387 118.755 369.984 118.755C370.656 118.755 371.189 119.006 371.584 119.507C371.989 120.019 372.192 120.654 372.192 121.411C372.192 122.254 372.075 122.931 371.84 123.443ZM374.624 135.271V136.567L370.784 137.751L365.312 139.383C367.669 139.874 369.488 140.269 370.768 140.567L374.784 141.479V142.791L364 140.263V138.599L367.408 137.559L372.8 135.943C371.541 135.613 369.744 135.101 367.408 134.407L364 133.399V131.751L374.784 128.935V130.295L370.784 131.303L365.36 132.631C367.547 133.229 369.355 133.735 370.784 134.151L374.624 135.271ZM368.576 149.711H368.896C369.568 149.711 370.101 149.53 370.496 149.167C370.901 148.804 371.104 148.303 371.104 147.663C371.104 147.055 370.885 146.538 370.448 146.111C370.011 145.684 369.387 145.434 368.576 145.359V149.711ZM365.6 150.463H364.416C364.085 149.834 363.92 149.066 363.92 148.159C363.92 146.932 364.293 145.94 365.04 145.183C365.797 144.436 366.795 144.063 368.032 144.063C369.323 144.063 370.341 144.399 371.088 145.071C371.835 145.743 372.208 146.607 372.208 147.663C372.208 148.676 371.883 149.482 371.232 150.079C370.581 150.676 369.659 150.975 368.464 150.975C368.123 150.975 367.808 150.948 367.52 150.895V145.359C366.72 145.455 366.107 145.759 365.68 146.271C365.253 146.783 365.04 147.455 365.04 148.287C365.04 149.194 365.227 149.919 365.6 150.463ZM365.024 155.99C365.024 156.652 365.269 157.212 365.76 157.67C366.251 158.14 367.035 158.374 368.112 158.374C369.136 158.374 369.888 158.134 370.368 157.654C370.848 157.174 371.088 156.646 371.088 156.07C371.088 155.398 370.816 154.838 370.272 154.39C369.739 153.953 368.971 153.734 367.968 153.734C367.093 153.734 366.384 153.948 365.84 154.374C365.296 154.801 365.024 155.34 365.024 155.99ZM375.312 158.374V159.638H364V158.374H365.2C364.315 157.798 363.872 156.966 363.872 155.878C363.872 154.801 364.272 153.953 365.072 153.334C365.872 152.726 366.843 152.422 367.984 152.422C369.253 152.422 370.277 152.748 371.056 153.398C371.845 154.049 372.24 154.886 372.24 155.91C372.24 156.966 371.787 157.788 370.88 158.374H375.312ZM365.024 165.069C365.024 165.73 365.269 166.29 365.76 166.749C366.251 167.218 367.035 167.453 368.112 167.453C369.136 167.453 369.888 167.213 370.368 166.733C370.848 166.253 371.088 165.725 371.088 165.149C371.088 164.477 370.816 163.917 370.272 163.469C369.739 163.031 368.971 162.812 367.968 162.812C367.093 162.812 366.384 163.026 365.84 163.453C365.296 163.879 365.024 164.418 365.024 165.069ZM375.312 167.453V168.717H364V167.453H365.2C364.315 166.877 363.872 166.045 363.872 164.957C363.872 163.879 364.272 163.031 365.072 162.413C365.872 161.805 366.843 161.501 367.984 161.501C369.253 161.501 370.277 161.826 371.056 162.477C371.845 163.127 372.24 163.965 372.24 164.989C372.24 166.045 371.787 166.866 370.88 167.453H375.312ZM364 171.123H372.112V172.387H364V171.123ZM374.064 171.155C374.224 171.005 374.421 170.931 374.656 170.931C374.891 170.931 375.088 171.005 375.248 171.155C375.408 171.315 375.488 171.512 375.488 171.747C375.488 171.981 375.408 172.179 375.248 172.339C375.088 172.499 374.891 172.579 374.656 172.579C374.421 172.579 374.224 172.499 374.064 172.339C373.915 172.179 373.84 171.981 373.84 171.747C373.84 171.512 373.915 171.315 374.064 171.155ZM372.112 176.041H370.704C371.717 176.521 372.224 177.374 372.224 178.601C372.224 179.39 371.984 180.02 371.504 180.489C371.024 180.958 370.384 181.193 369.584 181.193H364V179.929H369.248C369.845 179.929 370.299 179.774 370.608 179.465C370.928 179.166 371.088 178.772 371.088 178.281C371.088 177.673 370.853 177.145 370.384 176.697C369.915 176.26 369.264 176.041 368.432 176.041H364V174.793H372.112V176.041ZM365.328 186.474C365.328 187.06 365.552 187.578 366 188.026C366.459 188.484 367.136 188.714 368.032 188.714C369.067 188.714 369.835 188.495 370.336 188.058C370.837 187.62 371.088 187.114 371.088 186.538C371.088 185.844 370.811 185.295 370.256 184.89C369.712 184.484 368.997 184.282 368.112 184.282C367.205 184.282 366.512 184.506 366.032 184.954C365.563 185.402 365.328 185.908 365.328 186.474ZM372.112 188.714V189.978H364.656C363.419 189.978 362.491 189.636 361.872 188.954C361.243 188.271 360.928 187.391 360.928 186.314C360.928 185.332 361.093 184.495 361.424 183.802H362.688C362.293 184.484 362.096 185.284 362.096 186.202C362.096 186.98 362.304 187.594 362.72 188.042C363.136 188.49 363.787 188.714 364.672 188.714H365.584C364.667 188.18 364.208 187.386 364.208 186.33C364.208 185.402 364.549 184.607 365.232 183.946C365.915 183.295 366.864 182.97 368.08 182.97C369.285 182.97 370.277 183.274 371.056 183.882C371.835 184.49 372.224 185.284 372.224 186.266C372.224 187.375 371.739 188.191 370.768 188.714H372.112Z" fill="#120A08"/>
<path d="M112.277 289H95.2769L106.777 269H122.277L112.277 289Z" fill="#FD6666" stroke="#FDF8F8"/>
<path d="M122.277 269H106.777L116.777 251.5L130.277 252L122.277 269Z" fill="#FD6666" stroke="#FDF8F8"/>
<path d="M130.277 252L116.777 251.5L125.277 236.5H138.277L130.277 252Z" fill="#FD6666" stroke="#FDF8F8"/>
<path d="M137.777 237.5H124.777L133.777 222L145.277 222.5L137.777 237.5Z" fill="#FD7866" stroke="#FDF8F8"/>
<path d="M145.277 222L133.777 221.5L141.277 209H151.777L145.277 222Z" fill="#FD8A66" stroke="#FDF8F8"/>
<path d="M151.777 209H141.277L148.277 196.5H157.777L151.777 209Z" fill="#FD9366" stroke="#FDF8F8"/>
<path d="M158.277 196.5H148.277L156.277 183H164.777L158.277 196.5Z" fill="#FD9C66" stroke="#FDF8F8"/>
<path d="M164.777 183H156.277L163.777 169.5H171.277L164.777 183Z" fill="#FD9C66" stroke="#FDF8F8"/>
<path d="M171.277 169.5H163.777L172.277 155H178.777L171.277 169.5Z" fill="#FDAE66" stroke="#FDF8F8"/>
<path d="M178.277 155H172.277L178.777 144H183.777L178.277 155Z" fill="#FDC066" stroke="#FDF8F8"/>
<path d="M183.777 144H178.777L185.277 133H189.277L183.777 144Z" fill="#FDD366" stroke="#FDF8F8"/>
<path d="M189.277 133H185.277L191.277 122H194.777L189.277 133Z" fill="#FDE566" stroke="#FDF8F8"/>
<path d="M14.216 396.027H15.352V398.939H25V400.235H15.352V403.147H14.216V396.027ZM13.688 393.301H18.296C17.2827 392.821 16.776 391.967 16.776 390.741C16.776 389.962 17.016 389.338 17.496 388.869C17.976 388.389 18.6267 388.149 19.448 388.149H25V389.413H19.752C19.1653 389.413 18.712 389.567 18.392 389.877C18.072 390.175 17.912 390.57 17.912 391.061C17.912 391.658 18.1413 392.181 18.6 392.629C19.0587 393.077 19.7147 393.301 20.568 393.301H25V394.549H13.688V393.301ZM20.424 380.74H20.104C19.432 380.74 18.8987 380.921 18.504 381.284C18.0987 381.647 17.896 382.148 17.896 382.788C17.896 383.396 18.1147 383.913 18.552 384.34C18.9893 384.767 19.6133 385.017 20.424 385.092V380.74ZM23.4 379.988H24.584C24.9147 380.617 25.08 381.385 25.08 382.292C25.08 383.519 24.7067 384.511 23.96 385.268C23.2027 386.015 22.2053 386.388 20.968 386.388C19.6773 386.388 18.6587 386.052 17.912 385.38C17.1653 384.708 16.792 383.844 16.792 382.788C16.792 381.775 17.1173 380.969 17.768 380.372C18.4187 379.775 19.3413 379.476 20.536 379.476C20.8773 379.476 21.192 379.503 21.48 379.556V385.092C22.28 384.996 22.8933 384.692 23.32 384.18C23.7467 383.668 23.96 382.996 23.96 382.164C23.96 381.257 23.7733 380.532 23.4 379.988ZM25 373.69L14.216 372.906V371.258L18.152 369.834L23.176 368.106C21.4267 367.488 19.752 366.88 18.152 366.282L14.216 364.794V363.146L25 362.202V363.498L20.744 363.866L15.96 364.25C17.5387 364.816 19.1333 365.397 20.744 365.994L24.76 367.498V368.73L20.744 370.154L16.056 371.786C16.472 371.786 18.0347 371.888 20.744 372.09L25 372.394V373.69ZM21.256 355.556V356.964C21.256 357.646 21.3893 358.158 21.656 358.5C21.9227 358.841 22.2587 359.012 22.664 359.012C23.0693 359.012 23.4 358.878 23.656 358.612C23.9013 358.345 24.024 357.956 24.024 357.444C24.024 356.868 23.864 356.409 23.544 356.068C23.2133 355.726 22.7973 355.556 22.296 355.556H21.256ZM18.584 359.748H17.32C16.9467 359.14 16.76 358.34 16.76 357.348C16.76 355.31 17.7947 354.292 19.864 354.292H25V355.54H24.04C24.7333 355.956 25.08 356.713 25.08 357.812C25.08 358.569 24.856 359.182 24.408 359.652C23.96 360.11 23.3947 360.34 22.712 360.34C21.9333 360.34 21.3307 360.046 20.904 359.46C20.4667 358.862 20.248 358.052 20.248 357.028V355.556H19.832C19.192 355.556 18.712 355.7 18.392 355.988C18.0613 356.276 17.896 356.761 17.896 357.444C17.896 358.308 18.1253 359.076 18.584 359.748ZM17.16 347.633H18.36C18.0613 348.123 17.912 348.795 17.912 349.649C17.912 350.075 18.0133 350.417 18.216 350.673C18.408 350.918 18.6587 351.041 18.968 351.041C19.16 351.041 19.3307 351.003 19.48 350.929C19.6187 350.854 19.7573 350.71 19.896 350.497C20.0347 350.273 20.1307 350.113 20.184 350.017C20.2267 349.91 20.3227 349.686 20.472 349.345C20.7493 348.662 21.064 348.129 21.416 347.745C21.768 347.361 22.2427 347.169 22.84 347.169C23.5333 347.169 24.0827 347.414 24.488 347.905C24.8933 348.385 25.096 349.046 25.096 349.889C25.096 350.87 24.9307 351.665 24.6 352.273H23.368C23.7947 351.558 24.008 350.79 24.008 349.969C24.008 349.478 23.912 349.105 23.72 348.849C23.528 348.593 23.2667 348.465 22.936 348.465C22.552 348.465 22.2533 348.609 22.04 348.897C21.8267 349.174 21.5867 349.643 21.32 350.305C21.0853 350.913 20.792 351.403 20.44 351.777C20.088 352.139 19.6133 352.321 19.016 352.321C18.344 352.321 17.8107 352.07 17.416 351.569C17.0107 351.057 16.808 350.422 16.808 349.665C16.808 348.822 16.9253 348.145 17.16 347.633ZM17.912 343.711H22.664C23.528 343.711 23.96 343.305 23.96 342.495C23.96 342.079 23.8373 341.711 23.592 341.391H24.792C24.984 341.743 25.08 342.137 25.08 342.575C25.08 344.175 24.264 344.975 22.632 344.975H17.912V346.271H16.888V344.975H14.872V343.711H16.888V341.471H17.912V343.711ZM20.424 334.381H20.104C19.432 334.381 18.8987 334.562 18.504 334.925C18.0987 335.287 17.896 335.789 17.896 336.429C17.896 337.037 18.1147 337.554 18.552 337.981C18.9893 338.407 19.6133 338.658 20.424 338.733V334.381ZM23.4 333.629H24.584C24.9147 334.258 25.08 335.026 25.08 335.933C25.08 337.159 24.7067 338.151 23.96 338.909C23.2027 339.655 22.2053 340.029 20.968 340.029C19.6773 340.029 18.6587 339.693 17.912 339.021C17.1653 338.349 16.792 337.485 16.792 336.429C16.792 335.415 17.1173 334.61 17.768 334.013C18.4187 333.415 19.3413 333.117 20.536 333.117C20.8773 333.117 21.192 333.143 21.48 333.197V338.733C22.28 338.637 22.8933 338.333 23.32 337.821C23.7467 337.309 23.96 336.637 23.96 335.805C23.96 334.898 23.7733 334.173 23.4 333.629ZM16.888 329.941H18.312C17.3093 329.515 16.808 328.779 16.808 327.733C16.808 327.541 16.8187 327.392 16.84 327.285H18.088C18.0133 327.509 17.976 327.739 17.976 327.973C17.976 328.539 18.2373 329.008 18.76 329.381C19.2827 329.755 19.8853 329.941 20.568 329.941H25V331.205L16.888 331.189V329.941ZM14.616 316.352H15.976C15.5493 317.003 15.336 317.782 15.336 318.688C15.336 319.339 15.4907 319.856 15.8 320.24C16.0987 320.624 16.4933 320.816 16.984 320.816C17.24 320.816 17.4693 320.768 17.672 320.672C17.8747 320.566 18.0667 320.384 18.248 320.128C18.4187 319.872 18.552 319.654 18.648 319.472C18.7333 319.291 18.8613 319.008 19.032 318.624C19.192 318.262 19.32 317.984 19.416 317.792C19.5013 317.6 19.6453 317.355 19.848 317.056C20.04 316.747 20.232 316.518 20.424 316.368C20.6053 316.208 20.8507 316.07 21.16 315.952C21.4587 315.824 21.784 315.76 22.136 315.76C23.0853 315.76 23.8213 316.086 24.344 316.736C24.856 317.387 25.112 318.224 25.112 319.248C25.112 320.379 24.8827 321.339 24.424 322.128H23.032C23.6187 321.35 23.912 320.4 23.912 319.28C23.912 318.608 23.7627 318.08 23.464 317.696C23.1653 317.312 22.7333 317.12 22.168 317.12C21.9333 317.12 21.7253 317.168 21.544 317.264C21.352 317.35 21.1813 317.499 21.032 317.712C20.872 317.915 20.744 318.112 20.648 318.304C20.5413 318.486 20.4133 318.736 20.264 319.056C20.232 319.12 20.1893 319.216 20.136 319.344C19.9333 319.803 19.768 320.155 19.64 320.4C19.512 320.635 19.3253 320.918 19.08 321.248C18.824 321.568 18.5307 321.803 18.2 321.952C17.8693 322.102 17.4853 322.176 17.048 322.176C16.1307 322.176 15.416 321.851 14.904 321.2C14.3813 320.539 14.12 319.712 14.12 318.72C14.12 317.792 14.2853 317.003 14.616 316.352ZM13.688 312.426H18.296C17.2827 311.946 16.776 311.092 16.776 309.866C16.776 309.087 17.016 308.463 17.496 307.994C17.976 307.514 18.6267 307.274 19.448 307.274H25V308.538H19.752C19.1653 308.538 18.712 308.692 18.392 309.002C18.072 309.3 17.912 309.695 17.912 310.186C17.912 310.783 18.1413 311.306 18.6 311.754C19.0587 312.202 19.7147 312.426 20.568 312.426H25V313.674H13.688V312.426ZM25 304.969H16.888V303.705H25V304.969ZM14.936 304.937C14.776 305.086 14.5787 305.161 14.344 305.161C14.1093 305.161 13.912 305.086 13.752 304.937C13.592 304.777 13.512 304.58 13.512 304.345C13.512 304.11 13.592 303.913 13.752 303.753C13.912 303.593 14.1093 303.513 14.344 303.513C14.5787 303.513 14.776 303.593 14.936 303.753C15.0853 303.913 15.16 304.11 15.16 304.345C15.16 304.58 15.0853 304.777 14.936 304.937ZM23.976 297.731C23.976 297.048 23.7093 296.488 23.176 296.051C22.632 295.613 21.864 295.395 20.872 295.395C19.9867 295.395 19.272 295.608 18.728 296.035C18.184 296.461 17.912 297 17.912 297.651C17.912 298.301 18.152 298.867 18.632 299.347C19.1013 299.816 19.8747 300.051 20.952 300.051C21.9867 300.051 22.7493 299.811 23.24 299.331C23.7307 298.851 23.976 298.317 23.976 297.731ZM16.888 300.051H18.12C17.2133 299.485 16.76 298.648 16.76 297.539C16.76 296.461 17.1547 295.619 17.944 295.011C18.7227 294.392 19.6987 294.083 20.872 294.083C22.12 294.083 23.144 294.408 23.944 295.059C24.7333 295.699 25.128 296.536 25.128 297.571C25.128 298.637 24.6747 299.464 23.768 300.051H28.152V301.299H16.888V300.051ZM25 290.492L16.888 292.988V291.644L19.576 290.86C20.5147 290.583 21.336 290.354 22.04 290.172C22.7333 289.98 23.1973 289.858 23.432 289.804L23.768 289.724C23.0853 289.564 21.6827 289.175 19.56 288.556L16.888 287.788V286.444L19.56 285.66L23.784 284.46C23.1547 284.311 21.7467 283.9 19.56 283.228L16.888 282.412V281.116L25 283.676V285.228L22.344 285.996L18.296 287.116C18.9787 287.276 20.328 287.639 22.344 288.204L25 288.94V290.492ZM16.888 278.301H18.312C17.3093 277.874 16.808 277.138 16.808 276.093C16.808 275.901 16.8187 275.751 16.84 275.645H18.088C18.0133 275.869 17.976 276.098 17.976 276.333C17.976 276.898 18.2373 277.367 18.76 277.741C19.2827 278.114 19.8853 278.301 20.568 278.301H25V279.565L16.888 279.549V278.301ZM25 274.266H16.888V273.002H25V274.266ZM14.936 274.234C14.776 274.383 14.5787 274.458 14.344 274.458C14.1093 274.458 13.912 274.383 13.752 274.234C13.592 274.074 13.512 273.876 13.512 273.642C13.512 273.407 13.592 273.21 13.752 273.05C13.912 272.89 14.1093 272.81 14.344 272.81C14.5787 272.81 14.776 272.89 14.936 273.05C15.0853 273.21 15.16 273.407 15.16 273.642C15.16 273.876 15.0853 274.074 14.936 274.234ZM23.672 267.555C23.672 266.969 23.448 266.451 23 266.003C22.5413 265.545 21.864 265.315 20.968 265.315C19.9333 265.315 19.1653 265.534 18.664 265.971C18.1627 266.409 17.912 266.915 17.912 267.491C17.912 268.185 18.1893 268.734 18.744 269.139C19.288 269.545 20.0027 269.747 20.888 269.747C21.7947 269.747 22.488 269.523 22.968 269.075C23.4373 268.627 23.672 268.121 23.672 267.555ZM16.888 265.315V264.051H24.344C25.5813 264.051 26.5093 264.393 27.128 265.075C27.7573 265.758 28.072 266.638 28.072 267.715C28.072 268.697 27.9067 269.534 27.576 270.227H26.312C26.7067 269.545 26.904 268.745 26.904 267.827C26.904 267.049 26.696 266.435 26.28 265.987C25.864 265.539 25.2133 265.315 24.328 265.315H23.416C24.3333 265.849 24.792 266.643 24.792 267.699C24.792 268.627 24.4507 269.422 23.768 270.083C23.0853 270.734 22.136 271.059 20.92 271.059C19.7147 271.059 18.7227 270.755 17.944 270.147C17.1653 269.539 16.776 268.745 16.776 267.763C16.776 266.654 17.2613 265.838 18.232 265.315H16.888ZM13.688 260.566H18.296C17.2827 260.086 16.776 259.233 16.776 258.006C16.776 257.228 17.016 256.604 17.496 256.134C17.976 255.654 18.6267 255.414 19.448 255.414H25V256.678H19.752C19.1653 256.678 18.712 256.833 18.392 257.142C18.072 257.441 17.912 257.836 17.912 258.326C17.912 258.924 18.1413 259.446 18.6 259.894C19.0587 260.342 19.7147 260.566 20.568 260.566H25V261.814H13.688V260.566ZM17.912 251.43H22.664C23.528 251.43 23.96 251.024 23.96 250.214C23.96 249.798 23.8373 249.43 23.592 249.11H24.792C24.984 249.462 25.08 249.856 25.08 250.294C25.08 251.894 24.264 252.694 22.632 252.694H17.912V253.99H16.888V252.694H14.872V251.43H16.888V249.19H17.912V251.43ZM17.16 242.851H18.36C18.0613 243.342 17.912 244.014 17.912 244.867C17.912 245.294 18.0133 245.635 18.216 245.891C18.408 246.137 18.6587 246.259 18.968 246.259C19.16 246.259 19.3307 246.222 19.48 246.147C19.6187 246.073 19.7573 245.929 19.896 245.715C20.0347 245.491 20.1307 245.331 20.184 245.235C20.2267 245.129 20.3227 244.905 20.472 244.563C20.7493 243.881 21.064 243.347 21.416 242.963C21.768 242.579 22.2427 242.387 22.84 242.387C23.5333 242.387 24.0827 242.633 24.488 243.123C24.8933 243.603 25.096 244.265 25.096 245.107C25.096 246.089 24.9307 246.883 24.6 247.491H23.368C23.7947 246.777 24.008 246.009 24.008 245.187C24.008 244.697 23.912 244.323 23.72 244.067C23.528 243.811 23.2667 243.683 22.936 243.683C22.552 243.683 22.2533 243.827 22.04 244.115C21.8267 244.393 21.5867 244.862 21.32 245.523C21.0853 246.131 20.792 246.622 20.44 246.995C20.088 247.358 19.6133 247.539 19.016 247.539C18.344 247.539 17.8107 247.289 17.416 246.787C17.0107 246.275 16.808 245.641 16.808 244.883C16.808 244.041 16.9253 243.363 17.16 242.851ZM14.216 230.175V228.879H25V230.175H20.12V235.407H25V236.703H14.216V235.407H18.952V230.175H14.216ZM25.144 223.19C25.144 224.353 24.7547 225.275 23.976 225.958C23.1867 226.63 22.1947 226.966 21 226.966C19.7947 226.966 18.792 226.619 17.992 225.926C17.1813 225.222 16.776 224.31 16.776 223.19C16.776 221.963 17.1707 221.019 17.96 220.358C18.7493 219.686 19.752 219.35 20.968 219.35C22.1733 219.35 23.1707 219.691 23.96 220.374C24.7493 221.057 25.144 221.995 25.144 223.19ZM17.896 223.19C17.896 223.958 18.1947 224.561 18.792 224.998C19.3893 225.435 20.12 225.654 20.984 225.654C21.8267 225.654 22.5467 225.43 23.144 224.982C23.7307 224.534 24.024 223.937 24.024 223.19C24.024 222.379 23.736 221.755 23.16 221.318C22.5733 220.881 21.848 220.662 20.984 220.662C20.088 220.662 19.352 220.87 18.776 221.286C18.1893 221.702 17.896 222.337 17.896 223.19ZM16.888 212.462V211.198H25V212.462H23.592C24.5947 212.888 25.096 213.736 25.096 215.006C25.096 215.806 24.8613 216.44 24.392 216.91C23.912 217.368 23.272 217.598 22.472 217.598H16.888V216.334H22.152C22.7387 216.334 23.1867 216.184 23.496 215.886C23.8053 215.587 23.96 215.182 23.96 214.67C23.96 213.998 23.7253 213.464 23.256 213.07C22.7867 212.664 22.152 212.462 21.352 212.462H16.888ZM17.16 204.445H18.36C18.0613 204.936 17.912 205.608 17.912 206.461C17.912 206.888 18.0133 207.229 18.216 207.485C18.408 207.73 18.6587 207.853 18.968 207.853C19.16 207.853 19.3307 207.816 19.48 207.741C19.6187 207.666 19.7573 207.522 19.896 207.309C20.0347 207.085 20.1307 206.925 20.184 206.829C20.2267 206.722 20.3227 206.498 20.472 206.157C20.7493 205.474 21.064 204.941 21.416 204.557C21.768 204.173 22.2427 203.981 22.84 203.981C23.5333 203.981 24.0827 204.226 24.488 204.717C24.8933 205.197 25.096 205.858 25.096 206.701C25.096 207.682 24.9307 208.477 24.6 209.085H23.368C23.7947 208.37 24.008 207.602 24.008 206.781C24.008 206.29 23.912 205.917 23.72 205.661C23.528 205.405 23.2667 205.277 22.936 205.277C22.552 205.277 22.2533 205.421 22.04 205.709C21.8267 205.986 21.5867 206.456 21.32 207.117C21.0853 207.725 20.792 208.216 20.44 208.589C20.088 208.952 19.6133 209.133 19.016 209.133C18.344 209.133 17.8107 208.882 17.416 208.381C17.0107 207.869 16.808 207.234 16.808 206.477C16.808 205.634 16.9253 204.957 17.16 204.445ZM20.424 197.099H20.104C19.432 197.099 18.8987 197.281 18.504 197.643C18.0987 198.006 17.896 198.507 17.896 199.147C17.896 199.755 18.1147 200.273 18.552 200.699C18.9893 201.126 19.6133 201.377 20.424 201.451V197.099ZM23.4 196.347H24.584C24.9147 196.977 25.08 197.745 25.08 198.651C25.08 199.878 24.7067 200.87 23.96 201.627C23.2027 202.374 22.2053 202.747 20.968 202.747C19.6773 202.747 18.6587 202.411 17.912 201.739C17.1653 201.067 16.792 200.203 16.792 199.147C16.792 198.134 17.1173 197.329 17.768 196.731C18.4187 196.134 19.3413 195.835 20.536 195.835C20.8773 195.835 21.192 195.862 21.48 195.915V201.451C22.28 201.355 22.8933 201.051 23.32 200.539C23.7467 200.027 23.96 199.355 23.96 198.523C23.96 197.617 23.7733 196.891 23.4 196.347ZM49.864 400.891V398.955C49.864 397.622 49.4533 396.614 48.632 395.931C47.8 395.249 46.7653 394.907 45.528 394.907C44.3547 394.907 43.368 395.291 42.568 396.059C41.768 396.817 41.368 397.803 41.368 399.019V400.891H49.864ZM40.216 402.203V399.003C40.216 397.414 40.712 396.113 41.704 395.099C42.6853 394.075 43.96 393.563 45.528 393.563C47.0853 393.563 48.3867 394.038 49.432 394.987C50.4773 395.926 51 397.243 51 398.939V402.203H40.216ZM46.424 386.521H46.104C45.432 386.521 44.8987 386.703 44.504 387.065C44.0987 387.428 43.896 387.929 43.896 388.569C43.896 389.177 44.1147 389.695 44.552 390.121C44.9893 390.548 45.6133 390.799 46.424 390.873V386.521ZM49.4 385.769H50.584C50.9147 386.399 51.08 387.167 51.08 388.073C51.08 389.3 50.7067 390.292 49.96 391.049C49.2027 391.796 48.2053 392.169 46.968 392.169C45.6773 392.169 44.6587 391.833 43.912 391.161C43.1653 390.489 42.792 389.625 42.792 388.569C42.792 387.556 43.1173 386.751 43.768 386.153C44.4187 385.556 45.3413 385.257 46.536 385.257C46.8773 385.257 47.192 385.284 47.48 385.337V390.873C48.28 390.777 48.8933 390.473 49.32 389.961C49.7467 389.449 49.96 388.777 49.96 387.945C49.96 387.039 49.7733 386.313 49.4 385.769ZM49.976 379.762C49.976 379.079 49.7093 378.519 49.176 378.082C48.632 377.644 47.864 377.426 46.872 377.426C45.9867 377.426 45.272 377.639 44.728 378.066C44.184 378.492 43.912 379.031 43.912 379.682C43.912 380.332 44.152 380.898 44.632 381.378C45.1013 381.847 45.8747 382.082 46.952 382.082C47.9867 382.082 48.7493 381.842 49.24 381.362C49.7307 380.882 49.976 380.348 49.976 379.762ZM42.888 382.082H44.12C43.2133 381.516 42.76 380.679 42.76 379.57C42.76 378.492 43.1547 377.65 43.944 377.042C44.7227 376.423 45.6987 376.114 46.872 376.114C48.12 376.114 49.144 376.439 49.944 377.09C50.7333 377.73 51.128 378.567 51.128 379.602C51.128 380.668 50.6747 381.495 49.768 382.082H54.152V383.33H42.888V382.082ZM43.912 372.508H48.664C49.528 372.508 49.96 372.102 49.96 371.292C49.96 370.876 49.8373 370.508 49.592 370.188H50.792C50.984 370.54 51.08 370.934 51.08 371.372C51.08 372.972 50.264 373.772 48.632 373.772H43.912V375.068H42.888V373.772H40.872V372.508H42.888V370.268H43.912V372.508ZM39.688 364.473H40.84C40.7547 364.729 40.712 364.975 40.712 365.209C40.712 365.551 40.8293 365.833 41.064 366.057C41.2987 366.271 41.6613 366.377 42.152 366.377H42.888V364.585H43.912V366.377H51V367.641H43.912V369.033H42.888V367.641H42.136C41.3467 367.641 40.7227 367.433 40.264 367.017C39.8053 366.591 39.576 366.004 39.576 365.257C39.576 365.001 39.6133 364.74 39.688 364.473ZM51.144 359.784C51.144 360.946 50.7547 361.869 49.976 362.552C49.1867 363.224 48.1947 363.56 47 363.56C45.7947 363.56 44.792 363.213 43.992 362.52C43.1813 361.816 42.776 360.904 42.776 359.784C42.776 358.557 43.1707 357.613 43.96 356.952C44.7493 356.28 45.752 355.944 46.968 355.944C48.1733 355.944 49.1707 356.285 49.96 356.968C50.7493 357.65 51.144 358.589 51.144 359.784ZM43.896 359.784C43.896 360.552 44.1947 361.154 44.792 361.592C45.3893 362.029 46.12 362.248 46.984 362.248C47.8267 362.248 48.5467 362.024 49.144 361.576C49.7307 361.128 50.024 360.53 50.024 359.784C50.024 358.973 49.736 358.349 49.16 357.912C48.5733 357.474 47.848 357.256 46.984 357.256C46.088 357.256 45.352 357.464 44.776 357.88C44.1893 358.296 43.896 358.93 43.896 359.784ZM42.888 352.847H44.312C43.3093 352.421 42.808 351.685 42.808 350.639C42.808 350.447 42.8187 350.298 42.84 350.191H44.088C44.0133 350.415 43.976 350.645 43.976 350.879C43.976 351.445 44.2373 351.914 44.76 352.287C45.2827 352.661 45.8853 352.847 46.568 352.847H51V354.111L42.888 354.095V352.847ZM49.976 345.789C49.976 345.127 49.7307 344.567 49.24 344.109C48.7493 343.639 47.9653 343.405 46.888 343.405C45.864 343.405 45.112 343.645 44.632 344.125C44.152 344.605 43.912 345.133 43.912 345.709C43.912 346.381 44.184 346.941 44.728 347.389C45.2613 347.826 46.0293 348.045 47.032 348.045C47.9067 348.045 48.616 347.831 49.16 347.405C49.704 346.978 49.976 346.439 49.976 345.789ZM39.688 343.405V342.141H51V343.405H49.8C50.6853 343.981 51.128 344.813 51.128 345.901C51.128 346.978 50.728 347.826 49.928 348.445C49.128 349.053 48.1573 349.357 47.016 349.357C45.7467 349.357 44.7227 349.031 43.944 348.381C43.1547 347.73 42.76 346.893 42.76 345.869C42.76 344.813 43.2133 343.991 44.12 343.405H39.688ZM52.968 341.095L49.384 339.607V337.927L52.968 339.991V341.095ZM49.832 330.939V326.347H51V332.235H40.216V330.939H49.832ZM51.144 321.378C51.144 322.54 50.7547 323.463 49.976 324.146C49.1867 324.818 48.1947 325.154 47 325.154C45.7947 325.154 44.792 324.807 43.992 324.114C43.1813 323.41 42.776 322.498 42.776 321.378C42.776 320.151 43.1707 319.207 43.96 318.546C44.7493 317.874 45.752 317.538 46.968 317.538C48.1733 317.538 49.1707 317.879 49.96 318.562C50.7493 319.244 51.144 320.183 51.144 321.378ZM43.896 321.378C43.896 322.146 44.1947 322.748 44.792 323.186C45.3893 323.623 46.12 323.842 46.984 323.842C47.8267 323.842 48.5467 323.618 49.144 323.17C49.7307 322.722 50.024 322.124 50.024 321.378C50.024 320.567 49.736 319.943 49.16 319.506C48.5733 319.068 47.848 318.85 46.984 318.85C46.088 318.85 45.352 319.058 44.776 319.474C44.1893 319.89 43.896 320.524 43.896 321.378ZM42.888 314.441H44.296C43.2827 313.961 42.776 313.108 42.776 311.881C42.776 311.092 43.016 310.463 43.496 309.993C43.976 309.524 44.616 309.289 45.416 309.289H51V310.553H45.752C45.1547 310.553 44.7013 310.708 44.392 311.017C44.072 311.316 43.912 311.711 43.912 312.201C43.912 312.809 44.1467 313.337 44.616 313.785C45.0853 314.223 45.736 314.441 46.568 314.441H51V315.689H42.888V314.441ZM49.976 303.961C49.976 303.299 49.7307 302.739 49.24 302.281C48.7493 301.811 47.9653 301.577 46.888 301.577C45.864 301.577 45.112 301.817 44.632 302.297C44.152 302.777 43.912 303.305 43.912 303.881C43.912 304.553 44.184 305.113 44.728 305.561C45.2613 305.998 46.0293 306.217 47.032 306.217C47.9067 306.217 48.616 306.003 49.16 305.577C49.704 305.15 49.976 304.611 49.976 303.961ZM39.688 301.577V300.313H51V301.577H49.8C50.6853 302.153 51.128 302.985 51.128 304.073C51.128 305.15 50.728 305.998 49.928 306.617C49.128 307.225 48.1573 307.529 47.016 307.529C45.7467 307.529 44.7227 307.203 43.944 306.553C43.1547 305.902 42.76 305.065 42.76 304.041C42.76 302.985 43.2133 302.163 44.12 301.577H39.688ZM51.144 294.674C51.144 295.837 50.7547 296.76 49.976 297.442C49.1867 298.114 48.1947 298.45 47 298.45C45.7947 298.45 44.792 298.104 43.992 297.41C43.1813 296.706 42.776 295.794 42.776 294.674C42.776 293.448 43.1707 292.504 43.96 291.842C44.7493 291.17 45.752 290.834 46.968 290.834C48.1733 290.834 49.1707 291.176 49.96 291.858C50.7493 292.541 51.144 293.48 51.144 294.674ZM43.896 294.674C43.896 295.442 44.1947 296.045 44.792 296.482C45.3893 296.92 46.12 297.138 46.984 297.138C47.8267 297.138 48.5467 296.914 49.144 296.466C49.7307 296.018 50.024 295.421 50.024 294.674C50.024 293.864 49.736 293.24 49.16 292.802C48.5733 292.365 47.848 292.146 46.984 292.146C46.088 292.146 45.352 292.354 44.776 292.77C44.1893 293.186 43.896 293.821 43.896 294.674ZM42.888 287.738H44.296C43.2827 287.258 42.776 286.405 42.776 285.178C42.776 284.389 43.016 283.759 43.496 283.29C43.976 282.821 44.616 282.586 45.416 282.586H51V283.85H45.752C45.1547 283.85 44.7013 284.005 44.392 284.314C44.072 284.613 43.912 285.007 43.912 285.498C43.912 286.106 44.1467 286.634 44.616 287.082C45.0853 287.519 45.736 287.738 46.568 287.738H51V288.986H42.888V287.738Z" fill="#120A08"/>
<path d="M194.777 122H191.277L211.277 88.5L194.777 122Z" fill="#FDF766" stroke="#FDF8F8" stroke-width="0.5"/>
<path d="M130.277 289H112.277L122.277 269H138.277L130.277 289Z" fill="#FD6666" stroke="#FDF8F8"/>
<path d="M138.277 269H122.277L130.277 252H145.277L138.277 269Z" fill="#FD6666" stroke="#FDF8F8"/>
<path d="M145.277 252H130.777L137.777 238H150.777L145.277 252Z" fill="#FD6666" stroke="#FDF8F8"/>
<path d="M150.777 238L137.777 237.5L144.777 222H157.277L150.777 238Z" fill="#FD7866" stroke="#FDF8F8"/>
<path d="M157.277 222H145.277L151.277 209H162.777L157.277 222Z" fill="#FD8A66" stroke="#FDF8F8"/>
<path d="M162.777 209H151.777L157.777 196.5H167.777L162.777 209Z" fill="#FD9366" stroke="#FDF8F8"/>
<path d="M167.777 196.5H158.277L164.777 183H173.277L167.777 196.5Z" fill="#FD9C66" stroke="#FDF8F8"/>
<path d="M173.277 183H164.777L171.277 169.5H178.777L173.277 183Z" fill="#FD9C66" stroke="#FDF8F8"/>
<path d="M178.777 169.5H171.277L178.777 155H184.277L178.777 169.5Z" fill="#FDAE66" stroke="#FDF8F8"/>
<path d="M184.277 155H178.277L183.777 144H188.777L184.277 155Z" fill="#FDC066" stroke="#FDF8F8"/>
<path d="M188.777 144H183.777L189.277 133H193.277L188.777 144Z" fill="#FDD366" stroke="#FDF8F8"/>
<path d="M193.777 133H189.277L194.777 122H197.777L193.777 133Z" fill="#FDE566" stroke="#FDF8F8"/>
<path d="M197.777 122H194.777L210.777 88.5L197.777 122Z" fill="#FDF766" stroke="#FDF8F8" stroke-width="0.5"/>
<path d="M148.777 289H130.277L138.277 269L154.777 269.5L148.777 289Z" fill="#FD6666" stroke="#FDF8F8"/>
<path d="M154.777 269.5L138.277 269L145.277 252H160.277L154.777 269.5Z" fill="#FD6666" stroke="#FDF8F8"/>
<path d="M160.277 252H145.277L150.777 238H164.777L160.277 252Z" fill="#FD6666" stroke="#FDF8F8"/>
<path d="M164.777 238H151.277L157.277 222H169.777L164.777 238Z" fill="#FD7866" stroke="#FDF8F8"/>
<path d="M169.777 222H157.277L162.777 209H173.777L169.777 222Z" fill="#FD8A66" stroke="#FDF8F8"/>
<path d="M173.777 209H162.777L167.777 196.5H177.777L173.777 209Z" fill="#FD9366" stroke="#FDF8F8"/>
<path d="M177.777 196.5H167.777L173.277 183H181.777L177.777 196.5Z" fill="#FD9C66" stroke="#FDF8F8"/>
<path d="M181.777 183H173.277L178.777 169.5H186.277L181.777 183Z" fill="#FD9C66" stroke="#FDF8F8"/>
<path d="M185.777 169.5H178.777L184.277 155H190.277L185.777 169.5Z" fill="#FDAE66" stroke="#FDF8F8"/>
<path d="M190.277 155H184.277L188.777 144H193.777L190.277 155Z" fill="#FDC066" stroke="#FDF8F8"/>
<path d="M193.777 144H188.777L193.277 133H197.277L193.777 144Z" fill="#FDD366" stroke="#FDF8F8"/>
<path d="M197.277 133H193.277L197.777 122H200.777L197.277 133Z" fill="#FDE566" stroke="#FDF8F8"/>
<path d="M200.777 122H198.277L210.777 88L200.777 122Z" fill="#FDF766" stroke="#FDF8F8" stroke-width="0.5"/>
<path d="M164.777 289H148.777L154.777 269.5H169.277L164.777 289Z" fill="#FD6666" stroke="#FDF8F8"/>
<path d="M169.277 269.5H154.777L160.277 252H173.277L169.277 269.5Z" fill="#FD6666" stroke="#FDF8F8"/>
<path d="M173.277 252H160.277L164.777 238H176.777L173.277 252Z" fill="#FD6666" stroke="#FDF8F8"/>
<path d="M176.777 238H164.777L169.777 222H180.277L176.777 238Z" fill="#FD7866" stroke="#FDF8F8"/>
<path d="M180.277 222H169.777L173.777 209H183.277L180.277 222Z" fill="#FD8A66" stroke="#FDF8F8"/>
<path d="M183.277 209H173.777L177.277 196.5H186.277L183.277 209Z" fill="#FD9366" stroke="#FDF8F8"/>
<path d="M186.277 196.5H177.777L181.777 183H189.277L186.277 196.5Z" fill="#FD9C66" stroke="#FDF8F8"/>
<path d="M189.277 183H181.777L186.277 169.5H192.277L189.277 183Z" fill="#FD9C66" stroke="#FDF8F8"/>
<path d="M192.277 169.5H185.777L190.277 155H195.777L192.277 169.5Z" fill="#FDAE66" stroke="#FDF8F8"/>
<path d="M195.777 155H190.277L193.777 144H198.277L195.777 155Z" fill="#FDC066" stroke="#FDF8F8"/>
<path d="M198.277 144H193.777L197.277 133H200.777L199.527 138L198.277 144Z" fill="#FDD366" stroke="#FDF8F8"/>
<path d="M200.777 133H197.277L200.777 122H203.277L200.777 133Z" fill="#FDE566" stroke="#FDF8F8"/>
<path d="M203.277 122H200.777L210.777 88.5L203.277 122Z" fill="#FDF766" stroke="#FDF8F8" stroke-width="0.5"/>
<path d="M182.277 289H164.777L169.277 269.5H185.277L182.277 289Z" fill="#FD6666" stroke="#FDF8F8"/>
<path d="M185.277 269.5H169.277L173.277 252H187.777L185.277 269.5Z" fill="#FD6666" stroke="#FDF8F8"/>
<path d="M189.777 238H176.277L180.277 222H191.777L189.777 238Z" fill="#FD7866" stroke="#FDF8F8"/>
<path d="M187.777 252H173.277L176.277 238H189.777L187.777 252Z" fill="#FD6666" stroke="#FDF8F8"/>
<path d="M191.777 222H180.277L183.277 209H193.777L191.777 222Z" fill="#FD8A66" stroke="#FDF8F8"/>
<path d="M193.777 209H183.277L186.277 196.5H195.277L193.777 209Z" fill="#FD9366" stroke="#FDF8F8"/>
<path d="M195.277 196.5H186.277L189.277 183H197.277L195.277 196.5Z" fill="#FD9C66" stroke="#FDF8F8"/>
<path d="M197.277 183H189.277L192.277 169.5H199.277L197.277 183Z" fill="#FD9C66" stroke="#FDF8F8"/>
<path d="M199.277 169.5H192.277L195.777 155H201.277L199.277 169.5Z" fill="#FDAE66" stroke="#FDF8F8"/>
<path d="M201.277 155H195.777L198.277 144H202.777L201.277 155Z" fill="#FDC066" stroke="#FDF8F8"/>
<path d="M202.777 144H198.277L200.777 133H204.777L202.777 144Z" fill="#FDD366" stroke="#FDF8F8"/>
<path d="M204.777 133H200.777L203.277 122H206.277L204.777 133Z" fill="#FDE566" stroke="#FDF8F8"/>
<path d="M206.277 122H203.277L210.777 88L206.277 122Z" fill="#FDF766" stroke="#FDF8F8" stroke-width="0.5"/>
<path d="M201.277 289H182.777L185.277 269.5H202.277L201.277 289Z" fill="#FD6666" stroke="#FDF8F8"/>
<path d="M202.277 269.5H185.277L187.777 252H203.277L202.277 269.5Z" fill="#FD6666" stroke="#FDF8F8"/>
<path d="M217.777 269.5H202.277L203.277 252H217.277L217.777 269.5Z" fill="#FD6666" stroke="#FDF8F8"/>
<path d="M203.277 252H187.777L189.777 238H203.777L203.277 252Z" fill="#FD6666" stroke="#FDF8F8"/>
<path d="M203.777 238H189.777L191.777 222H204.777L203.777 238Z" fill="#FD7866" stroke="#FDF8F8"/>
<path d="M204.777 222H191.777L193.777 209H205.277L204.777 222Z" fill="#FD8A66" stroke="#FDF8F8"/>
<path d="M205.277 209H193.777L195.277 196.5H205.777L205.277 209Z" fill="#FD9366" stroke="#FDF8F8"/>
<path d="M205.777 196.5H195.277L197.277 183H206.277L205.777 196.5Z" fill="#FD9C66" stroke="#FDF8F8"/>
<path d="M206.277 183H197.277L199.277 169.5H206.777L206.277 183Z" fill="#FD9C66" stroke="#FDF8F8"/>
<path d="M206.777 169.5H199.277L201.277 155H207.777L206.777 169.5Z" fill="#FDAE66" stroke="#FDF8F8"/>
<path d="M207.777 155H201.277L202.777 144H208.277L207.777 155Z" fill="#FDC066" stroke="#FDF8F8"/>
<path d="M208.277 144H202.777L204.777 133H208.777L208.277 144Z" fill="#FDD366" stroke="#FDF8F8"/>
<path d="M208.777 133H204.777L206.277 122H209.277L208.777 133Z" fill="#FDE566" stroke="#FDF8F8"/>
<path d="M209.277 122H206.277L210.777 88.5L209.277 122Z" fill="#FDF766" stroke="#FDF8F8" stroke-width="0.5"/>
<path d="M218.777 289H201.277L202.277 269.5H217.777L218.777 289Z" fill="#FD6666" stroke="#FDF8F8"/>
<path d="M217.277 252H203.277L203.777 238H216.777L217.277 252Z" fill="#FD6666" stroke="#FDF8F8"/>
<path d="M216.777 238H203.777L204.777 222H216.277L216.777 238Z" fill="#FD7866" stroke="#FDF8F8"/>
<path d="M216.277 222H204.777L205.277 209H215.777L216.277 222Z" fill="#FD8A66" stroke="#FDF8F8"/>
<path d="M215.777 209H205.277L205.777 196.5H215.277L215.777 209Z" fill="#FD9366" stroke="#FDF8F8"/>
<path d="M215.277 196.5H205.777L206.277 183H214.777L215.277 196.5Z" fill="#FD9C66" stroke="#FDF8F8"/>
<path d="M214.777 183H206.277L206.777 169.5H214.277L214.777 183Z" fill="#FD9C66" stroke="#FDF8F8"/>
<path d="M214.277 169.5H206.777L207.777 155H213.277L214.277 169.5Z" fill="#FDAE66" stroke="#FDF8F8"/>
<path d="M213.277 155H207.777L208.277 144H212.777L213.277 155Z" fill="#FDC066" stroke="#FDF8F8"/>
<path d="M212.777 144H208.277L208.777 133H212.277L212.777 144Z" fill="#FDD366" stroke="#FDF8F8"/>
<path d="M212.277 133H208.777L209.277 122H212.277V133Z" fill="#FDE566" stroke="#FDF8F8"/>
<path d="M212.277 122H209.277L210.777 88L212.277 122Z" fill="#FDF766" stroke="#FDF8F8" stroke-width="0.5"/>
<path d="M237.777 289H218.777L217.777 269.5H234.777L237.777 289Z" fill="#FD6666" stroke="#FDF8F8"/>
<path d="M217.777 269.5H234.777L232.777 252H217.277L217.777 269.5Z" fill="#FD6666" stroke="#FDF8F8"/>
<path d="M217.277 252H232.777L230.777 238H216.777L217.277 252Z" fill="#FD6666" stroke="#FDF8F8"/>
<path d="M216.777 238H230.777L228.777 222H216.277L216.777 238Z" fill="#FD7866" stroke="#FDF8F8"/>
<path d="M216.277 222H228.777L226.777 209H215.777L216.277 222Z" fill="#FD8A66" stroke="#FDF8F8"/>
<path d="M215.777 209H226.777L225.277 196.5H215.277L215.777 209Z" fill="#FD9366" stroke="#FDF8F8"/>
<path d="M215.277 196.5H225.277L223.277 183H214.777L215.277 196.5Z" fill="#FD9C66" stroke="#FDF8F8"/>
<path d="M214.777 183H223.277L221.777 169.5H214.277L214.777 183Z" fill="#FD9C66" stroke="#FDF8F8"/>
<path d="M214.277 169.5H221.777L219.777 155H213.277L214.277 169.5Z" fill="#FDAE66" stroke="#FDF8F8"/>
<path d="M213.277 155H219.777L218.277 144H212.777L213.277 155Z" fill="#FDC066" stroke="#FDF8F8"/>
<path d="M212.777 144H218.277L216.777 133H212.277L212.777 144Z" fill="#FDD366" stroke="#FDF8F8"/>
<path d="M212.277 133H216.777L215.277 122H212.277V133Z" fill="#FDE566" stroke="#FDF8F8"/>
<path d="M212.277 122H215.277L210.777 88L212.277 122Z" fill="#FDF766" stroke="#FDF8F8" stroke-width="0.5"/>
<path d="M237.777 289H256.277L251.777 269.5H234.777L237.777 289Z" fill="#FD6666" stroke="#FDF8F8"/>
<path d="M234.777 269.5H251.777L247.777 252H232.777L234.777 269.5Z" fill="#FD6666" stroke="#FDF8F8"/>
<path d="M232.777 252H247.777L244.777 238H230.777L232.777 252Z" fill="#FD6666" stroke="#FDF8F8"/>
<path d="M230.777 238H244.777L240.777 222H228.777L230.777 238Z" fill="#FD7866" stroke="#FDF8F8"/>
<path d="M228.777 222H240.777L237.777 209H226.777L228.777 222Z" fill="#FD8A66" stroke="#FDF8F8"/>
<path d="M226.777 209H237.777L235.277 196.5H225.277L226.777 209Z" fill="#FD9366" stroke="#FDF8F8"/>
<path d="M225.277 196.5H235.277L232.277 183H223.277L225.277 196.5Z" fill="#FD9C66" stroke="#FDF8F8"/>
<path d="M223.277 183H232.277L228.777 169.5H221.777L223.277 183Z" fill="#FD9C66" stroke="#FDF8F8"/>
<path d="M221.777 169.5H228.777L225.777 155H219.777L221.777 169.5Z" fill="#FDAE66" stroke="#FDF8F8"/>
<path d="M219.777 155H225.777L223.277 144H218.277L219.777 155Z" fill="#FDC066" stroke="#FDF8F8"/>
<path d="M218.277 144H223.277L220.777 133H216.777L218.277 144Z" fill="#FDD366" stroke="#FDF8F8"/>
<path d="M216.777 133H220.777L218.277 122H215.277L216.777 133Z" fill="#FDE566" stroke="#FDF8F8"/>
<path d="M215.277 122H218.277L210.777 88.5L215.277 122Z" fill="#FDF766" stroke="#FDF8F8" stroke-width="0.5"/>
<path d="M256.277 289H275.777L269.277 269.5H251.777L256.277 289Z" fill="#FD6666" stroke="#FDF8F8"/>
<path d="M251.777 269.5H269.277L263.777 252H247.777L251.777 269.5Z" fill="#FD6666" stroke="#FDF8F8"/>
<path d="M247.777 252H263.777L259.277 238H244.777L247.777 252Z" fill="#FD6666" stroke="#FDF8F8"/>
<path d="M244.777 238H259.277L253.777 222H240.777L244.777 238Z" fill="#FD7866" stroke="#FDF8F8"/>
<path d="M240.777 222H253.777L249.777 209H237.777L240.777 222Z" fill="#FD8A66" stroke="#FDF8F8"/>
<path d="M237.777 209H249.777L245.777 196.5H235.277L237.777 209Z" fill="#FD9366" stroke="#FDF8F8"/>
<path d="M235.277 196.5H245.777L241.277 183H232.277L235.277 196.5Z" fill="#FD9C66" stroke="#FDF8F8"/>
<path d="M232.277 183H241.277L236.777 169.5H228.777L232.277 183Z" fill="#FD9C66" stroke="#FDF8F8"/>
<path d="M228.777 169.5H236.777L232.277 155H225.777L228.777 169.5Z" fill="#FDAE66" stroke="#FDF8F8"/>
<path d="M225.777 155H232.277L228.777 144H223.277L225.777 155Z" fill="#FDC066" stroke="#FDF8F8"/>
<path d="M223.277 144H228.777L224.777 133H220.777L223.277 144Z" fill="#FDD366" stroke="#FDF8F8"/>
<path d="M220.777 133H224.777L221.277 122H218.277L220.777 133Z" fill="#FDE566" stroke="#FDF8F8"/>
<path d="M218.277 122H221.277L210.777 88.5L218.277 122Z" fill="#FDF766" stroke="#FDF8F8" stroke-width="0.5"/>
<path d="M275.777 289H293.777L285.277 269.5H269.277L275.777 289Z" fill="#FD6666" stroke="#FDF8F8"/>
<path d="M269.277 269.5H285.277L277.777 252H263.777L269.277 269.5Z" fill="#FD6666" stroke="#FDF8F8"/>
<path d="M263.777 252H277.777L272.277 238H259.277L263.777 252Z" fill="#FD6666" stroke="#FDF8F8"/>
<path d="M259.277 238H272.277L265.777 222H253.777L259.277 238Z" fill="#FD7866" stroke="#FDF8F8"/>
<path d="M253.777 222H265.777L260.277 209H249.777L253.777 222Z" fill="#FD8A66" stroke="#FDF8F8"/>
<path d="M249.777 209H260.277L254.777 196.5H245.777L249.777 209Z" fill="#FD9366" stroke="#FDF8F8"/>
<path d="M245.777 196.5H254.777L249.277 183H241.277L245.777 196.5Z" fill="#FD9C66" stroke="#FDF8F8"/>
<path d="M241.277 183H249.277L243.777 169.5H236.777L241.277 183Z" fill="#FD9C66" stroke="#FDF8F8"/>
<path d="M236.777 169.5H243.777L237.777 155H232.277L236.777 169.5Z" fill="#FDAE66" stroke="#FDF8F8"/>
<path d="M232.277 155H237.777L233.277 144H228.777L232.277 155Z" fill="#FDC066" stroke="#FDF8F8"/>
<path d="M228.777 144H233.277L228.777 133H224.777L228.777 144Z" fill="#FDD366" stroke="#FDF8F8"/>
<path d="M224.777 133H228.777L224.277 122H221.277L224.777 133Z" fill="#FDE566" stroke="#FDF8F8"/>
<path d="M221.277 122H224.277L210.777 88.5L221.277 122Z" fill="#FDF766" stroke="#FDF8F8" stroke-width="0.5"/>
<path d="M293.777 289H310.277L300.277 269.5H285.277L293.777 289Z" fill="#FD6666" stroke="#FDF8F8"/>
<path d="M285.277 269.5H300.277L291.777 252H277.777L285.277 269.5Z" fill="#FD6666" stroke="#FDF8F8"/>
<path d="M277.777 252H291.777L284.777 238H272.277L277.777 252Z" fill="#FD6666" stroke="#FDF8F8"/>
<path d="M272.277 238H284.777L276.777 222H265.777L272.277 238Z" fill="#FD7866" stroke="#FDF8F8"/>
<path d="M265.277 222H276.777L270.277 209H260.277L265.277 222Z" fill="#FD8A66" stroke="#FDF8F8"/>
<path d="M260.277 209H270.277L264.277 196.5H254.777L260.277 209Z" fill="#FD9366" stroke="#FDF8F8"/>
<path d="M254.777 196.5H264.277L257.277 183H249.277L254.777 196.5Z" fill="#FD9C66" stroke="#FDF8F8"/>
<path d="M249.277 183H257.277L250.777 169.5H243.777L249.277 183Z" fill="#FD9C66" stroke="#FDF8F8"/>
<path d="M243.777 169.5H250.777L243.777 155H237.777L243.777 169.5Z" fill="#FDAE66" stroke="#FDF8F8"/>
<path d="M237.777 155H243.777L237.777 144H233.277L237.777 155Z" fill="#FDC066" stroke="#FDF8F8"/>
<path d="M233.277 144H237.777L232.277 133H228.777L233.277 144Z" fill="#FDD366" stroke="#FDF8F8"/>
<path d="M229.277 133H232.277L226.777 122H224.277L229.277 133Z" fill="#FDE566" stroke="#FDF8F8"/>
<path d="M224.277 122H226.777L210.777 88.5L224.277 122Z" fill="#FDF766" stroke="#FDF8F8" stroke-width="0.5"/>
<path d="M310.777 289L326.277 288.5L314.777 269.5H300.277L310.777 289Z" fill="#FD6666" stroke="#FDF8F8"/>
<path d="M300.277 269.5H314.777L304.277 252H291.777L300.277 269.5Z" fill="#FD6666" stroke="#FDF8F8"/>
<path d="M291.777 252H304.277L296.277 238H284.777L291.777 252Z" fill="#FD6666" stroke="#FDF8F8"/>
<path d="M284.777 238H296.277L287.277 222H276.777L284.777 238Z" fill="#FD7866" stroke="#FDF8F8"/>
<path d="M276.777 222H287.277L279.777 209H270.277L276.777 222Z" fill="#FD8A66" stroke="#FDF8F8"/>
<path d="M270.277 209H279.777L272.777 196.5H264.277L270.277 209Z" fill="#FD9366" stroke="#FDF8F8"/>
<path d="M264.277 196.5H272.777L264.777 183H257.277L264.277 196.5Z" fill="#FD9C66" stroke="#FDF8F8"/>
<path d="M257.777 183H264.777L256.777 169.5H250.777L257.777 183Z" fill="#FD9C66" stroke="#FDF8F8"/>
<path d="M250.777 169.5H256.777L248.777 155H243.777L250.777 169.5Z" fill="#FDAE66" stroke="#FDF8F8"/>
<path d="M243.777 155H248.777L242.277 144H237.777L243.777 155Z" fill="#FDC066" stroke="#FDF8F8"/>
<path d="M237.777 144H242.277L236.277 133H232.277L237.777 144Z" fill="#FDD366" stroke="#FDF8F8"/>
<path d="M232.277 133H236.277L229.777 122H226.777L232.277 133Z" fill="#FDE566" stroke="#FDF8F8"/>
<path d="M226.777 122H229.777L210.777 88.5L226.777 122Z" fill="#FDF766" stroke="#FDF8F8" stroke-width="0.5"/>
</g>
<defs>
<linearGradient id="paint0_linear" x1="123" y1="175" x2="191" y2="102" gradientUnits="userSpaceOnUse">
<stop stop-color="#FD9C66"/>
<stop offset="1" stop-color="#FDF766"/>
</linearGradient>
<linearGradient id="paint1_linear" x1="321" y1="181" x2="240" y2="88" gradientUnits="userSpaceOnUse">
<stop stop-color="#FD9C66"/>
<stop offset="1" stop-color="#FDF766"/>
</linearGradient>
<linearGradient id="paint2_linear" x1="231" y1="346" x2="226" y2="296" gradientUnits="userSpaceOnUse">
<stop stop-color="#FD6666"/>
<stop offset="1" stop-color="#FD9C66"/>
</linearGradient>
<clipPath id="clip0">
<rect width="420" height="420" fill="white"/>
</clipPath>
</defs>
</svg>
