<svg width="427" height="502" viewBox="0 0 427 502" fill="none" xmlns="http://www.w3.org/2000/svg">
<g filter="url(#filter0_d)">
<path d="M32.9374 313.613C-49.6984 155.357 71.1368 -2.11833 214.58 1.77958C128.046 62.587 39.174 205.251 32.9374 313.613Z" fill="url(#paint0_linear)"/>
<path d="M32.9374 313.613C-49.6984 155.357 71.1368 -2.11833 214.58 1.77958M32.9374 313.613C12.828 156.137 86.7286 45.0961 214.58 1.77958M32.9374 313.613C39.174 205.251 128.046 62.587 214.58 1.77958" stroke="#FFFCFC" stroke-width="2"/>
<path d="M214.58 1.77957C369.717 1.77957 473.402 156.917 395.443 312.833C375.954 159.255 295.657 54.0116 214.58 1.77957Z" fill="url(#paint1_linear)"/>
<path d="M214.58 1.77957C369.717 1.77957 473.402 156.917 395.443 312.833M214.58 1.77957C371.276 46.9954 411.035 179.524 395.443 312.833M214.58 1.77957C295.657 54.0116 375.954 159.255 395.443 312.833" stroke="#FFFCFC" stroke-width="2"/>
<path d="M393.884 315.172C296.019 464.49 98.7674 440.013 32.2196 312.881C127.505 358.775 296.239 362.57 393.884 315.172Z" fill="url(#paint2_linear)"/>
<path d="M393.884 315.172C296.019 464.49 98.7674 440.013 32.2196 312.881M393.884 315.172C266.208 409.522 132.384 403.377 32.2196 312.881M393.884 315.172C296.239 362.57 127.505 358.775 32.2196 312.881" stroke="#FFFCFC" stroke-width="2"/>
<path d="M61.0024 314.392H34.4966L52.427 283.209H76.594L61.0024 314.392Z" fill="#FD6666" stroke="#FFFCFC"/>
<path d="M76.5938 283.209H52.4268L68.0184 255.924L89.0671 256.703L76.5938 283.209Z" fill="#FD6666" stroke="#FFFCFC"/>
<path d="M89.0673 256.703L68.0186 255.924L81.2715 232.536H101.541L89.0673 256.703Z" fill="#FD6666" stroke="#FFFCFC"/>
<path d="M100.761 234.095H80.4917L94.5242 209.928L112.455 210.708L100.761 234.095Z" fill="#FD7866" stroke="#FFFCFC"/>
<path d="M112.455 209.928L94.5244 209.149L106.218 189.659H122.589L112.455 209.928Z" fill="#FD8A66" stroke="#FFFCFC"/>
<path d="M122.589 189.659H106.218L117.132 170.169H131.944L122.589 189.659Z" fill="#FD9366" stroke="#FFFCFC"/>
<path d="M132.724 170.169H117.132L129.606 149.121H142.859L132.724 170.169Z" fill="#FD9C66" stroke="#FFFCFC"/>
<path d="M142.858 149.121H129.605L141.299 128.072H152.993L142.858 149.121Z" fill="#FD9C66" stroke="#FFFCFC"/>
<path d="M152.993 128.072H141.299L154.552 105.464H164.687L152.993 128.072Z" fill="#FDAE66" stroke="#FFFCFC"/>
<path d="M163.907 105.464H154.552L164.687 88.3132H172.483L163.907 105.464Z" fill="#FDC066" stroke="#FFFCFC"/>
<path d="M172.483 88.3132H164.687L174.822 71.1624H181.058L172.483 88.3132Z" fill="#FDD366" stroke="#FFFCFC"/>
<path d="M181.058 71.1624H174.821L184.176 54.0116H189.633L181.058 71.1624Z" fill="#FDE566" stroke="#FFFCFC"/>
<path d="M189.633 54.0116H184.176L215.36 1.77957L189.633 54.0116Z" fill="#FDF766" stroke="#FFFCFC" stroke-width="0.5"/>
<path d="M89.0674 314.392H61.0024L76.5941 283.209H101.541L89.0674 314.392Z" fill="#FD6666" stroke="#FFFCFC"/>
<path d="M101.541 283.209H76.5942L89.0676 256.703H112.455L101.541 283.209Z" fill="#FD6666" stroke="#FFFCFC"/>
<path d="M112.455 256.703H89.8467L100.761 234.875H121.03L112.455 256.703Z" fill="#FD6666" stroke="#FFFCFC"/>
<path d="M121.03 234.875L100.761 234.095L111.675 209.928H131.165L121.03 234.875Z" fill="#FD7866" stroke="#FFFCFC"/>
<path d="M131.165 209.928H112.455L121.81 189.659H139.74L131.165 209.928Z" fill="#FD8A66" stroke="#FFFCFC"/>
<path d="M139.74 189.659H122.589L131.944 170.169H147.536L139.74 189.659Z" fill="#FD9366" stroke="#FFFCFC"/>
<path d="M147.536 170.169H132.724L142.859 149.121H156.112L147.536 170.169Z" fill="#FD9C66" stroke="#FFFCFC"/>
<path d="M156.111 149.121H142.858L152.993 128.072H164.687L156.111 149.121Z" fill="#FD9C66" stroke="#FFFCFC"/>
<path d="M164.687 128.072H152.993L164.687 105.464H173.262L164.687 128.072Z" fill="#FDAE66" stroke="#FFFCFC"/>
<path d="M173.262 105.464H163.907L172.483 88.3132H180.278L173.262 105.464Z" fill="#FDC066" stroke="#FFFCFC"/>
<path d="M180.278 88.3132H172.482L181.058 71.1624H187.294L180.278 88.3132Z" fill="#FDD366" stroke="#FFFCFC"/>
<path d="M188.074 71.1624H181.058L189.634 54.0116H194.311L188.074 71.1624Z" fill="#FDE566" stroke="#FFFCFC"/>
<path d="M194.311 54.0116H189.633L214.58 1.77957L194.311 54.0116Z" fill="#FDF766" stroke="#FFFCFC" stroke-width="0.5"/>
<path d="M117.912 314.392H89.0674L101.541 283.209L127.267 283.988L117.912 314.392Z" fill="#FD6666" stroke="#FFFCFC"/>
<path d="M127.267 283.988L101.541 283.209L112.455 256.703H135.842L127.267 283.988Z" fill="#FD6666" stroke="#FFFCFC"/>
<path d="M135.842 256.703H112.455L121.03 234.875H142.858L135.842 256.703Z" fill="#FD6666" stroke="#FFFCFC"/>
<path d="M142.858 234.875H121.81L131.165 209.928H150.654L142.858 234.875Z" fill="#FD7866" stroke="#FFFCFC"/>
<path d="M150.654 209.928H131.165L139.74 189.659H156.891L150.654 209.928Z" fill="#FD8A66" stroke="#FFFCFC"/>
<path d="M156.891 189.659H139.74L147.536 170.169H163.128L156.891 189.659Z" fill="#FD9366" stroke="#FFFCFC"/>
<path d="M163.128 170.169H147.536L156.112 149.121H169.364L163.128 170.169Z" fill="#FD9C66" stroke="#FFFCFC"/>
<path d="M169.364 149.121H156.111L164.687 128.072H176.38L169.364 149.121Z" fill="#FD9C66" stroke="#FFFCFC"/>
<path d="M175.601 128.072H164.687L173.262 105.464H182.617L175.601 128.072Z" fill="#FDAE66" stroke="#FFFCFC"/>
<path d="M182.617 105.464H173.262L180.278 88.3132H188.074L182.617 105.464Z" fill="#FDC066" stroke="#FFFCFC"/>
<path d="M188.074 88.3132H180.278L187.295 71.1624H193.531L188.074 88.3132Z" fill="#FDD366" stroke="#FFFCFC"/>
<path d="M193.532 71.1624H187.295L194.311 54.0116H198.989L193.532 71.1624Z" fill="#FDE566" stroke="#FFFCFC"/>
<path d="M198.988 54.0116H195.09L214.58 1L198.988 54.0116Z" fill="#FDF766" stroke="#FFFCFC" stroke-width="0.5"/>
<path d="M142.859 314.392H117.912L127.267 283.988H149.875L142.859 314.392Z" fill="#FD6666" stroke="#FFFCFC"/>
<path d="M149.875 283.988H127.267L135.842 256.703H156.112L149.875 283.988Z" fill="#FD6666" stroke="#FFFCFC"/>
<path d="M156.111 256.703H135.842L142.859 234.875H161.569L156.111 256.703Z" fill="#FD6666" stroke="#FFFCFC"/>
<path d="M161.568 234.875H142.858L150.654 209.928H167.025L161.568 234.875Z" fill="#FD7866" stroke="#FFFCFC"/>
<path d="M167.026 209.928H150.654L156.891 189.659H171.703L167.026 209.928Z" fill="#FD8A66" stroke="#FFFCFC"/>
<path d="M171.703 189.659H156.891L162.348 170.169H176.381L171.703 189.659Z" fill="#FD9366" stroke="#FFFCFC"/>
<path d="M176.38 170.169H163.127L169.364 149.121H181.058L176.38 170.169Z" fill="#FD9C66" stroke="#FFFCFC"/>
<path d="M181.058 149.121H169.364L176.381 128.072H185.735L181.058 149.121Z" fill="#FD9C66" stroke="#FFFCFC"/>
<path d="M185.736 128.072H175.601L182.617 105.464H191.193L185.736 128.072Z" fill="#FDAE66" stroke="#FFFCFC"/>
<path d="M191.193 105.464H182.617L188.074 88.3132H195.091L191.193 105.464Z" fill="#FDC066" stroke="#FFFCFC"/>
<path d="M195.09 88.3132H188.074L193.531 71.1624H198.988L197.039 78.9583L195.09 88.3132Z" fill="#FDD366" stroke="#FFFCFC"/>
<path d="M198.988 71.1624H193.531L198.988 54.0116H202.886L198.988 71.1624Z" fill="#FDE566" stroke="#FFFCFC"/>
<path d="M202.886 54.0116H198.988L214.58 1.77957L202.886 54.0116Z" fill="#FDF766" stroke="#FFFCFC" stroke-width="0.5"/>
<path d="M170.144 314.392H142.858L149.875 283.988H174.821L170.144 314.392Z" fill="#FD6666" stroke="#FFFCFC"/>
<path d="M174.822 283.988H149.875L156.112 256.703H178.72L174.822 283.988Z" fill="#FD6666" stroke="#FFFCFC"/>
<path d="M181.838 234.875H160.789L167.026 209.928H184.956L181.838 234.875Z" fill="#FD7866" stroke="#FFFCFC"/>
<path d="M178.719 256.703H156.111L160.789 234.875H181.838L178.719 256.703Z" fill="#FD6666" stroke="#FFFCFC"/>
<path d="M184.956 209.928H167.025L171.703 189.659H188.074L184.956 209.928Z" fill="#FD8A66" stroke="#FFFCFC"/>
<path d="M188.074 189.659H171.703L176.381 170.169H190.413L188.074 189.659Z" fill="#FD9366" stroke="#FFFCFC"/>
<path d="M190.413 170.169H176.38L181.058 149.121H193.531L190.413 170.169Z" fill="#FD9C66" stroke="#FFFCFC"/>
<path d="M193.531 149.121H181.058L185.736 128.072H196.65L193.531 149.121Z" fill="#FD9C66" stroke="#FFFCFC"/>
<path d="M196.65 128.072H185.735L191.192 105.464H199.768L196.65 128.072Z" fill="#FDAE66" stroke="#FFFCFC"/>
<path d="M199.768 105.464H191.193L195.091 88.3132H202.107L199.768 105.464Z" fill="#FDC066" stroke="#FFFCFC"/>
<path d="M202.107 88.3132H195.09L198.988 71.1624H205.225L202.107 88.3132Z" fill="#FDD366" stroke="#FFFCFC"/>
<path d="M205.225 71.1624H198.988L202.886 54.0116H207.564L205.225 71.1624Z" fill="#FDE566" stroke="#FFFCFC"/>
<path d="M207.564 54.0116H202.886L214.58 1L207.564 54.0116Z" fill="#FDF766" stroke="#FFFCFC" stroke-width="0.5"/>
<path d="M199.768 314.392H170.923L174.821 283.988H201.327L199.768 314.392Z" fill="#FD6666" stroke="#FFFCFC"/>
<path d="M201.327 283.988H174.821L178.719 256.703H202.886L201.327 283.988Z" fill="#FD6666" stroke="#FFFCFC"/>
<path d="M225.494 283.988H201.327L202.886 256.703H224.715L225.494 283.988Z" fill="#FD6666" stroke="#FFFCFC"/>
<path d="M202.886 256.703H178.719L181.838 234.875H203.666L202.886 256.703Z" fill="#FD6666" stroke="#FFFCFC"/>
<path d="M203.666 234.875H181.838L184.956 209.928H205.225L203.666 234.875Z" fill="#FD7866" stroke="#FFFCFC"/>
<path d="M205.225 209.928H184.956L188.074 189.659H206.005L205.225 209.928Z" fill="#FD8A66" stroke="#FFFCFC"/>
<path d="M206.005 189.659H188.074L190.413 170.169H206.784L206.005 189.659Z" fill="#FD9366" stroke="#FFFCFC"/>
<path d="M206.784 170.169H190.413L193.531 149.121H207.564L206.784 170.169Z" fill="#FD9C66" stroke="#FFFCFC"/>
<path d="M207.564 149.121H193.531L196.65 128.072H208.343L207.564 149.121Z" fill="#FD9C66" stroke="#FFFCFC"/>
<path d="M208.344 128.072H196.65L199.768 105.464H209.903L208.344 128.072Z" fill="#FDAE66" stroke="#FFFCFC"/>
<path d="M209.903 105.464H199.768L202.107 88.3132H210.682L209.903 105.464Z" fill="#FDC066" stroke="#FFFCFC"/>
<path d="M210.682 88.3132H202.107L205.225 71.1624H211.462L210.682 88.3132Z" fill="#FDD366" stroke="#FFFCFC"/>
<path d="M211.462 71.1624H205.225L207.564 54.0116H212.241L211.462 71.1624Z" fill="#FDE566" stroke="#FFFCFC"/>
<path d="M212.241 54.0116H207.564L214.58 1.77957L212.241 54.0116Z" fill="#FDF766" stroke="#FFFCFC" stroke-width="0.5"/>
<path d="M227.053 314.392H199.768L201.327 283.988H225.494L227.053 314.392Z" fill="#FD6666" stroke="#FFFCFC"/>
<path d="M224.715 256.703H202.886L203.666 234.875H223.935L224.715 256.703Z" fill="#FD6666" stroke="#FFFCFC"/>
<path d="M223.935 234.875H203.666L205.225 209.928H223.156L223.935 234.875Z" fill="#FD7866" stroke="#FFFCFC"/>
<path d="M223.155 209.928H205.225L206.005 189.659H222.376L223.155 209.928Z" fill="#FD8A66" stroke="#FFFCFC"/>
<path d="M222.376 189.659H206.005L206.784 170.169H221.597L222.376 189.659Z" fill="#FD9366" stroke="#FFFCFC"/>
<path d="M221.596 170.169H206.784L207.564 149.121H220.817L221.596 170.169Z" fill="#FD9C66" stroke="#FFFCFC"/>
<path d="M220.817 149.121H207.564L208.344 128.072H220.037L220.817 149.121Z" fill="#FD9C66" stroke="#FFFCFC"/>
<path d="M220.037 128.072H208.343L209.902 105.464H218.478L220.037 128.072Z" fill="#FDAE66" stroke="#FFFCFC"/>
<path d="M218.478 105.464H209.903L210.682 88.3132H217.699L218.478 105.464Z" fill="#FDC066" stroke="#FFFCFC"/>
<path d="M217.698 88.3132H210.682L211.462 71.1624H216.919L217.698 88.3132Z" fill="#FDD366" stroke="#FFFCFC"/>
<path d="M216.919 71.1624H211.462L212.241 54.0116H216.919V71.1624Z" fill="#FDE566" stroke="#FFFCFC"/>
<path d="M216.919 54.0116H212.241L214.58 1L216.919 54.0116Z" fill="#FDF766" stroke="#FFFCFC" stroke-width="0.5"/>
<path d="M256.677 314.392H227.053L225.494 283.988H252L256.677 314.392Z" fill="#FD6666" stroke="#FFFCFC"/>
<path d="M225.494 283.988H252L248.882 256.703H224.715L225.494 283.988Z" fill="#FD6666" stroke="#FFFCFC"/>
<path d="M224.715 256.703H248.882L245.763 234.875H223.935L224.715 256.703Z" fill="#FD6666" stroke="#FFFCFC"/>
<path d="M223.935 234.875H245.764L242.645 209.928H223.156L223.935 234.875Z" fill="#FD7866" stroke="#FFFCFC"/>
<path d="M223.156 209.928H242.645L239.527 189.659H222.376L223.156 209.928Z" fill="#FD8A66" stroke="#FFFCFC"/>
<path d="M222.376 189.659H239.527L237.188 170.169H221.596L222.376 189.659Z" fill="#FD9366" stroke="#FFFCFC"/>
<path d="M221.596 170.169H237.188L234.07 149.121H220.817L221.596 170.169Z" fill="#FD9C66" stroke="#FFFCFC"/>
<path d="M220.817 149.121H234.07L231.731 128.072H220.037L220.817 149.121Z" fill="#FD9C66" stroke="#FFFCFC"/>
<path d="M220.037 128.072H231.731L228.613 105.464H218.478L220.037 128.072Z" fill="#FDAE66" stroke="#FFFCFC"/>
<path d="M218.478 105.464H228.612L226.274 88.3132H217.698L218.478 105.464Z" fill="#FDC066" stroke="#FFFCFC"/>
<path d="M217.699 88.3132H226.274L223.935 71.1624H216.919L217.699 88.3132Z" fill="#FDD366" stroke="#FFFCFC"/>
<path d="M216.919 71.1624H223.935L221.596 54.0116H216.919V71.1624Z" fill="#FDE566" stroke="#FFFCFC"/>
<path d="M216.919 54.0116H221.596L214.58 1L216.919 54.0116Z" fill="#FDF766" stroke="#FFFCFC" stroke-width="0.5"/>
<path d="M256.677 314.392H285.522L278.506 283.988H252L256.677 314.392Z" fill="#FD6666" stroke="#FFFCFC"/>
<path d="M252 283.988H278.506L272.269 256.703H248.882L252 283.988Z" fill="#FD6666" stroke="#FFFCFC"/>
<path d="M248.882 256.703H272.269L267.592 234.875H245.764L248.882 256.703Z" fill="#FD6666" stroke="#FFFCFC"/>
<path d="M245.763 234.875H267.592L261.355 209.928H242.645L245.763 234.875Z" fill="#FD7866" stroke="#FFFCFC"/>
<path d="M242.645 209.928H261.355L256.678 189.659H239.527L242.645 209.928Z" fill="#FD8A66" stroke="#FFFCFC"/>
<path d="M239.527 189.659H256.678L252.78 170.169H237.188L239.527 189.659Z" fill="#FD9366" stroke="#FFFCFC"/>
<path d="M237.188 170.169H252.78L248.102 149.121H234.07L237.188 170.169Z" fill="#FD9C66" stroke="#FFFCFC"/>
<path d="M234.07 149.121H248.102L242.645 128.072H231.731L234.07 149.121Z" fill="#FD9C66" stroke="#FFFCFC"/>
<path d="M231.731 128.072H242.645L237.968 105.464H228.613L231.731 128.072Z" fill="#FDAE66" stroke="#FFFCFC"/>
<path d="M228.613 105.464H237.968L234.07 88.3132H226.274L228.613 105.464Z" fill="#FDC066" stroke="#FFFCFC"/>
<path d="M226.274 88.3132H234.07L230.172 71.1624H223.935L226.274 88.3132Z" fill="#FDD366" stroke="#FFFCFC"/>
<path d="M223.935 71.1624H230.172L226.274 54.0116H221.596L223.935 71.1624Z" fill="#FDE566" stroke="#FFFCFC"/>
<path d="M221.596 54.0116H226.274L214.58 1.77957L221.596 54.0116Z" fill="#FDF766" stroke="#FFFCFC" stroke-width="0.5"/>
<path d="M285.522 314.392H315.926L305.791 283.988H278.506L285.522 314.392Z" fill="#FD6666" stroke="#FFFCFC"/>
<path d="M278.506 283.988H305.791L297.216 256.703H272.269L278.506 283.988Z" fill="#FD6666" stroke="#FFFCFC"/>
<path d="M272.269 256.703H297.216L290.2 234.875H267.592L272.269 256.703Z" fill="#FD6666" stroke="#FFFCFC"/>
<path d="M267.592 234.875H290.2L281.624 209.928H261.355L267.592 234.875Z" fill="#FD7866" stroke="#FFFCFC"/>
<path d="M261.355 209.928H281.624L275.388 189.659H256.678L261.355 209.928Z" fill="#FD8A66" stroke="#FFFCFC"/>
<path d="M256.678 189.659H275.388L269.151 170.169H252.78L256.678 189.659Z" fill="#FD9366" stroke="#FFFCFC"/>
<path d="M252.78 170.169H269.151L262.135 149.121H248.102L252.78 170.169Z" fill="#FD9C66" stroke="#FFFCFC"/>
<path d="M248.102 149.121H262.135L255.118 128.072H242.645L248.102 149.121Z" fill="#FD9C66" stroke="#FFFCFC"/>
<path d="M242.645 128.072H255.119L248.102 105.464H237.968L242.645 128.072Z" fill="#FDAE66" stroke="#FFFCFC"/>
<path d="M237.968 105.464H248.102L242.645 88.3132H234.07L237.968 105.464Z" fill="#FDC066" stroke="#FFFCFC"/>
<path d="M234.07 88.3132H242.645L236.409 71.1624H230.172L234.07 88.3132Z" fill="#FDD366" stroke="#FFFCFC"/>
<path d="M230.172 71.1624H236.408L230.951 54.0116H226.274L230.172 71.1624Z" fill="#FDE566" stroke="#FFFCFC"/>
<path d="M226.274 54.0116H230.951L214.58 1.77957L226.274 54.0116Z" fill="#FDF766" stroke="#FFFCFC" stroke-width="0.5"/>
<path d="M315.926 314.392H343.991L330.738 283.988H305.792L315.926 314.392Z" fill="#FD6666" stroke="#FFFCFC"/>
<path d="M305.791 283.988H330.738L319.044 256.703H297.216L305.791 283.988Z" fill="#FD6666" stroke="#FFFCFC"/>
<path d="M297.216 256.703H319.044L310.469 234.875H290.2L297.216 256.703Z" fill="#FD6666" stroke="#FFFCFC"/>
<path d="M290.199 234.875H310.469L300.334 209.928H281.624L290.199 234.875Z" fill="#FD7866" stroke="#FFFCFC"/>
<path d="M281.624 209.928H300.334L291.759 189.659H275.388L281.624 209.928Z" fill="#FD8A66" stroke="#FFFCFC"/>
<path d="M275.388 189.659H291.759L283.183 170.169H269.151L275.388 189.659Z" fill="#FD9366" stroke="#FFFCFC"/>
<path d="M269.151 170.169H283.183L274.608 149.121H262.135L269.151 170.169Z" fill="#FD9C66" stroke="#FFFCFC"/>
<path d="M262.134 149.121H274.608L266.032 128.072H255.118L262.134 149.121Z" fill="#FD9C66" stroke="#FFFCFC"/>
<path d="M255.118 128.072H266.032L256.677 105.464H248.102L255.118 128.072Z" fill="#FDAE66" stroke="#FFFCFC"/>
<path d="M248.102 105.464H256.678L249.661 88.3132H242.645L248.102 105.464Z" fill="#FDC066" stroke="#FFFCFC"/>
<path d="M242.645 88.3132H249.661L242.645 71.1624H236.408L242.645 88.3132Z" fill="#FDD366" stroke="#FFFCFC"/>
<path d="M236.408 71.1624H242.645L235.629 54.0116H230.951L236.408 71.1624Z" fill="#FDE566" stroke="#FFFCFC"/>
<path d="M230.951 54.0116H235.629L214.58 1.77957L230.951 54.0116Z" fill="#FDF766" stroke="#FFFCFC" stroke-width="0.5"/>
<path d="M343.991 314.392H369.717L354.125 283.988H330.738L343.991 314.392Z" fill="#FD6666" stroke="#FFFCFC"/>
<path d="M330.738 283.988H354.125L340.872 256.703H319.044L330.738 283.988Z" fill="#FD6666" stroke="#FFFCFC"/>
<path d="M319.044 256.703H340.872L329.958 234.875H310.469L319.044 256.703Z" fill="#FD6666" stroke="#FFFCFC"/>
<path d="M310.469 234.875H329.958L317.485 209.928H300.334L310.469 234.875Z" fill="#FD7866" stroke="#FFFCFC"/>
<path d="M299.555 209.928H317.485L307.35 189.659H291.759L299.555 209.928Z" fill="#FD8A66" stroke="#FFFCFC"/>
<path d="M291.759 189.659H307.351L297.996 170.169H283.184L291.759 189.659Z" fill="#FD9366" stroke="#FFFCFC"/>
<path d="M283.183 170.169H297.995L287.081 149.121H274.608L283.183 170.169Z" fill="#FD9C66" stroke="#FFFCFC"/>
<path d="M274.608 149.121H287.081L276.947 128.072H266.033L274.608 149.121Z" fill="#FD9C66" stroke="#FFFCFC"/>
<path d="M266.033 128.072H276.947L266.033 105.464H256.678L266.033 128.072Z" fill="#FDAE66" stroke="#FFFCFC"/>
<path d="M256.677 105.464H266.032L256.677 88.3132H249.661L256.677 105.464Z" fill="#FDC066" stroke="#FFFCFC"/>
<path d="M249.661 88.3132H256.678L248.102 71.1624H242.645L249.661 88.3132Z" fill="#FDD366" stroke="#FFFCFC"/>
<path d="M243.425 71.1624H248.102L239.527 54.0116H235.629L243.425 71.1624Z" fill="#FDE566" stroke="#FFFCFC"/>
<path d="M235.629 54.0116H239.527L214.58 1.77957L235.629 54.0116Z" fill="#FDF766" stroke="#FFFCFC" stroke-width="0.5"/>
<path d="M370.497 314.392L394.664 313.613L376.733 283.988H354.125L370.497 314.392Z" fill="#FD6666" stroke="#FFFCFC"/>
<path d="M354.125 283.988H376.733L360.362 256.703H340.873L354.125 283.988Z" fill="#FD6666" stroke="#FFFCFC"/>
<path d="M340.873 256.703H360.362L347.889 234.875H329.958L340.873 256.703Z" fill="#FD6666" stroke="#FFFCFC"/>
<path d="M329.958 234.875H347.889L333.856 209.928H317.485L329.958 234.875Z" fill="#FD7866" stroke="#FFFCFC"/>
<path d="M317.485 209.928H333.856L322.163 189.659H307.351L317.485 209.928Z" fill="#FD8A66" stroke="#FFFCFC"/>
<path d="M307.351 189.659H322.163L311.249 170.169H297.996L307.351 189.659Z" fill="#FD9366" stroke="#FFFCFC"/>
<path d="M297.995 170.169H311.248L298.775 149.121H287.081L297.995 170.169Z" fill="#FD9C66" stroke="#FFFCFC"/>
<path d="M287.861 149.121H298.775L286.302 128.072H276.947L287.861 149.121Z" fill="#FD9C66" stroke="#FFFCFC"/>
<path d="M276.947 128.072H286.302L273.829 105.464H266.033L276.947 128.072Z" fill="#FDAE66" stroke="#FFFCFC"/>
<path d="M266.033 105.464H273.829L263.694 88.3132H256.678L266.033 105.464Z" fill="#FDC066" stroke="#FFFCFC"/>
<path d="M256.677 88.3132H263.694L254.339 71.1624H248.102L256.677 88.3132Z" fill="#FDD366" stroke="#FFFCFC"/>
<path d="M248.102 71.1624H254.339L244.204 54.0116H239.527L248.102 71.1624Z" fill="#FDE566" stroke="#FFFCFC"/>
<path d="M239.527 54.0116H244.204L214.58 1.77957L239.527 54.0116Z" fill="#FDF766" stroke="#FFFCFC" stroke-width="0.5"/>
<path d="M32.9374 313.613C-49.6984 155.357 71.1368 -2.11833 214.58 1.77958C128.046 62.587 39.174 205.251 32.9374 313.613Z" fill="url(#paint3_linear)"/>
<path d="M32.9374 313.613C-49.6984 155.357 71.1368 -2.11833 214.58 1.77958M32.9374 313.613C12.828 156.137 86.7286 45.0961 214.58 1.77958M32.9374 313.613C39.174 205.251 128.046 62.587 214.58 1.77958" stroke="#FFFCFC" stroke-width="2"/>
<path d="M214.58 1.77957C369.717 1.77957 473.402 156.917 395.443 312.833C375.954 159.255 295.657 54.0116 214.58 1.77957Z" fill="url(#paint4_linear)"/>
<path d="M214.58 1.77957C369.717 1.77957 473.402 156.917 395.443 312.833M214.58 1.77957C371.276 46.9954 411.035 179.524 395.443 312.833M214.58 1.77957C295.657 54.0116 375.954 159.255 395.443 312.833" stroke="#FFFCFC" stroke-width="2"/>
<path d="M393.884 315.172C296.019 464.49 98.7674 440.013 32.2196 312.881C127.505 358.775 296.239 362.57 393.884 315.172Z" fill="url(#paint5_linear)"/>
<path d="M393.884 315.172C296.019 464.49 98.7674 440.013 32.2196 312.881M393.884 315.172C266.208 409.522 132.384 403.377 32.2196 312.881M393.884 315.172C296.239 362.57 127.505 358.775 32.2196 312.881" stroke="#FFFCFC" stroke-width="2"/>
<path d="M61.0024 314.392H34.4966L52.427 283.209H76.594L61.0024 314.392Z" fill="#FD6666" stroke="#FFFCFC"/>
<path d="M76.5938 283.209H52.4268L68.0184 255.924L89.0671 256.703L76.5938 283.209Z" fill="#FD6666" stroke="#FFFCFC"/>
<path d="M89.0673 256.703L68.0186 255.924L81.2715 232.536H101.541L89.0673 256.703Z" fill="#FD6666" stroke="#FFFCFC"/>
<path d="M100.761 234.095H80.4917L94.5242 209.928L112.455 210.708L100.761 234.095Z" fill="#FD7866" stroke="#FFFCFC"/>
<path d="M112.455 209.928L94.5244 209.149L106.218 189.659H122.589L112.455 209.928Z" fill="#FD8A66" stroke="#FFFCFC"/>
<path d="M122.589 189.659H106.218L117.132 170.169H131.944L122.589 189.659Z" fill="#FD9366" stroke="#FFFCFC"/>
<path d="M132.724 170.169H117.132L129.606 149.121H142.859L132.724 170.169Z" fill="#FD9C66" stroke="#FFFCFC"/>
<path d="M142.858 149.121H129.605L141.299 128.072H152.993L142.858 149.121Z" fill="#FD9C66" stroke="#FFFCFC"/>
<path d="M152.993 128.072H141.299L154.552 105.464H164.687L152.993 128.072Z" fill="#FDAE66" stroke="#FFFCFC"/>
<path d="M163.907 105.464H154.552L164.687 88.3132H172.483L163.907 105.464Z" fill="#FDC066" stroke="#FFFCFC"/>
<path d="M172.483 88.3132H164.687L174.822 71.1624H181.058L172.483 88.3132Z" fill="#FDD366" stroke="#FFFCFC"/>
<path d="M181.058 71.1624H174.821L184.176 54.0116H189.633L181.058 71.1624Z" fill="#FDE566" stroke="#FFFCFC"/>
<path d="M189.633 54.0116H184.176L215.36 1.77957L189.633 54.0116Z" fill="#FDF766" stroke="#FFFCFC" stroke-width="0.5"/>
<path d="M89.0674 314.392H61.0024L76.5941 283.209H101.541L89.0674 314.392Z" fill="#FD6666" stroke="#FFFCFC"/>
<path d="M101.541 283.209H76.5942L89.0676 256.703H112.455L101.541 283.209Z" fill="#FD6666" stroke="#FFFCFC"/>
<path d="M112.455 256.703H89.8467L100.761 234.875H121.03L112.455 256.703Z" fill="#FD6666" stroke="#FFFCFC"/>
<path d="M121.03 234.875L100.761 234.095L111.675 209.928H131.165L121.03 234.875Z" fill="#FD7866" stroke="#FFFCFC"/>
<path d="M131.165 209.928H112.455L121.81 189.659H139.74L131.165 209.928Z" fill="#FD8A66" stroke="#FFFCFC"/>
<path d="M139.74 189.659H122.589L131.944 170.169H147.536L139.74 189.659Z" fill="#FD9366" stroke="#FFFCFC"/>
<path d="M147.536 170.169H132.724L142.859 149.121H156.112L147.536 170.169Z" fill="#FD9C66" stroke="#FFFCFC"/>
<path d="M156.111 149.121H142.858L152.993 128.072H164.687L156.111 149.121Z" fill="#FD9C66" stroke="#FFFCFC"/>
<path d="M164.687 128.072H152.993L164.687 105.464H173.262L164.687 128.072Z" fill="#FDAE66" stroke="#FFFCFC"/>
<path d="M173.262 105.464H163.907L172.483 88.3132H180.278L173.262 105.464Z" fill="#FDC066" stroke="#FFFCFC"/>
<path d="M180.278 88.3132H172.482L181.058 71.1624H187.294L180.278 88.3132Z" fill="#FDD366" stroke="#FFFCFC"/>
<path d="M188.074 71.1624H181.058L189.634 54.0116H194.311L188.074 71.1624Z" fill="#FDE566" stroke="#FFFCFC"/>
<path d="M194.311 54.0116H189.633L214.58 1.77957L194.311 54.0116Z" fill="#FDF766" stroke="#FFFCFC" stroke-width="0.5"/>
<path d="M117.912 314.392H89.0674L101.541 283.209L127.267 283.988L117.912 314.392Z" fill="#FD6666" stroke="#FFFCFC"/>
<path d="M127.267 283.988L101.541 283.209L112.455 256.703H135.842L127.267 283.988Z" fill="#FD6666" stroke="#FFFCFC"/>
<path d="M135.842 256.703H112.455L121.03 234.875H142.858L135.842 256.703Z" fill="#FD6666" stroke="#FFFCFC"/>
<path d="M142.858 234.875H121.81L131.165 209.928H150.654L142.858 234.875Z" fill="#FD7866" stroke="#FFFCFC"/>
<path d="M150.654 209.928H131.165L139.74 189.659H156.891L150.654 209.928Z" fill="#FD8A66" stroke="#FFFCFC"/>
<path d="M156.891 189.659H139.74L147.536 170.169H163.128L156.891 189.659Z" fill="#FD9366" stroke="#FFFCFC"/>
<path d="M163.128 170.169H147.536L156.112 149.121H169.364L163.128 170.169Z" fill="#FD9C66" stroke="#FFFCFC"/>
<path d="M169.364 149.121H156.111L164.687 128.072H176.38L169.364 149.121Z" fill="#FD9C66" stroke="#FFFCFC"/>
<path d="M175.601 128.072H164.687L173.262 105.464H182.617L175.601 128.072Z" fill="#FDAE66" stroke="#FFFCFC"/>
<path d="M182.617 105.464H173.262L180.278 88.3132H188.074L182.617 105.464Z" fill="#FDC066" stroke="#FFFCFC"/>
<path d="M188.074 88.3132H180.278L187.295 71.1624H193.531L188.074 88.3132Z" fill="#FDD366" stroke="#FFFCFC"/>
<path d="M193.532 71.1624H187.295L194.311 54.0116H198.989L193.532 71.1624Z" fill="#FDE566" stroke="#FFFCFC"/>
<path d="M198.988 54.0116H195.09L214.58 1L198.988 54.0116Z" fill="#FDF766" stroke="#FFFCFC" stroke-width="0.5"/>
<path d="M142.859 314.392H117.912L127.267 283.988H149.875L142.859 314.392Z" fill="#FD6666" stroke="#FFFCFC"/>
<path d="M149.875 283.988H127.267L135.842 256.703H156.112L149.875 283.988Z" fill="#FD6666" stroke="#FFFCFC"/>
<path d="M156.111 256.703H135.842L142.859 234.875H161.569L156.111 256.703Z" fill="#FD6666" stroke="#FFFCFC"/>
<path d="M161.568 234.875H142.858L150.654 209.928H167.025L161.568 234.875Z" fill="#FD7866" stroke="#FFFCFC"/>
<path d="M167.026 209.928H150.654L156.891 189.659H171.703L167.026 209.928Z" fill="#FD8A66" stroke="#FFFCFC"/>
<path d="M171.703 189.659H156.891L162.348 170.169H176.381L171.703 189.659Z" fill="#FD9366" stroke="#FFFCFC"/>
<path d="M176.38 170.169H163.127L169.364 149.121H181.058L176.38 170.169Z" fill="#FD9C66" stroke="#FFFCFC"/>
<path d="M181.058 149.121H169.364L176.381 128.072H185.735L181.058 149.121Z" fill="#FD9C66" stroke="#FFFCFC"/>
<path d="M185.736 128.072H175.601L182.617 105.464H191.193L185.736 128.072Z" fill="#FDAE66" stroke="#FFFCFC"/>
<path d="M191.193 105.464H182.617L188.074 88.3132H195.091L191.193 105.464Z" fill="#FDC066" stroke="#FFFCFC"/>
<path d="M195.09 88.3132H188.074L193.531 71.1624H198.988L197.039 78.9583L195.09 88.3132Z" fill="#FDD366" stroke="#FFFCFC"/>
<path d="M198.988 71.1624H193.531L198.988 54.0116H202.886L198.988 71.1624Z" fill="#FDE566" stroke="#FFFCFC"/>
<path d="M202.886 54.0116H198.988L214.58 1.77957L202.886 54.0116Z" fill="#FDF766" stroke="#FFFCFC" stroke-width="0.5"/>
<path d="M170.144 314.392H142.858L149.875 283.988H174.821L170.144 314.392Z" fill="#FD6666" stroke="#FFFCFC"/>
<path d="M174.822 283.988H149.875L156.112 256.703H178.72L174.822 283.988Z" fill="#FD6666" stroke="#FFFCFC"/>
<path d="M181.838 234.875H160.789L167.026 209.928H184.956L181.838 234.875Z" fill="#FD7866" stroke="#FFFCFC"/>
<path d="M178.719 256.703H156.111L160.789 234.875H181.838L178.719 256.703Z" fill="#FD6666" stroke="#FFFCFC"/>
<path d="M184.956 209.928H167.025L171.703 189.659H188.074L184.956 209.928Z" fill="#FD8A66" stroke="#FFFCFC"/>
<path d="M188.074 189.659H171.703L176.381 170.169H190.413L188.074 189.659Z" fill="#FD9366" stroke="#FFFCFC"/>
<path d="M190.413 170.169H176.38L181.058 149.121H193.531L190.413 170.169Z" fill="#FD9C66" stroke="#FFFCFC"/>
<path d="M193.531 149.121H181.058L185.736 128.072H196.65L193.531 149.121Z" fill="#FD9C66" stroke="#FFFCFC"/>
<path d="M196.65 128.072H185.735L191.192 105.464H199.768L196.65 128.072Z" fill="#FDAE66" stroke="#FFFCFC"/>
<path d="M199.768 105.464H191.193L195.091 88.3132H202.107L199.768 105.464Z" fill="#FDC066" stroke="#FFFCFC"/>
<path d="M202.107 88.3132H195.09L198.988 71.1624H205.225L202.107 88.3132Z" fill="#FDD366" stroke="#FFFCFC"/>
<path d="M205.225 71.1624H198.988L202.886 54.0116H207.564L205.225 71.1624Z" fill="#FDE566" stroke="#FFFCFC"/>
<path d="M207.564 54.0116H202.886L214.58 1L207.564 54.0116Z" fill="#FDF766" stroke="#FFFCFC" stroke-width="0.5"/>
<path d="M199.768 314.392H170.923L174.821 283.988H201.327L199.768 314.392Z" fill="#FD6666" stroke="#FFFCFC"/>
<path d="M201.327 283.988H174.821L178.719 256.703H202.886L201.327 283.988Z" fill="#FD6666" stroke="#FFFCFC"/>
<path d="M225.494 283.988H201.327L202.886 256.703H224.715L225.494 283.988Z" fill="#FD6666" stroke="#FFFCFC"/>
<path d="M202.886 256.703H178.719L181.838 234.875H203.666L202.886 256.703Z" fill="#FD6666" stroke="#FFFCFC"/>
<path d="M203.666 234.875H181.838L184.956 209.928H205.225L203.666 234.875Z" fill="#FD7866" stroke="#FFFCFC"/>
<path d="M205.225 209.928H184.956L188.074 189.659H206.005L205.225 209.928Z" fill="#FD8A66" stroke="#FFFCFC"/>
<path d="M206.005 189.659H188.074L190.413 170.169H206.784L206.005 189.659Z" fill="#FD9366" stroke="#FFFCFC"/>
<path d="M206.784 170.169H190.413L193.531 149.121H207.564L206.784 170.169Z" fill="#FD9C66" stroke="#FFFCFC"/>
<path d="M207.564 149.121H193.531L196.65 128.072H208.343L207.564 149.121Z" fill="#FD9C66" stroke="#FFFCFC"/>
<path d="M208.344 128.072H196.65L199.768 105.464H209.903L208.344 128.072Z" fill="#FDAE66" stroke="#FFFCFC"/>
<path d="M209.903 105.464H199.768L202.107 88.3132H210.682L209.903 105.464Z" fill="#FDC066" stroke="#FFFCFC"/>
<path d="M210.682 88.3132H202.107L205.225 71.1624H211.462L210.682 88.3132Z" fill="#FDD366" stroke="#FFFCFC"/>
<path d="M211.462 71.1624H205.225L207.564 54.0116H212.241L211.462 71.1624Z" fill="#FDE566" stroke="#FFFCFC"/>
<path d="M212.241 54.0116H207.564L214.58 1.77957L212.241 54.0116Z" fill="#FDF766" stroke="#FFFCFC" stroke-width="0.5"/>
<path d="M227.053 314.392H199.768L201.327 283.988H225.494L227.053 314.392Z" fill="#FD6666" stroke="#FFFCFC"/>
<path d="M224.715 256.703H202.886L203.666 234.875H223.935L224.715 256.703Z" fill="#FD6666" stroke="#FFFCFC"/>
<path d="M223.935 234.875H203.666L205.225 209.928H223.156L223.935 234.875Z" fill="#FD7866" stroke="#FFFCFC"/>
<path d="M223.155 209.928H205.225L206.005 189.659H222.376L223.155 209.928Z" fill="#FD8A66" stroke="#FFFCFC"/>
<path d="M222.376 189.659H206.005L206.784 170.169H221.597L222.376 189.659Z" fill="#FD9366" stroke="#FFFCFC"/>
<path d="M221.596 170.169H206.784L207.564 149.121H220.817L221.596 170.169Z" fill="#FD9C66" stroke="#FFFCFC"/>
<path d="M220.817 149.121H207.564L208.344 128.072H220.037L220.817 149.121Z" fill="#FD9C66" stroke="#FFFCFC"/>
<path d="M220.037 128.072H208.343L209.902 105.464H218.478L220.037 128.072Z" fill="#FDAE66" stroke="#FFFCFC"/>
<path d="M218.478 105.464H209.903L210.682 88.3132H217.699L218.478 105.464Z" fill="#FDC066" stroke="#FFFCFC"/>
<path d="M217.698 88.3132H210.682L211.462 71.1624H216.919L217.698 88.3132Z" fill="#FDD366" stroke="#FFFCFC"/>
<path d="M216.919 71.1624H211.462L212.241 54.0116H216.919V71.1624Z" fill="#FDE566" stroke="#FFFCFC"/>
<path d="M216.919 54.0116H212.241L214.58 1L216.919 54.0116Z" fill="#FDF766" stroke="#FFFCFC" stroke-width="0.5"/>
<path d="M256.677 314.392H227.053L225.494 283.988H252L256.677 314.392Z" fill="#FD6666" stroke="#FFFCFC"/>
<path d="M225.494 283.988H252L248.882 256.703H224.715L225.494 283.988Z" fill="#FD6666" stroke="#FFFCFC"/>
<path d="M224.715 256.703H248.882L245.763 234.875H223.935L224.715 256.703Z" fill="#FD6666" stroke="#FFFCFC"/>
<path d="M223.935 234.875H245.764L242.645 209.928H223.156L223.935 234.875Z" fill="#FD7866" stroke="#FFFCFC"/>
<path d="M223.156 209.928H242.645L239.527 189.659H222.376L223.156 209.928Z" fill="#FD8A66" stroke="#FFFCFC"/>
<path d="M222.376 189.659H239.527L237.188 170.169H221.596L222.376 189.659Z" fill="#FD9366" stroke="#FFFCFC"/>
<path d="M221.596 170.169H237.188L234.07 149.121H220.817L221.596 170.169Z" fill="#FD9C66" stroke="#FFFCFC"/>
<path d="M220.817 149.121H234.07L231.731 128.072H220.037L220.817 149.121Z" fill="#FD9C66" stroke="#FFFCFC"/>
<path d="M220.037 128.072H231.731L228.613 105.464H218.478L220.037 128.072Z" fill="#FDAE66" stroke="#FFFCFC"/>
<path d="M218.478 105.464H228.612L226.274 88.3132H217.698L218.478 105.464Z" fill="#FDC066" stroke="#FFFCFC"/>
<path d="M217.699 88.3132H226.274L223.935 71.1624H216.919L217.699 88.3132Z" fill="#FDD366" stroke="#FFFCFC"/>
<path d="M216.919 71.1624H223.935L221.596 54.0116H216.919V71.1624Z" fill="#FDE566" stroke="#FFFCFC"/>
<path d="M216.919 54.0116H221.596L214.58 1L216.919 54.0116Z" fill="#FDF766" stroke="#FFFCFC" stroke-width="0.5"/>
<path d="M256.677 314.392H285.522L278.506 283.988H252L256.677 314.392Z" fill="#FD6666" stroke="#FFFCFC"/>
<path d="M252 283.988H278.506L272.269 256.703H248.882L252 283.988Z" fill="#FD6666" stroke="#FFFCFC"/>
<path d="M248.882 256.703H272.269L267.592 234.875H245.764L248.882 256.703Z" fill="#FD6666" stroke="#FFFCFC"/>
<path d="M245.763 234.875H267.592L261.355 209.928H242.645L245.763 234.875Z" fill="#FD7866" stroke="#FFFCFC"/>
<path d="M242.645 209.928H261.355L256.678 189.659H239.527L242.645 209.928Z" fill="#FD8A66" stroke="#FFFCFC"/>
<path d="M239.527 189.659H256.678L252.78 170.169H237.188L239.527 189.659Z" fill="#FD9366" stroke="#FFFCFC"/>
<path d="M237.188 170.169H252.78L248.102 149.121H234.07L237.188 170.169Z" fill="#FD9C66" stroke="#FFFCFC"/>
<path d="M234.07 149.121H248.102L242.645 128.072H231.731L234.07 149.121Z" fill="#FD9C66" stroke="#FFFCFC"/>
<path d="M231.731 128.072H242.645L237.968 105.464H228.613L231.731 128.072Z" fill="#FDAE66" stroke="#FFFCFC"/>
<path d="M228.613 105.464H237.968L234.07 88.3132H226.274L228.613 105.464Z" fill="#FDC066" stroke="#FFFCFC"/>
<path d="M226.274 88.3132H234.07L230.172 71.1624H223.935L226.274 88.3132Z" fill="#FDD366" stroke="#FFFCFC"/>
<path d="M223.935 71.1624H230.172L226.274 54.0116H221.596L223.935 71.1624Z" fill="#FDE566" stroke="#FFFCFC"/>
<path d="M221.596 54.0116H226.274L214.58 1.77957L221.596 54.0116Z" fill="#FDF766" stroke="#FFFCFC" stroke-width="0.5"/>
<path d="M285.522 314.392H315.926L305.791 283.988H278.506L285.522 314.392Z" fill="#FD6666" stroke="#FFFCFC"/>
<path d="M278.506 283.988H305.791L297.216 256.703H272.269L278.506 283.988Z" fill="#FD6666" stroke="#FFFCFC"/>
<path d="M272.269 256.703H297.216L290.2 234.875H267.592L272.269 256.703Z" fill="#FD6666" stroke="#FFFCFC"/>
<path d="M267.592 234.875H290.2L281.624 209.928H261.355L267.592 234.875Z" fill="#FD7866" stroke="#FFFCFC"/>
<path d="M261.355 209.928H281.624L275.388 189.659H256.678L261.355 209.928Z" fill="#FD8A66" stroke="#FFFCFC"/>
<path d="M256.678 189.659H275.388L269.151 170.169H252.78L256.678 189.659Z" fill="#FD9366" stroke="#FFFCFC"/>
<path d="M252.78 170.169H269.151L262.135 149.121H248.102L252.78 170.169Z" fill="#FD9C66" stroke="#FFFCFC"/>
<path d="M248.102 149.121H262.135L255.118 128.072H242.645L248.102 149.121Z" fill="#FD9C66" stroke="#FFFCFC"/>
<path d="M242.645 128.072H255.119L248.102 105.464H237.968L242.645 128.072Z" fill="#FDAE66" stroke="#FFFCFC"/>
<path d="M237.968 105.464H248.102L242.645 88.3132H234.07L237.968 105.464Z" fill="#FDC066" stroke="#FFFCFC"/>
<path d="M234.07 88.3132H242.645L236.409 71.1624H230.172L234.07 88.3132Z" fill="#FDD366" stroke="#FFFCFC"/>
<path d="M230.172 71.1624H236.408L230.951 54.0116H226.274L230.172 71.1624Z" fill="#FDE566" stroke="#FFFCFC"/>
<path d="M226.274 54.0116H230.951L214.58 1.77957L226.274 54.0116Z" fill="#FDF766" stroke="#FFFCFC" stroke-width="0.5"/>
<path d="M315.926 314.392H343.991L330.738 283.988H305.792L315.926 314.392Z" fill="#FD6666" stroke="#FFFCFC"/>
<path d="M305.791 283.988H330.738L319.044 256.703H297.216L305.791 283.988Z" fill="#FD6666" stroke="#FFFCFC"/>
<path d="M297.216 256.703H319.044L310.469 234.875H290.2L297.216 256.703Z" fill="#FD6666" stroke="#FFFCFC"/>
<path d="M290.199 234.875H310.469L300.334 209.928H281.624L290.199 234.875Z" fill="#FD7866" stroke="#FFFCFC"/>
<path d="M281.624 209.928H300.334L291.759 189.659H275.388L281.624 209.928Z" fill="#FD8A66" stroke="#FFFCFC"/>
<path d="M275.388 189.659H291.759L283.183 170.169H269.151L275.388 189.659Z" fill="#FD9366" stroke="#FFFCFC"/>
<path d="M269.151 170.169H283.183L274.608 149.121H262.135L269.151 170.169Z" fill="#FD9C66" stroke="#FFFCFC"/>
<path d="M262.134 149.121H274.608L266.032 128.072H255.118L262.134 149.121Z" fill="#FD9C66" stroke="#FFFCFC"/>
<path d="M255.118 128.072H266.032L256.677 105.464H248.102L255.118 128.072Z" fill="#FDAE66" stroke="#FFFCFC"/>
<path d="M248.102 105.464H256.678L249.661 88.3132H242.645L248.102 105.464Z" fill="#FDC066" stroke="#FFFCFC"/>
<path d="M242.645 88.3132H249.661L242.645 71.1624H236.408L242.645 88.3132Z" fill="#FDD366" stroke="#FFFCFC"/>
<path d="M236.408 71.1624H242.645L235.629 54.0116H230.951L236.408 71.1624Z" fill="#FDE566" stroke="#FFFCFC"/>
<path d="M230.951 54.0116H235.629L214.58 1.77957L230.951 54.0116Z" fill="#FDF766" stroke="#FFFCFC" stroke-width="0.5"/>
<path d="M343.991 314.392H369.717L354.125 283.988H330.738L343.991 314.392Z" fill="#FD6666" stroke="#FFFCFC"/>
<path d="M330.738 283.988H354.125L340.872 256.703H319.044L330.738 283.988Z" fill="#FD6666" stroke="#FFFCFC"/>
<path d="M319.044 256.703H340.872L329.958 234.875H310.469L319.044 256.703Z" fill="#FD6666" stroke="#FFFCFC"/>
<path d="M310.469 234.875H329.958L317.485 209.928H300.334L310.469 234.875Z" fill="#FD7866" stroke="#FFFCFC"/>
<path d="M299.555 209.928H317.485L307.35 189.659H291.759L299.555 209.928Z" fill="#FD8A66" stroke="#FFFCFC"/>
<path d="M291.759 189.659H307.351L297.996 170.169H283.184L291.759 189.659Z" fill="#FD9366" stroke="#FFFCFC"/>
<path d="M283.183 170.169H297.995L287.081 149.121H274.608L283.183 170.169Z" fill="#FD9C66" stroke="#FFFCFC"/>
<path d="M274.608 149.121H287.081L276.947 128.072H266.033L274.608 149.121Z" fill="#FD9C66" stroke="#FFFCFC"/>
<path d="M266.033 128.072H276.947L266.033 105.464H256.678L266.033 128.072Z" fill="#FDAE66" stroke="#FFFCFC"/>
<path d="M256.677 105.464H266.032L256.677 88.3132H249.661L256.677 105.464Z" fill="#FDC066" stroke="#FFFCFC"/>
<path d="M249.661 88.3132H256.678L248.102 71.1624H242.645L249.661 88.3132Z" fill="#FDD366" stroke="#FFFCFC"/>
<path d="M243.425 71.1624H248.102L239.527 54.0116H235.629L243.425 71.1624Z" fill="#FDE566" stroke="#FFFCFC"/>
<path d="M235.629 54.0116H239.527L214.58 1.77957L235.629 54.0116Z" fill="#FDF766" stroke="#FFFCFC" stroke-width="0.5"/>
<path d="M370.497 314.392L394.664 313.613L376.733 283.988H354.125L370.497 314.392Z" fill="#FD6666" stroke="#FFFCFC"/>
<path d="M354.125 283.988H376.733L360.362 256.703H340.873L354.125 283.988Z" fill="#FD6666" stroke="#FFFCFC"/>
<path d="M340.873 256.703H360.362L347.889 234.875H329.958L340.873 256.703Z" fill="#FD6666" stroke="#FFFCFC"/>
<path d="M329.958 234.875H347.889L333.856 209.928H317.485L329.958 234.875Z" fill="#FD7866" stroke="#FFFCFC"/>
<path d="M317.485 209.928H333.856L322.163 189.659H307.351L317.485 209.928Z" fill="#FD8A66" stroke="#FFFCFC"/>
<path d="M307.351 189.659H322.163L311.249 170.169H297.996L307.351 189.659Z" fill="#FD9366" stroke="#FFFCFC"/>
<path d="M297.995 170.169H311.248L298.775 149.121H287.081L297.995 170.169Z" fill="#FD9C66" stroke="#FFFCFC"/>
<path d="M287.861 149.121H298.775L286.302 128.072H276.947L287.861 149.121Z" fill="#FD9C66" stroke="#FFFCFC"/>
<path d="M276.947 128.072H286.302L273.829 105.464H266.033L276.947 128.072Z" fill="#FDAE66" stroke="#FFFCFC"/>
<path d="M266.033 105.464H273.829L263.694 88.3132H256.678L266.033 105.464Z" fill="#FDC066" stroke="#FFFCFC"/>
<path d="M256.677 88.3132H263.694L254.339 71.1624H248.102L256.677 88.3132Z" fill="#FDD366" stroke="#FFFCFC"/>
<path d="M248.102 71.1624H254.339L244.204 54.0116H239.527L248.102 71.1624Z" fill="#FDE566" stroke="#FFFCFC"/>
<path d="M239.527 54.0116H244.204L214.58 1.77957L239.527 54.0116Z" fill="#FDF766" stroke="#FFFCFC" stroke-width="0.5"/>
</g>
<defs>
<filter id="filter0_d" x="0.996094" y="0.708679" width="426.004" height="501.183" filterUnits="userSpaceOnUse" color-interpolation-filters="sRGB">
<feFlood flood-opacity="0" result="BackgroundImageFix"/>
<feColorMatrix in="SourceAlpha" type="matrix" values="0 0 0 0 0 0 0 0 0 0 0 0 0 0 0 0 0 0 127 0"/>
<feOffset dy="4"/>
<feGaussianBlur stdDeviation="2"/>
<feColorMatrix type="matrix" values="0 0 0 0 0 0 0 0 0 0 0 0 0 0 0 0 0 0 0.25 0"/>
<feBlend mode="normal" in2="BackgroundImageFix" result="effect1_dropShadow"/>
<feBlend mode="normal" in="SourceGraphic" in2="effect1_dropShadow" result="shape"/>
</filter>
<linearGradient id="paint0_linear" x1="77.7216" y1="136.647" x2="183.745" y2="22.8283" gradientUnits="userSpaceOnUse">
<stop stop-color="#FD9C66"/>
<stop offset="1" stop-color="#FDF766"/>
</linearGradient>
<linearGradient id="paint1_linear" x1="386.436" y1="146.002" x2="260.144" y2="0.999984" gradientUnits="userSpaceOnUse">
<stop stop-color="#FD9C66"/>
<stop offset="1" stop-color="#FDF766"/>
</linearGradient>
<linearGradient id="paint2_linear" x1="246.111" y1="403.265" x2="238.316" y2="325.306" gradientUnits="userSpaceOnUse">
<stop stop-color="#FD6666"/>
<stop offset="1" stop-color="#FD9C66"/>
</linearGradient>
<linearGradient id="paint3_linear" x1="77.7216" y1="136.647" x2="183.745" y2="22.8283" gradientUnits="userSpaceOnUse">
<stop stop-color="#FD9C66"/>
<stop offset="1" stop-color="#FDF766"/>
</linearGradient>
<linearGradient id="paint4_linear" x1="386.436" y1="146.002" x2="260.144" y2="0.999984" gradientUnits="userSpaceOnUse">
<stop stop-color="#FD9C66"/>
<stop offset="1" stop-color="#FDF766"/>
</linearGradient>
<linearGradient id="paint5_linear" x1="246.111" y1="403.265" x2="238.316" y2="325.306" gradientUnits="userSpaceOnUse">
<stop stop-color="#FD6666"/>
<stop offset="1" stop-color="#FD9C66"/>
</linearGradient>
</defs>
</svg>
